<svg width="197" height="90" viewBox="0 0 197 90" fill="none" xmlns="http://www.w3.org/2000/svg">
<path d="M6.69404 86.7288L2.70111 75.8657L0.117447 88.784H1.1744L2.93599 79.565L6.69404 89.4886L10.3934 79.565L12.155 88.784H13.2119L10.7457 75.8657L6.69404 86.7288Z" fill="black"/>
<path d="M40.6927 88.784H41.867L43.5112 84.9085H48.4436L50.0878 88.784H51.2622L45.9774 76.0418L40.6927 88.784ZM47.9152 83.9102H43.8048L45.8013 78.8604L47.9152 83.9102Z" fill="black"/>
<path d="M186.082 76.1005L180.798 88.8427H181.972L183.616 84.9672H188.549L190.193 88.8427H191.367L186.082 76.1005ZM188.079 83.9102H183.968L185.965 78.8604L188.079 83.9102Z" fill="black"/>
<path d="M84.1451 82.2661C84.7323 81.6789 84.9672 80.8568 84.9672 80.0348C84.9672 78.8604 84.4974 77.9209 83.5579 77.3337C82.6184 76.7465 81.5615 76.7465 80.622 76.7465H78.8604V88.9014H80.0348V83.3818H80.1522L84.2626 88.9014H85.6718L81.5615 83.2643C82.6184 83.2056 83.5579 82.8533 84.1451 82.2661ZM80.2109 77.8034H80.6807C81.3853 77.8034 82.0899 77.8034 82.6771 78.0383C83.6167 78.3906 83.8515 79.3301 83.8515 80.0348C83.8515 80.7394 83.4992 81.3266 83.0294 81.7963C82.4423 82.2661 81.7376 82.2661 80.9156 82.2661H80.0935L80.2109 77.8034Z" fill="black"/>
<path d="M114.797 76.7465H113.74V88.784H114.797V76.7465Z" fill="black"/>
<path d="M152.201 86.7288L143.217 76.2767V88.784H144.215V79.0952L153.258 89.4886V76.7465H152.201V86.7288Z" fill="black"/>
<path d="M26.6587 84.2626C27.6964 84.2626 28.5377 83.4213 28.5377 82.3835C28.5377 81.3458 27.6964 80.5045 26.6587 80.5045C25.6209 80.5045 24.7797 81.3458 24.7797 82.3835C24.7797 83.4213 25.6209 84.2626 26.6587 84.2626Z" fill="black"/>
<path d="M65.12 84.2626C66.1577 84.2626 66.999 83.4213 66.999 82.3835C66.999 81.3458 66.1577 80.5045 65.12 80.5045C64.0822 80.5045 63.241 81.3458 63.241 82.3835C63.241 83.4213 64.0822 84.2626 65.12 84.2626Z" fill="black"/>
<path d="M99.8233 80.5045C98.7663 80.5045 97.9442 81.3266 97.9442 82.3835C97.9442 83.4405 98.7663 84.2626 99.8233 84.2626C100.88 84.2626 101.702 83.4405 101.702 82.3835C101.702 81.3266 100.88 80.5045 99.8233 80.5045Z" fill="black"/>
<path d="M128.596 84.2626C129.634 84.2626 130.475 83.4213 130.475 82.3835C130.475 81.3458 129.634 80.5045 128.596 80.5045C127.558 80.5045 126.717 81.3458 126.717 82.3835C126.717 83.4213 127.558 84.2626 128.596 84.2626Z" fill="black"/>
<path d="M166.94 84.2626C167.977 84.2626 168.819 83.4213 168.819 82.3835C168.819 81.3458 167.977 80.5045 166.94 80.5045C165.902 80.5045 165.061 81.3458 165.061 82.3835C165.061 83.4213 165.902 84.2626 166.94 84.2626Z" fill="black"/>
<path d="M19.5536 37.5218L7.04635 69.524H7.62939e-06L12.5073 37.5218H19.5536Z" fill="black"/>
<path d="M18.9664 61.8317L18.4967 62.8886C17.792 64.6502 17.4397 66.4118 19.5536 66.4118C21.0803 66.4118 22.607 65.4723 22.607 63.5933C22.607 62.184 22.0198 60.6573 19.9059 58.7783C16.3828 55.7249 16.3828 53.2586 17.792 49.7942C19.2013 46.271 22.9594 44.392 27.2459 44.392C33.0004 44.392 34.7033 47.6803 33.1178 51.8494L32.7655 52.6714H27.011L27.4808 51.497C28.1854 49.5006 27.7156 48.5611 26.4238 48.5611C25.132 48.5611 24.3099 48.796 23.8402 50.2052C23.3704 51.4971 23.8402 52.7889 25.4843 54.1982C29.4772 57.7213 29.947 60.716 28.4203 64.4741C26.7761 68.467 23.3704 70.346 18.2618 70.346C11.2742 70.346 10.8044 66.4705 12.8596 62.184L13.0945 61.8317H18.9664Z" fill="black"/>
<path d="M28.6552 69.524L41.3973 37.2869H48.5024L35.7602 69.524H28.6552Z" fill="black"/>
<path d="M57.7213 63.4758C56.8993 65.4723 55.6074 68.878 55.2551 69.5827H49.5006C49.618 69.1129 49.8529 68.2908 50.2052 67.5862C48.5611 69.2304 46.3297 70.0524 43.9222 70.0524C39.1072 70.0524 39.577 66.2944 41.1037 62.595C45.0966 53.2586 54.1982 57.0754 56.4295 51.2622C56.8993 49.8529 56.8993 48.9134 55.0202 48.9134C53.2586 48.9134 52.554 50.4401 51.7319 52.2017L51.3796 52.7889H45.5077L45.6251 52.4366C46.9169 49.2657 49.3832 44.392 56.7231 44.392C62.8299 44.392 64.2979 47.0931 62.7125 51.0273L57.7213 63.4758ZM54.2569 57.8388C50.3814 58.426 49.5593 59.1306 48.15 62.184C47.4454 63.8282 46.5059 65.7072 48.6198 65.7072C50.8511 65.7072 51.5558 63.9456 52.965 60.5399L54.2569 57.8388Z" fill="black"/>
<path d="M65.8246 52.3191C67.8211 47.2692 68.2909 45.8013 68.7606 44.6269H74.2802C74.1628 45.3315 73.9279 45.8013 73.6931 46.5059C74.9849 45.2141 76.9813 44.1571 79.4476 44.1571C83.2056 44.1571 84.4975 46.6233 83.0882 50.2639L75.5134 69.2891H69.1129L75.161 53.9633C76.1006 51.7319 75.9831 50.675 74.339 50.675C72.4599 50.675 71.8727 52.2017 70.5809 55.49L64.9438 69.7588L59.0719 69.524L65.8246 52.3191Z" fill="black"/>
<path d="M107.516 37.052C107.516 37.052 95.3606 68.1147 94.8908 69.524H89.3712C89.4886 68.8193 89.6061 68.2321 89.9584 67.5275C88.5491 69.0542 85.7306 69.9937 83.2056 69.9937C78.5081 69.9937 79.6825 66.0008 81.444 61.5968L85.2021 52.143C86.7288 48.2675 88.9601 44.3333 94.0687 44.3333C96.1826 44.3333 97.8268 45.0379 98.2965 46.2123L101.937 37.1108C101.937 37.052 107.516 37.052 107.516 37.052ZM87.6683 61.9491C86.9637 63.7107 86.259 65.7072 88.3729 65.7072C90.6043 65.7072 91.3089 63.9456 92.4833 61.0096L95.1844 54.1394C96.3588 51.4383 96.4762 49.6767 94.01 49.6767C92.131 49.6767 91.8961 51.2035 90.9566 53.4348L87.6683 61.9491Z" fill="black"/>
<path d="M135.349 56.6644L135.114 57.2516C133.235 61.5968 131.825 69.9937 120.61 69.9937C112.565 69.9937 112.096 66.2357 114.21 60.8922L119.964 46.271C122.313 40.5165 124.897 36.5823 132.824 36.5823C143.922 36.5823 140.046 44.2745 138.461 48.15L138.343 48.6198H130.945L131.414 47.328C132.354 44.7443 133.176 41.5735 131.062 41.5735C129.183 41.5735 128.361 42.7478 127.304 45.5664L120.962 61.7143C119.905 64.4154 120.258 65.12 122.489 65.12C124.368 65.12 126.247 60.6573 127.421 57.8975L127.891 56.7231C127.891 56.6644 135.349 56.6644 135.349 56.6644Z" fill="black"/>
<path d="M156.311 52.554L152.553 61.8904C150.557 67.1752 148.091 70.1699 142.043 70.1699C133.998 70.1699 134.35 66.6467 136.288 61.5381L140.164 51.6145C141.925 46.9169 144.861 44.1571 150.557 44.1571C157.31 44.2745 158.249 47.5628 156.311 52.554ZM146.447 52.0842L142.336 62.4776C141.514 64.5915 141.279 66.3531 143.158 66.3531C145.037 66.3531 145.272 64.709 146.094 62.4776L150.205 52.0842C150.909 50.2052 151.144 48.5611 149.383 48.5611C147.621 48.7372 147.151 50.2639 146.447 52.0842Z" fill="black"/>
<path d="M168.114 45.2141C166.235 53.9633 164.473 60.5399 163.417 63.8869C164.943 60.716 169.817 50.4401 172.87 45.2141H179.388L165.589 69.5239H157.427L161.772 45.2141H168.114Z" fill="black"/>
<path d="M183.968 58.426L182.442 62.4189C181.62 64.2979 181.032 66.0595 183.146 66.0595C185.143 66.0595 186.082 63.0061 186.669 61.5968L186.904 60.8922H193.129L192.894 61.4794C191.484 65.2374 190.428 70.5809 181.091 70.5809C173.869 70.5809 174.808 65.4136 176.394 61.2445L179.799 52.7302C181.326 48.8547 184.027 44.6856 190.662 44.6856C197.767 44.6856 197.767 48.9134 196.065 53.1999L193.833 58.7196H184.027L183.968 58.426ZM189.136 54.0807L190.428 51.2622C191.015 49.618 190.662 48.6785 189.488 48.6785C188.314 48.6785 187.257 49.3831 186.552 51.2622L185.26 54.1981L189.136 54.0807Z" fill="black"/>
<path d="M103.934 32.3545C103.934 32.3545 109.218 26.2476 119.377 26.2476C129.535 26.2476 135.407 32.8829 138.05 42.9827C138.05 42.9827 136.288 38.8723 135.701 39.1072C135.114 39.3421 136.288 43.6873 136.288 43.6873C136.288 43.6873 133.47 37.5805 132.295 36.23C132.765 38.2264 132.53 43.4525 132.53 43.4525C132.53 43.4525 130.181 33.5289 128.655 32.8242C129.124 34.8207 128.772 43.9222 128.772 43.9222C128.772 43.9222 126.776 31.2975 125.953 31.2975C126.188 33.0591 126.071 42.7478 126.071 42.7478C126.071 42.7478 124.309 30.8278 123.252 30.8278C123.37 31.8847 123.957 41.6909 123.722 43.1002C123.37 41.1037 121.373 30.4755 120.669 30.4755C120.786 31.2975 121.373 41.2211 121.373 41.8083C121.138 40.2816 119.142 30.7103 118.085 30.7103C118.555 31.7673 119.377 40.1642 119.377 40.5165C119.025 39.4595 116.793 30.7103 115.971 30.8278C116.089 31.5324 116.793 37.9328 116.911 38.7549C116.206 36.8759 114.679 31.5324 113.975 31.5324C114.21 32.9417 114.21 37.052 114.21 37.6392C113.975 36.6997 112.213 31.2388 111.743 31.2388C112.096 32.5306 112.213 36.8759 112.213 36.8759C112.213 36.8759 111.039 31.9434 110.569 31.9434C110.686 32.4132 110.921 36.4061 110.921 36.641C110.804 35.9364 110.099 32.0609 109.747 32.0609C109.512 32.0609 109.395 35.5841 109.395 36.1712C109.277 35.3492 109.042 31.826 108.69 31.826C108.338 31.826 108.103 35.3492 108.103 35.3492C108.103 35.3492 107.985 31.9434 107.633 31.9434C107.281 31.9434 106.459 34.8794 106.459 34.8794C106.459 34.8794 106.459 31.9434 106.224 31.9434C105.989 31.9434 104.932 34.1748 104.932 34.1748C104.932 34.1748 105.637 31.826 105.402 31.7086C105.46 31.5324 103.934 32.3545 103.934 32.3545Z" fill="#1AB700"/>
<path d="M104.286 32.3545C104.286 32.3545 99.0012 26.2476 88.8427 26.2476C78.6842 26.2476 72.8123 32.9417 70.1112 42.9827C70.1112 42.9827 71.8727 38.8723 72.4599 39.1072C73.0471 39.3421 71.8727 43.6873 71.8727 43.6873C71.8727 43.6873 74.6913 37.5805 75.8657 36.23C75.3959 38.2264 75.6308 43.4525 75.6308 43.4525C75.6308 43.4525 77.9796 33.5289 79.5063 32.8242C79.0365 34.8207 79.3888 43.9222 79.3888 43.9222C79.3888 43.9222 81.3853 31.2975 82.2074 31.2975C81.9725 33.0591 82.09 42.7478 82.09 42.7478C82.09 42.7478 83.8515 30.8278 84.9085 30.8278C84.7911 31.8847 84.2039 41.6909 84.4387 43.1002C84.7911 41.1037 86.7875 30.4755 87.4921 30.4755C87.3747 31.2975 86.7875 41.2211 86.7875 41.8083C87.0224 40.2816 89.0189 30.7103 90.0758 30.7103C89.606 31.7673 88.784 40.1642 88.784 40.5165C89.1363 39.4595 91.3676 30.7103 92.1897 30.8278C92.0723 31.5324 91.3676 37.9328 91.2502 38.7549C91.9548 36.8759 93.4815 31.5324 94.1862 31.5324C93.9513 32.9417 93.9513 37.052 93.9513 37.6392C94.1862 36.6997 95.9478 31.2388 96.4175 31.2388C96.0652 32.5306 95.9478 36.8759 95.9478 36.8759C95.9478 36.8759 97.1222 31.9434 97.5919 31.9434C97.4745 32.4132 97.2396 36.4061 97.2396 36.641C97.357 35.9364 98.0617 32.0609 98.414 32.0609C98.6489 32.0609 98.7663 35.5841 98.7663 36.1712C98.8837 35.3492 99.1186 31.826 99.4709 31.826C99.8233 31.826 100.176 35.4666 100.176 35.4666C100.176 35.4666 100.293 32.0609 100.645 32.0609C100.998 32.0609 101.82 34.9969 101.82 34.9969C101.82 34.9969 101.82 32.0609 102.055 32.0609C102.289 32.0609 103.346 34.2922 103.346 34.2922C103.346 34.2922 102.642 31.9434 102.877 31.826C102.759 31.5324 104.286 32.3545 104.286 32.3545Z" fill="#1AB700"/>
<path d="M103.229 31.6498C103.229 31.6498 102.642 23.6053 109.864 16.4415C117.087 9.27769 125.895 9.92361 134.879 15.0322C134.879 15.0322 130.768 13.3881 130.534 13.9753C130.299 14.5625 134.174 16.9112 134.174 16.9112C134.174 16.9112 127.891 14.5625 126.13 14.3276C127.891 15.502 131.414 19.26 131.414 19.26C131.414 19.26 122.783 13.8578 121.138 14.445C122.9 15.6194 129.066 22.2547 129.066 22.2547C129.066 22.2547 118.79 14.6799 118.202 15.2671C119.494 16.324 126.364 23.1942 126.364 23.1942C126.364 23.1942 116.793 15.9717 115.971 16.7938C116.793 17.4984 124.133 24.0163 124.955 25.1907C123.311 24.0163 114.444 17.9682 113.975 18.3205C114.679 18.9077 122.137 25.4256 122.372 25.8953C121.197 24.9558 112.918 19.6123 112.213 20.2582C113.27 20.728 119.788 26.0128 120.023 26.3651C119.083 25.7779 111.274 21.1978 110.804 21.785C111.391 22.1373 116.441 26.2476 117.028 26.8348C115.266 26.0128 110.393 23.1942 109.806 23.664C110.98 24.6035 113.916 27.422 114.268 27.8918C113.446 27.422 108.279 24.7209 107.985 25.0733C109.042 25.7779 112.331 28.8313 112.331 28.8313C112.331 28.8313 107.985 26.1302 107.75 26.4825C108.22 26.7174 111.156 29.4185 111.274 29.5359C110.686 29.0662 107.516 26.9523 107.281 27.0697C107.046 27.3046 109.512 29.8883 109.864 30.2406C109.16 29.6534 106.576 27.422 106.341 27.6569C106.106 27.8918 108.455 30.7103 108.455 30.7103C108.455 30.7103 105.989 28.3615 105.636 28.5964C105.402 28.8313 106.928 31.5324 106.928 31.5324C106.928 31.5324 104.814 29.4185 104.697 29.6534C104.58 29.8883 105.284 32.1196 105.284 32.1196C105.284 32.1196 104.11 29.8883 103.875 30.0057C103.699 30.0057 103.229 31.6498 103.229 31.6498Z" fill="#1AB700"/>
<path d="M103.816 31.2975C103.816 31.2975 104.403 23.2529 97.1808 16.0892C89.9583 8.92537 81.1504 9.57129 72.1663 14.6799C72.1663 14.6799 76.2767 13.0357 76.5116 13.6229C76.7464 14.2101 72.871 16.5589 72.871 16.5589C72.871 16.5589 79.1539 14.0927 80.9155 13.9753C79.1539 15.1496 75.6308 18.9077 75.6308 18.9077C75.6308 18.9077 84.2625 13.5055 85.9067 14.0927C84.1451 15.2671 77.9796 21.9024 77.9796 21.9024C77.9796 21.9024 88.2555 14.3276 88.8427 14.9148C87.5508 15.9717 80.6807 22.9593 80.6807 22.9593C80.6807 22.9593 90.2519 15.7368 91.074 16.5589C90.2519 17.2635 82.912 23.7814 82.0899 24.9558C83.7341 23.7814 92.6007 17.7333 93.0705 18.0856C92.3658 18.6728 84.9085 25.1907 84.6736 25.6604C85.848 24.7209 94.1274 19.3775 94.8321 20.0234C93.7751 20.4931 87.2572 25.7779 87.0224 26.1302C87.9619 25.543 95.7716 20.9629 96.2413 21.5501C95.6541 21.9024 90.6043 26.0128 90.0171 26.6C91.7787 25.7779 96.6524 22.9593 97.2396 23.4291C96.0652 24.3686 93.1292 27.1871 92.7769 27.6569C93.599 27.1871 98.7663 24.4861 99.0599 24.8384C98.0029 25.543 94.7146 28.5964 94.7146 28.5964C94.7146 28.5964 99.0599 25.8953 99.2948 26.2476C98.825 26.4825 95.889 29.1836 95.7716 29.3011C96.3588 28.8313 99.5296 26.7174 99.7645 26.8348C99.9994 27.0697 97.5332 29.6534 97.1808 30.0057C97.8855 29.4185 100.469 27.1872 100.704 27.422C100.939 27.6569 98.5901 30.4754 98.5901 30.4754C98.5901 30.4754 101.056 28.1267 101.409 28.3615C101.644 28.5964 100.117 31.2975 100.117 31.2975C100.117 31.2975 102.231 29.1836 102.348 29.4185C102.583 29.6534 101.761 31.8847 101.761 31.8847C101.761 31.8847 102.935 29.6534 103.17 29.7708C103.464 29.6534 103.816 31.2975 103.816 31.2975Z" fill="#1AB700"/>
<path d="M104.286 31.8847C104.286 31.8847 109.453 25.6604 107.692 15.6194C106.048 5.57836 98.414 1.05695 88.1381 0C88.1381 0 92.4833 1.05695 92.3659 1.64415C92.2484 2.23134 87.6683 1.87903 87.6683 1.87903C87.6683 1.87903 94.1862 3.64061 95.7129 4.46269C93.599 4.34525 88.6078 5.51964 88.6078 5.51964C88.6078 5.51964 98.7663 6.22427 99.7058 7.63354C97.5919 7.5161 88.7253 9.39513 88.7253 9.39513C88.7253 9.39513 101.467 9.16025 101.702 9.98232C99.9407 10.0998 90.3694 11.7439 90.3694 11.7439C90.3694 11.7439 102.407 11.3916 102.524 12.566C101.467 12.566 91.6612 13.7404 90.3694 14.2101C92.4833 14.2101 103.112 14.445 103.346 15.0322C102.524 15.0322 92.6007 16.0892 92.0135 16.2066C93.5403 16.2066 103.346 16.5589 103.464 17.4984C102.407 17.2635 93.8926 17.7333 93.6577 17.8507C94.7146 17.9682 103.816 18.7903 103.816 19.4949C103.112 19.4949 96.7111 19.8472 95.889 19.9646C97.7681 20.317 103.464 20.9042 103.581 21.6088C102.172 21.7262 98.0617 22.196 97.4745 22.4309C98.414 22.5483 104.11 23.2529 104.227 23.8401C102.935 23.7227 98.5901 24.3099 98.5901 24.3099C98.5901 24.3099 103.64 24.6622 103.757 25.0145C103.288 24.8971 99.2948 25.3668 99.0599 25.4843C99.7645 25.4843 103.64 25.6017 103.757 25.8366C103.757 26.0715 100.352 26.7761 99.7645 26.8936C100.704 26.8936 104.11 26.5412 104.227 26.8936C104.345 27.2459 100.704 28.1854 100.704 28.1854C100.704 28.1854 104.11 27.7156 104.227 28.0679C104.227 28.4203 101.526 29.7121 101.526 29.7121C101.526 29.7121 104.462 29.2423 104.462 29.4772C104.462 29.7121 102.466 31.1214 102.466 31.1214C102.466 31.1214 104.697 30.0644 104.814 30.1819C104.991 30.1231 104.286 31.8847 104.286 31.8847Z" fill="#1AB700"/>
<path d="M49.6767 32.1196C49.6767 32.1196 53.5522 27.6569 61.0096 27.6569C68.467 27.6569 72.8122 32.5893 74.8087 39.9293C74.8087 39.9293 73.5169 36.8759 73.0471 37.1108C72.5774 37.3456 73.3994 40.5165 73.3994 40.5165C73.3994 40.5165 71.403 35.9364 70.4635 34.9969C70.8158 36.5236 70.5809 40.2816 70.5809 40.2816C70.5809 40.2816 68.8193 33.0591 67.6449 32.4719C67.9972 33.9986 67.7624 40.6339 67.7624 40.6339C67.7624 40.6339 66.3531 31.415 65.7659 31.2975C65.8833 32.5893 65.8833 39.6944 65.8833 39.6944C65.8833 39.6944 64.5915 30.9452 63.7694 30.9452C63.8869 31.7673 64.3566 38.8723 64.1218 39.9293C63.8869 38.4026 62.3602 30.7103 61.8904 30.7103C62.0079 31.2975 62.4776 38.6375 62.3602 38.9898C62.1253 37.9328 60.716 30.8278 60.0114 30.8278C60.3637 31.5324 60.9509 37.698 60.9509 38.0503C60.716 37.2282 59.0719 30.8278 58.4847 30.9452C58.6021 31.415 59.0719 36.1125 59.1893 36.8172C58.7196 35.5253 57.5452 31.415 57.0754 31.415C57.1928 32.4719 57.3103 35.5253 57.3103 35.8776C57.1928 35.173 55.901 31.1801 55.4313 31.0626C55.6661 32.0022 55.7836 35.2904 55.7836 35.2904C55.7836 35.2904 54.9615 31.6498 54.6092 31.6498C54.7266 32.0022 54.8441 34.9381 54.8441 35.0556C54.7266 34.4684 54.2569 31.7673 54.022 31.7673C53.7871 31.7673 53.7871 34.3509 53.7871 34.8207C53.6697 34.2335 53.5522 31.6498 53.1999 31.6498C52.965 31.6498 52.7302 34.3509 52.7302 34.3509C52.7302 34.3509 52.6127 31.7673 52.3778 31.7673C52.143 31.7673 51.6732 33.9986 51.6732 33.9986C51.6732 33.9986 51.6732 31.8847 51.4383 31.8847C51.2035 31.8847 50.4988 33.5289 50.4988 33.5289C50.4988 33.5289 50.9686 31.7673 50.8511 31.6498C50.7337 31.5324 49.6767 32.1196 49.6767 32.1196Z" fill="#1AB700"/>
<path d="M49.9116 32.1196C49.9116 32.1196 46.0361 27.6569 38.5788 27.6569C31.1214 27.6569 26.8936 32.5893 24.7797 39.9293C24.7797 39.9293 26.0715 36.8759 26.5412 37.1108C27.011 37.3456 26.1889 40.5165 26.1889 40.5165C26.1889 40.5165 28.1854 35.9364 29.1249 34.9969C28.7726 36.5236 29.0075 40.2816 29.0075 40.2816C29.0075 40.2816 30.7691 33.0591 31.9434 32.4719C31.5911 33.9986 31.826 40.6339 31.826 40.6339C31.826 40.6339 33.2353 31.415 33.8225 31.2975C33.705 32.5893 33.705 39.6944 33.705 39.6944C33.705 39.6944 34.9969 30.9452 35.8189 30.9452C35.7015 31.7673 35.2317 38.8723 35.4666 39.9293C35.7015 38.4026 37.2282 30.7103 37.698 30.7103C37.5805 31.2975 37.1108 38.6375 37.2282 38.9898C37.4631 37.9328 38.8724 30.8278 39.577 30.8278C39.2247 31.5324 38.6375 37.698 38.6375 38.0503C38.8724 37.2282 40.5165 30.8278 41.1037 30.9452C40.9863 31.415 40.5165 36.1125 40.3991 36.8172C40.8688 35.5253 42.0432 31.415 42.513 31.415C42.3955 32.4719 42.2781 35.5253 42.2781 35.8776C42.3955 35.173 43.6874 31.1801 44.1571 31.0626C43.9222 32.0022 43.8048 35.2904 43.8048 35.2904C43.8048 35.2904 44.6269 31.6498 44.9792 31.6498C44.8617 32.0022 44.7443 34.9381 44.7443 35.0556C44.8617 34.4684 45.3315 31.7673 45.5664 31.7673C45.8013 31.7673 45.8013 34.3509 45.8013 34.8207C45.9187 34.2335 46.0361 31.6498 46.3885 31.6498C46.6233 31.6498 46.8582 34.3509 46.8582 34.3509C46.8582 34.3509 46.9757 31.7673 47.2105 31.7673C47.4454 31.7673 48.0326 33.9986 48.0326 33.9986C48.0326 33.9986 48.0326 31.8847 48.2675 31.8847C48.5024 31.8847 49.207 33.5289 49.207 33.5289C49.207 33.5289 48.7372 31.7673 48.8547 31.6498C48.8547 31.5324 49.9116 32.1196 49.9116 32.1196Z" fill="#1AB700"/>
<path d="M49.207 31.6498C49.207 31.6498 48.7372 25.6604 54.1394 20.4344C59.5416 15.2084 65.9421 15.6194 72.5186 19.3775C72.5186 19.3775 69.4652 18.2031 69.3478 18.5554C69.2303 19.0251 72.0489 20.6693 72.0489 20.6693C72.0489 20.6693 67.3513 18.9077 66.0595 18.7903C67.3513 19.6123 69.935 22.4309 69.935 22.4309C69.935 22.4309 63.5346 18.4379 62.4776 18.9077C63.7694 19.7298 68.3496 24.6622 68.3496 24.6622C68.3496 24.6622 60.8922 19.0251 60.4224 19.4949C61.3619 20.317 66.4118 25.3668 66.4118 25.3668C66.4118 25.3668 59.248 19.9646 58.6608 20.5518C59.248 21.0216 64.7677 25.8366 65.2961 26.7761C64.1217 25.8366 57.6039 21.4914 57.2516 21.7262C57.7213 22.0786 63.241 27.011 63.4758 27.2459C62.5363 26.5412 56.6056 22.5483 56.0184 23.1355C56.7231 23.4878 61.6555 27.3633 61.773 27.5982C61.0683 27.2459 55.3725 23.8401 55.0202 24.3099C55.49 24.5448 59.1306 27.5982 59.6003 27.9505C58.3085 27.3633 54.6679 25.2494 54.3156 25.7192C55.1377 26.4238 57.369 28.4203 57.6039 28.7726C57.0167 28.4203 53.2586 26.4238 52.9063 26.6587C53.7284 27.1284 56.0772 29.3598 56.0772 29.3598C56.0772 29.3598 52.9063 27.3633 52.6714 27.5982C53.0237 27.7156 55.1377 29.7121 55.2551 29.8295C54.7853 29.4772 52.4366 27.9505 52.3191 28.0679C52.2017 28.1854 53.9633 30.0644 54.1981 30.4167C53.7284 30.0644 51.7319 28.4203 51.6145 28.5377C51.3796 28.6551 53.1412 30.769 53.1412 30.769C53.1412 30.769 51.2622 29.0075 51.1447 29.2423C50.9098 29.4772 52.0842 31.3562 52.0842 31.3562C52.0842 31.3562 50.5575 29.8295 50.4401 29.947C50.3227 30.0644 50.9098 31.826 50.9098 31.826C50.9098 31.826 50.0878 30.1819 49.8529 30.2993C49.5593 30.358 49.207 31.6498 49.207 31.6498Z" fill="#1AB700"/>
<path d="M49.6768 31.415C49.6768 31.415 50.0291 25.4256 44.7443 20.1995C39.4595 14.9735 32.9417 15.3845 26.2477 19.1426C26.2477 19.1426 29.3011 17.9682 29.4185 18.3205C29.5359 18.7903 26.7174 20.4344 26.7174 20.4344C26.7174 20.4344 31.415 18.6728 32.7068 18.5554C31.415 19.3775 28.8313 22.196 28.8313 22.196C28.8313 22.196 35.1143 18.2031 36.2887 18.6728C34.9969 19.4949 30.4167 24.4273 30.4167 24.4273C30.4167 24.4273 37.8741 18.7903 38.3439 19.26C37.4044 20.0821 32.3545 25.132 32.3545 25.132C32.3545 25.132 39.3421 19.7298 39.9293 20.317C39.3421 20.7867 33.9399 25.6017 33.4114 26.5412C34.5858 25.6017 41.1037 21.139 41.456 21.4914C40.9863 21.8437 35.4666 26.7761 35.2317 27.1284C36.1713 26.4238 42.1019 22.4309 42.6891 23.0181C41.9845 23.3704 37.052 27.2459 36.9346 27.4808C37.6392 27.1284 43.335 23.6053 43.6874 24.075C43.2176 24.3099 39.577 27.3633 39.1072 27.7156C40.3991 27.1284 44.0397 25.0145 44.392 25.3668C43.5699 26.0715 41.3386 28.068 41.1037 28.4203C41.6909 28.068 45.4489 26.0715 45.8013 26.3064C44.9792 26.7761 42.6304 29.0075 42.6304 29.0075C42.6304 29.0075 45.8013 27.011 46.0361 27.2459C45.6838 27.3633 43.5699 29.3598 43.4525 29.4772C43.9222 29.1249 46.271 27.5982 46.3885 27.7156C46.5059 27.8331 44.7443 29.7121 44.5094 30.0644C44.9792 29.7121 46.9756 28.0679 47.0931 28.1854C47.328 28.3028 45.5664 30.4167 45.5664 30.4167C45.5664 30.4167 47.4454 28.6551 47.5628 28.89C47.7977 29.1249 46.6233 31.0039 46.6233 31.0039C46.6233 31.0039 48.15 29.4772 48.2675 29.5947C48.3849 29.7121 47.7977 31.4737 47.7977 31.4737C47.7977 31.4737 48.6198 29.8295 48.8547 29.947C49.3244 30.0057 49.6768 31.415 49.6768 31.415Z" fill="#1AB700"/>
<path d="M49.9116 31.7673C49.9116 31.7673 53.6697 27.1872 52.4953 19.8472C51.2035 12.5073 45.6251 9.10153 38.109 8.3969C38.109 8.3969 41.2799 9.21897 41.1624 9.57129C41.045 10.041 37.7567 9.80617 37.7567 9.80617C37.7567 9.80617 42.5717 11.098 43.6286 11.6852C42.1019 11.5678 38.3439 12.3898 38.3439 12.3898C38.3439 12.3898 45.8013 12.8596 46.5059 13.9165C44.9792 13.9165 38.4613 15.2084 38.4613 15.2084C38.4613 15.2084 47.7977 15.0909 47.9152 15.6781C46.7408 15.7956 39.7531 16.97 39.7531 16.97C39.7531 16.97 48.6198 16.7351 48.7372 17.5571C47.9152 17.5571 40.8101 18.3792 39.7531 18.7315C41.2799 18.7315 49.0896 18.9664 49.207 19.3187C48.5024 19.3187 41.2799 20.1408 40.9275 20.2582C41.9845 20.2582 49.207 20.4931 49.3244 21.1978C48.5024 20.9629 42.3368 21.4326 42.1019 21.4326C42.924 21.5501 49.5593 22.1373 49.5593 22.7245C49.0896 22.7245 44.2746 22.9593 43.6874 23.0768C45.0966 23.3117 49.3244 23.7814 49.3244 24.2512C48.2675 24.2512 45.3315 24.7209 44.8617 24.8384C45.5664 24.8384 49.7942 25.4256 49.9116 25.8953C48.9721 25.7779 45.6838 26.2476 45.6838 26.2476C45.6838 26.2476 49.4419 26.4825 49.4419 26.8348C49.0896 26.8348 46.1536 27.0697 46.0361 27.1872C46.6233 27.1872 49.4419 27.1872 49.4419 27.422C49.4419 27.6569 46.8582 28.1267 46.5059 28.2441C47.2105 28.2441 49.6768 28.0092 49.7942 28.2441C49.9116 28.479 47.2105 29.1836 47.2105 29.1836C47.2105 29.1836 49.6768 28.8313 49.7942 29.0662C49.9116 29.3011 47.7977 30.2406 47.7977 30.2406C47.7977 30.2406 49.9116 29.8883 49.9116 30.1231C49.9116 30.358 48.5024 31.415 48.5024 31.415C48.5024 31.415 50.1465 30.5929 50.2639 30.7103C50.3814 30.5929 49.9116 31.7673 49.9116 31.7673Z" fill="#1AB700"/>
<path d="M160.363 32.9417C160.363 32.9417 164.239 28.479 171.696 28.479C179.153 28.479 183.381 33.4114 185.495 40.7514C185.495 40.7514 184.203 37.698 183.734 37.9328C183.264 38.1677 184.086 41.3386 184.086 41.3386C184.086 41.3386 182.089 36.7584 181.15 35.8189C181.502 37.3456 181.267 41.1037 181.267 41.1037C181.267 41.1037 179.506 33.8812 178.331 33.294C178.684 34.8207 178.449 41.456 178.449 41.456C178.449 41.456 177.04 32.237 176.452 32.1196C176.57 33.4114 176.57 40.5165 176.57 40.5165C176.57 40.5165 175.278 31.7673 174.456 31.7673C174.573 32.5894 175.043 39.6944 174.808 40.7514C174.573 39.2247 173.047 31.5324 172.577 31.5324C172.694 32.1196 173.164 39.4595 173.047 39.8119C172.812 38.7549 171.402 31.6498 170.698 31.6498C171.05 32.3545 171.637 38.52 171.637 38.8723C171.402 38.0503 169.758 31.6498 169.171 31.7673C169.289 32.237 169.758 36.9346 169.876 37.6392C169.406 36.3474 168.232 32.237 167.762 32.237C167.879 33.294 167.997 36.3474 167.997 36.6997C167.879 35.9951 166.587 32.0022 166.118 31.8847C166.353 32.8242 166.47 36.1125 166.47 36.1125C166.47 36.1125 165.648 32.4719 165.296 32.4719C165.413 32.8242 165.53 35.7602 165.53 35.8776C165.413 35.2905 164.943 32.5894 164.708 32.5894C164.474 32.5894 164.474 35.173 164.474 35.6428C164.356 35.0556 164.239 32.4719 163.886 32.4719C163.651 32.4719 163.417 35.173 163.417 35.173C163.417 35.173 163.299 32.5894 163.064 32.5894C162.829 32.5894 162.242 34.8207 162.242 34.8207C162.242 34.8207 162.242 32.7068 162.007 32.7068C161.772 32.7068 161.068 34.3509 161.068 34.3509C161.068 34.3509 161.538 32.5894 161.42 32.4719C161.42 32.3545 160.363 32.9417 160.363 32.9417Z" fill="#1AB700"/>
<path d="M160.598 32.9417C160.598 32.9417 156.723 28.479 149.265 28.479C141.808 28.479 137.58 33.4114 135.466 40.7514C135.466 40.7514 136.758 37.698 137.228 37.9328C137.697 38.1677 136.875 41.3386 136.875 41.3386C136.875 41.3386 138.872 36.7584 139.811 35.8189C139.459 37.3456 139.694 41.1037 139.694 41.1037C139.694 41.1037 141.455 33.8812 142.63 33.294C142.278 34.8207 142.512 41.456 142.512 41.456C142.512 41.456 143.922 32.237 144.509 32.1196C144.391 33.4114 144.391 40.5165 144.391 40.5165C144.391 40.5165 145.683 31.7673 146.505 31.7673C146.388 32.5894 145.918 39.6944 146.153 40.7514C146.388 39.2247 147.915 31.5324 148.384 31.5324C148.267 32.1196 147.797 39.4595 147.915 39.8119C148.149 38.7549 149.559 31.6498 150.263 31.6498C149.911 32.3545 149.324 38.52 149.324 38.8723C149.559 38.0503 151.203 31.6498 151.79 31.7673C151.673 32.237 151.203 36.9346 151.085 37.6392C151.555 36.3474 152.73 32.237 153.199 32.237C153.082 33.294 152.964 36.3474 153.082 36.6997C153.199 35.9951 154.491 32.0022 154.961 31.8847C154.726 32.8242 154.609 36.1125 154.609 36.1125C154.609 36.1125 155.431 32.4719 155.783 32.4719C155.666 32.8242 155.548 35.7602 155.548 35.8776C155.666 35.2905 156.135 32.5894 156.37 32.5894C156.605 32.5894 156.605 35.173 156.605 35.6428C156.723 35.0556 156.84 32.4719 157.192 32.4719C157.427 32.4719 157.662 35.173 157.662 35.173C157.662 35.173 157.779 32.5894 158.014 32.5894C158.249 32.5894 158.836 34.8207 158.836 34.8207C158.836 34.8207 158.836 32.7068 159.071 32.7068C159.306 32.7068 160.011 34.3509 160.011 34.3509C160.011 34.3509 159.541 32.5894 159.658 32.4719C159.541 32.3545 160.598 32.9417 160.598 32.9417Z" fill="#1AB700"/>
<path d="M159.893 32.3545C159.893 32.3545 159.424 26.3651 164.826 21.139C170.111 15.8543 176.628 16.324 183.205 20.0821C183.205 20.0821 180.152 18.9077 180.034 19.26C179.917 19.6123 182.735 21.3739 182.735 21.3739C182.735 21.3739 178.038 19.6123 176.746 19.4949C178.038 20.317 180.621 23.1355 180.621 23.1355C180.621 23.1355 174.221 19.1426 173.164 19.6123C174.456 20.4344 179.036 25.3668 179.036 25.3668C179.036 25.3668 171.579 19.7298 171.109 20.1995C172.048 21.0216 177.098 26.0715 177.098 26.0715C177.098 26.0715 170.111 20.6693 169.523 21.2565C170.111 21.7262 175.63 26.5412 176.159 27.4807C174.984 26.5412 168.466 22.196 168.114 22.4309C168.584 22.7832 174.104 27.7156 174.338 27.9505C173.399 27.2459 167.468 23.2529 166.881 23.8401C167.586 24.1925 172.518 28.0679 172.636 28.3028C171.931 27.9505 166.235 24.5448 165.883 25.0145C166.353 25.2494 169.993 28.3028 170.463 28.6551C169.171 28.0679 165.53 25.954 165.178 26.4238C166 27.1284 168.232 29.1249 168.466 29.4772C167.879 29.1249 164.121 27.1284 163.769 27.3633C164.591 27.8331 166.94 30.0644 166.94 30.0644C166.94 30.0644 163.769 28.0679 163.534 28.3028C163.886 28.4203 166 30.4167 166.118 30.5342C165.648 30.1818 163.299 28.6551 163.182 28.7726C163.064 28.89 164.826 30.769 165.061 31.1214C164.591 30.769 162.594 29.1249 162.477 29.2423C162.242 29.3598 164.004 31.4737 164.004 31.4737C164.004 31.4737 162.125 29.7121 162.007 29.947C161.772 30.1818 162.947 32.0609 162.947 32.0609C162.947 32.0609 161.42 30.5342 161.303 30.6516C161.185 30.769 161.772 32.5306 161.772 32.5306C161.772 32.5306 160.95 30.8865 160.715 31.0039C160.128 31.1801 159.893 32.3545 159.893 32.3545Z" fill="#1AB700"/>
<path d="M160.246 32.1196C160.246 32.1196 160.598 26.1302 155.313 20.9042C150.028 15.6194 143.511 16.0892 136.934 19.9646C136.934 19.9646 139.987 18.7903 140.105 19.1426C140.222 19.4949 137.404 21.2565 137.404 21.2565C137.404 21.2565 142.101 19.4949 143.393 19.3775C142.101 20.1995 139.518 23.0181 139.518 23.0181C139.518 23.0181 145.801 19.0251 146.975 19.4949C145.683 20.317 141.103 25.2494 141.103 25.2494C141.103 25.2494 148.56 19.6123 149.03 20.0821C148.091 20.9042 143.041 25.954 143.041 25.954C143.041 25.954 150.028 20.5518 150.616 21.139C150.028 21.6088 144.626 26.4238 144.098 27.3633C145.272 26.4238 151.79 21.9611 152.142 22.3134C151.673 22.6657 146.153 27.5982 145.918 27.9505C146.858 27.2459 152.788 23.2529 153.376 23.8401C152.671 24.1925 147.738 28.0679 147.621 28.3028C148.326 27.9505 154.021 24.4273 154.374 24.8971C153.904 25.132 150.263 28.1854 149.794 28.5377C151.085 27.9505 154.726 25.8366 155.078 26.1889C154.256 26.8936 152.025 28.89 151.79 29.2423C152.377 28.89 156.135 26.8936 156.488 27.1284C155.666 27.5982 153.317 29.8295 153.317 29.8295C153.317 29.8295 156.488 27.8331 156.723 28.0679C156.37 28.1854 154.256 30.1819 154.139 30.2993C154.609 29.947 156.957 28.4203 157.075 28.5377C157.192 28.6551 155.431 30.5342 155.196 30.8865C155.666 30.5342 157.662 28.89 157.779 29.0075C158.014 29.1249 156.253 31.2388 156.253 31.2388C156.253 31.2388 158.132 29.4772 158.249 29.7121C158.484 29.947 157.31 31.826 157.31 31.826C157.31 31.826 158.836 30.2993 158.954 30.4167C159.071 30.5342 158.484 32.2958 158.484 32.2958C158.484 32.2958 159.306 30.6516 159.541 30.769C160.011 30.9452 160.246 32.1196 160.246 32.1196Z" fill="#1AB700"/>
<path d="M160.598 32.5893C160.598 32.5893 164.356 28.0092 163.182 20.6693C161.89 13.3293 156.429 9.9236 148.795 9.21897C148.795 9.21897 151.966 10.041 151.849 10.3934C151.731 10.8631 148.443 10.6282 148.443 10.6282C148.443 10.6282 153.258 11.9201 154.315 12.5073C152.788 12.3898 149.03 13.2119 149.03 13.2119C149.03 13.2119 156.488 13.6817 157.192 14.7386C155.666 14.7386 149.148 16.0304 149.148 16.0304C149.148 16.0304 158.484 15.913 158.602 16.5002C157.31 16.6176 150.322 17.792 150.322 17.792C150.322 17.792 159.189 17.5571 159.306 18.3792C158.484 18.3792 151.379 19.2013 150.322 19.5536C151.849 19.5536 159.658 19.7885 159.776 20.1408C159.071 20.1408 151.849 20.9629 151.496 21.0803C152.553 21.0803 159.776 21.3152 159.893 22.0198C159.071 21.785 152.906 22.2547 152.671 22.2547C153.493 22.3721 160.128 22.9593 160.128 23.5465C159.658 23.5465 154.843 23.7814 154.256 23.8989C155.666 24.1337 159.893 24.6035 159.893 25.0732C158.836 25.0732 155.9 25.543 155.431 25.6604C156.135 25.6604 160.363 26.2476 160.481 26.7174C159.541 26.6 156.253 27.0697 156.253 27.0697C156.253 27.0697 160.011 27.3046 160.011 27.6569C159.658 27.6569 156.722 27.8918 156.605 28.0092C157.192 28.0092 160.011 28.0092 160.011 28.2441C160.011 28.479 157.427 28.9487 157.075 29.0662C157.779 29.0662 160.246 28.8313 160.363 29.0662C160.481 29.3011 157.779 30.0057 157.779 30.0057C157.779 30.0057 160.246 29.6534 160.363 29.8883C160.363 30.1231 158.367 31.0626 158.367 31.0626C158.367 31.0626 160.481 30.7103 160.481 30.9452C160.481 31.1801 159.071 32.237 159.071 32.237C159.071 32.237 160.715 31.415 160.833 31.5324C160.95 31.5324 160.598 32.5893 160.598 32.5893Z" fill="#1AB700"/>
</svg>
