<svg width="329" height="318" viewBox="0 0 329 318" fill="none" xmlns="http://www.w3.org/2000/svg">
<path d="M95.261 176.182L65.8733 314.986H33.571L62.9586 176.182H95.261Z" fill="white"/>
<path d="M163.198 263.509L160.492 276.22C155.907 297.69 150.07 317.073 118.185 317.073C95.4697 317.073 79.4189 309.574 86.7177 275.393L100.263 211.197C106.518 181.392 119.855 174.102 141.735 174.102C176.96 174.102 177.378 197.234 173.829 213.076L171.332 225.369H139.238L142.988 207.656C144.24 202.028 143.614 198.904 139.656 198.904C136.323 198.904 134.862 200.992 133.401 207.656L117.559 282.683C116.097 289.773 116.724 292.062 120.056 292.062C123.805 292.062 125.476 289.564 127.146 282.057L131.104 263.509H163.198Z" fill="white"/>
<path d="M241.147 281.222C245.106 262.674 251.778 231.199 255.945 212.651H254.275C244.479 246.832 227.393 305.608 225.096 314.986H201.546C204.461 295.394 212.177 238.707 215.718 212.025H214.048C210.716 228.493 205.505 256.211 200.502 280.179L193.212 314.986H163.406L192.794 176.182H236.98C235.727 189.101 232.186 220.576 229.689 237.245H230.733C236.779 217.654 240.32 204.525 249.281 176.182H295.129L265.741 314.986H234.065L241.155 281.222H241.147Z" fill="white"/>
<path d="M316.383 189.51C320.269 192.104 328.7 206.926 328.7 206.926C328.7 206.926 313.492 145.742 264.063 131.225C249.682 127.001 235.808 126.64 223.129 128.487L195.307 105.233C201.948 105.587 238.682 126.704 238.682 126.704L202.871 97.485C214.963 100.416 249.538 124.52 249.538 124.52L209.792 87.6651C221.331 93.4703 262.489 120.859 262.489 120.859L219.917 80.5189C229.778 82.7189 269.298 111.866 269.298 111.866L231.456 73.718C239.308 75.6049 282.86 107.072 282.86 107.072L246.206 69.2215C258.724 71.3814 294.262 92.7557 294.262 92.7557L268.897 68.9565C278.5 70.0485 307.591 81.081 307.591 81.081L290.119 67.5916C294.719 66.7565 311.067 71.5822 311.067 71.5822C311.067 71.5822 257.664 38.0835 211.992 61.9308C199.828 68.2821 190.217 76.6648 182.653 85.8022C181.85 74.8341 179.208 63.3922 173.821 52.0145C151.756 5.45999 88.9498 0 88.9498 0C88.9498 0 104.904 6.00599 108.076 9.44258L86.003 9.67543C86.003 9.67543 115.864 18.4034 124.183 23.3174L89.6002 27.019C89.6002 27.019 130.839 31.3869 142.129 37.2083L90.0659 45.318C90.0659 45.318 143.791 46.4581 151.194 49.686L98.0069 57.3139C98.0069 57.3139 147.115 57.876 156.308 62.0673L116.121 66.5718C113.608 64.9258 110.974 63.3761 108.204 61.9228C62.5411 38.0755 9.12944 71.5741 9.12944 71.5741C9.12944 71.5741 25.4773 66.7485 30.0782 67.5835L12.6062 81.0729C12.6062 81.0729 41.6887 70.0405 51.2999 68.9485L25.935 92.7477C25.935 92.7477 61.4731 71.3734 73.991 69.2135L37.3368 107.064C37.3368 107.064 80.8963 75.5969 88.741 73.71L50.8984 111.858C50.8984 111.858 90.4192 82.7109 100.279 80.5109L57.7074 120.851C57.7074 120.851 98.8661 93.4623 110.404 87.657L70.6588 124.512C70.6588 124.512 105.233 100.408 117.326 97.477L81.5145 126.696C81.5145 126.696 118.249 105.571 124.889 105.225L98.0391 127.66C87.4724 126.921 76.2232 127.812 64.6367 131.217C15.2077 145.734 0 206.918 0 206.918C0 206.918 8.42285 192.096 12.3171 189.502L9.09732 211.342C9.09732 211.342 22.386 183.215 28.5445 175.764L26.7941 210.499C26.7941 210.499 37.5535 170.448 45.0691 160.203L44.9406 212.892C44.9406 212.892 54.4715 160.002 58.8074 153.201L58.0285 206.926C58.0285 206.926 66.2587 158.509 71.8311 150.086L69.1733 208.676C69.1733 208.676 79.8043 160.395 84.0759 148.207L81.0328 202.325C81.0328 202.325 89.1987 160.974 95.8711 150.479L90.3629 196.367C90.3629 196.367 102.158 155.666 106.695 150.808L102.68 187.944C102.68 187.944 111.818 158.324 116.033 153.723L115.656 182.484C115.656 182.484 122.135 159.087 126.865 153.386L124.729 178.984C124.729 178.984 129.723 160.709 132.445 156.493L131.859 175.611C131.859 175.611 134.966 158.308 137.11 155.714L138.475 173.275C138.475 173.275 140.547 157.529 142.819 154.871L145.22 171.01L147.099 156.172C147.099 156.172 150.985 160.387 152.286 168.746L153.779 155.787L160.259 165.96L158.444 153.908C158.444 153.908 160.909 153.908 164.113 155.369C163.904 155.554 163.687 155.746 163.495 155.931C163.792 155.77 164.081 155.626 164.37 155.489C164.659 155.626 164.948 155.77 165.245 155.931C165.052 155.754 164.828 155.562 164.627 155.369C164.82 155.281 165.012 155.2 165.197 155.12C165.181 155.152 165.173 155.192 165.165 155.224C165.189 155.184 165.221 155.136 165.245 155.104C168.144 153.908 170.296 153.916 170.296 153.916L168.481 165.968L174.961 155.795L176.454 168.754C177.747 160.395 181.641 156.18 181.641 156.18L183.52 171.018L185.921 154.879C188.193 157.537 190.265 173.283 190.265 173.283L191.63 155.722C193.766 158.316 196.881 175.619 196.881 175.619L196.295 156.501C199.017 160.717 204.011 178.992 204.011 178.992L201.875 153.394C206.605 159.095 213.084 182.492 213.084 182.492L212.707 153.731C216.922 158.332 226.06 187.952 226.06 187.952L222.045 150.816C226.582 155.674 238.377 196.375 238.377 196.375L232.869 150.487C239.541 160.99 247.707 202.333 247.707 202.333L244.664 148.215C248.944 160.403 259.567 208.684 259.567 208.684L256.909 150.094C262.481 158.517 270.711 206.934 270.711 206.934L269.933 153.209C274.277 160.018 283.799 212.9 283.799 212.9L283.671 160.211C291.186 170.448 301.946 210.507 301.946 210.507L300.195 175.772C306.354 183.223 319.643 211.35 319.643 211.35L316.423 189.51H316.383ZM207.046 132.084C204.083 132.983 201.225 133.979 198.479 135.047L182.581 121.083C187.984 121.686 200.679 128.503 207.054 132.084H207.046ZM149.122 102.985C153.956 104.077 158.011 105.233 159.625 106.301L151.467 107.482C150.728 105.988 149.941 104.487 149.122 102.985ZM157.625 122.32C158.356 122.529 158.974 122.729 159.44 122.938L157.906 123.131C157.818 122.858 157.722 122.585 157.625 122.312V122.32ZM143.365 129.876L136.805 137.825C135.392 137.182 133.93 136.548 132.445 135.938C136.636 133.144 141.574 130.076 143.365 129.868V129.876ZM131.08 135.376C129.474 134.741 127.82 134.131 126.134 133.545C131.024 130.839 136.861 127.796 139.463 127.186L131.08 135.368V135.376ZM148.062 133.224L142.731 140.707C141.39 140.009 140.001 139.318 138.572 138.644C142.169 136.074 146.288 133.401 148.062 133.224ZM155.313 141.478L155.096 142.53C154.365 142.899 153.578 143.269 152.719 143.614L155.305 141.478H155.313ZM156.14 148.769L156.846 147.773C156.806 148.271 156.774 148.737 156.742 149.194C156.541 149.058 156.341 148.913 156.14 148.769ZM156.822 149.251C157.681 146.681 158.878 144.947 159.601 144.056L160.564 144.015C160.853 144.369 161.23 144.875 161.632 145.525L157.16 149.483C157.047 149.403 156.935 149.323 156.822 149.251ZM160.925 127.435L159.368 127.804C159.271 127.475 159.183 127.146 159.079 126.816C159.898 126.993 160.548 127.194 160.933 127.419C160.933 127.419 160.933 127.419 160.933 127.427L160.925 127.435ZM155.827 117.382C155.449 116.41 155.056 115.439 154.646 114.451C157.609 115.214 160.13 116.049 161.648 116.948L155.827 117.374V117.382ZM145.838 97.3726C144.69 95.5339 143.486 93.7032 142.201 91.8966C150.953 93.4382 158.862 95.1565 161.046 96.6259L145.838 97.3726ZM138.234 86.6935C136.725 84.8226 135.127 82.992 133.441 81.1934C143.999 82.2211 154.719 83.7387 159.665 85.8906L138.234 86.6935ZM160.066 73.8786L129.29 76.9859C126.76 74.6012 124.038 72.3128 121.156 70.1449C135.809 71.1967 153.233 72.634 160.066 73.8786ZM98.8902 127.732C105.884 123.958 124.544 114.122 129.579 113.809L113.6 129.964C108.887 128.904 103.973 128.133 98.8902 127.732ZM115.953 130.526C122.729 126.816 132.919 121.613 137.616 121.083L124.183 132.879C121.525 132.003 118.779 131.217 115.953 130.526ZM144.569 141.687L149.459 137.753L150.19 137.728C150.078 138.748 149.716 140.996 148.504 143.895C147.243 143.156 145.926 142.418 144.569 141.687ZM150.744 145.244L151.78 144.393L154.751 144.264L154.116 147.404C153.04 146.689 151.924 145.975 150.744 145.244ZM164.346 155.152C162.812 153.787 160.893 152.23 158.637 150.559L163.31 149.082C163.366 149.235 163.423 149.371 163.471 149.532C163.463 149.379 163.447 149.202 163.439 149.042L164.097 148.833L166.024 151.547C165.928 152.326 165.751 153.217 165.478 154.181C165.085 154.518 164.707 154.839 164.354 155.152H164.346ZM166.787 152.623L166.996 152.92C166.739 153.129 166.466 153.338 166.225 153.546C166.409 153.249 166.594 152.944 166.787 152.623ZM167.164 152.784L167.044 152.197C168.096 150.423 169.22 148.343 170.368 146.015L173.186 148.335C170.898 149.901 168.891 151.402 167.164 152.784ZM173.756 147.95C172.801 146.376 172.078 144.891 171.54 143.558C172.102 142.345 172.664 141.085 173.226 139.76L179.136 144.521C177.217 145.678 175.418 146.826 173.748 147.95H173.756ZM179.875 144.08L174.519 136.572C174.784 135.898 175.041 135.215 175.298 134.517C178.309 136.187 182.348 139.126 185.062 141.173C183.247 142.137 181.513 143.108 179.867 144.08H179.875ZM185.817 140.78L176.888 129.948C176.888 129.948 176.904 129.908 176.912 129.884C179.305 130.253 186.692 135.159 191.068 138.194C189.253 139.037 187.511 139.904 185.825 140.78H185.817ZM191.694 137.905L180.718 127.194C183.962 127.957 192.24 132.493 197.427 135.448C195.452 136.235 193.549 137.062 191.694 137.905ZM208.315 131.706L190.602 113.809C196.046 114.146 217.46 125.644 222.768 128.527C217.741 129.273 212.916 130.365 208.315 131.706Z" fill="#1AB700"/>
</svg>
