<svg width="191" height="87" viewBox="0 0 191 87" fill="none" xmlns="http://www.w3.org/2000/svg">
<path d="M6.46301 83.7354L2.60789 73.2472L0.113403 85.7197H1.13388L2.83466 76.8189L6.46301 86.4L10.0347 76.8189L11.7354 85.7197H12.7559L10.3748 73.2472L6.46301 83.7354Z" fill="white"/>
<path d="M39.2882 85.7197H40.4221L42.0095 81.978H46.7717L48.3591 85.7197H49.4929L44.3906 73.4173L39.2882 85.7197ZM46.2614 81.0142H42.2929L44.2205 76.1386L46.2614 81.0142Z" fill="white"/>
<path d="M179.66 73.474L174.557 85.7764H175.691L177.279 82.0346H182.041L183.628 85.7764H184.762L179.66 73.474ZM181.587 81.0142H177.619L179.546 76.1386L181.587 81.0142Z" fill="white"/>
<path d="M81.241 79.4268C81.8079 78.8599 82.0347 78.0661 82.0347 77.2724C82.0347 76.1386 81.5811 75.2315 80.674 74.6646C79.767 74.0976 78.7465 74.0976 77.8394 74.0976H76.1386V85.8331H77.2725V80.5039H77.3859L81.3544 85.8331H82.715L78.7465 80.3906C79.767 80.3339 80.674 79.9937 81.241 79.4268ZM77.4425 75.1181H77.8961C78.5764 75.1181 79.2567 75.1181 79.8236 75.3449C80.7307 75.685 80.9575 76.5921 80.9575 77.2724C80.9575 77.9528 80.6173 78.5197 80.1638 78.9732C79.5969 79.4268 78.9166 79.4268 78.1229 79.4268H77.3292L77.4425 75.1181Z" fill="white"/>
<path d="M110.835 74.0976H109.814V85.7197H110.835V74.0976Z" fill="white"/>
<path d="M146.948 83.7354L138.274 73.6441V85.7197H139.238V76.3654L147.969 86.4V74.0976H146.948V83.7354Z" fill="white"/>
<path d="M25.7386 81.3543C26.7406 81.3543 27.5528 80.5421 27.5528 79.5402C27.5528 78.5382 26.7406 77.726 25.7386 77.726C24.7367 77.726 23.9244 78.5382 23.9244 79.5402C23.9244 80.5421 24.7367 81.3543 25.7386 81.3543Z" fill="white"/>
<path d="M62.8725 81.3543C63.8744 81.3543 64.6866 80.5421 64.6866 79.5402C64.6866 78.5382 63.8744 77.726 62.8725 77.726C61.8705 77.726 61.0583 78.5382 61.0583 79.5402C61.0583 80.5421 61.8705 81.3543 62.8725 81.3543Z" fill="white"/>
<path d="M96.378 77.726C95.3575 77.726 94.5638 78.5197 94.5638 79.5402C94.5638 80.5606 95.3575 81.3543 96.378 81.3543C97.3984 81.3543 98.1921 80.5606 98.1921 79.5402C98.1921 78.5197 97.3984 77.726 96.378 77.726Z" fill="white"/>
<path d="M124.157 81.3543C125.159 81.3543 125.972 80.5421 125.972 79.5402C125.972 78.5382 125.159 77.726 124.157 77.726C123.156 77.726 122.343 78.5382 122.343 79.5402C122.343 80.5421 123.156 81.3543 124.157 81.3543Z" fill="white"/>
<path d="M161.178 81.3543C162.18 81.3543 162.992 80.5421 162.992 79.5402C162.992 78.5382 162.18 77.726 161.178 77.726C160.176 77.726 159.364 78.5382 159.364 79.5402C159.364 80.5421 160.176 81.3543 161.178 81.3543Z" fill="white"/>
<path d="M18.8787 36.2268L6.80315 67.1244H0L12.0756 36.2268H18.8787Z" fill="white"/>
<path d="M18.3118 59.6976L17.8583 60.7181C17.178 62.4189 16.8378 64.1197 18.8788 64.1197C20.3528 64.1197 21.8268 63.2126 21.8268 61.3984C21.8268 60.0378 21.2599 58.5638 19.2189 56.7496C15.8173 53.8016 15.8173 51.4205 17.178 48.0756C18.5386 44.674 22.1669 42.8598 26.3055 42.8598C31.8614 42.8598 33.5055 46.0346 31.9748 50.0598L31.6347 50.8535H26.0788L26.5323 49.7197C27.2126 47.7921 26.7591 46.885 25.5118 46.885C24.2646 46.885 23.4709 47.1118 23.0173 48.4724C22.5638 49.7197 23.0173 50.9669 24.6047 52.3276C28.4599 55.7291 28.9134 58.6205 27.4394 62.2488C25.852 66.1039 22.5638 67.9181 17.6315 67.9181C10.8851 67.9181 10.4315 64.1764 12.4158 60.0378L12.6425 59.6976H18.3118Z" fill="white"/>
<path d="M27.6661 67.1244L39.9685 36H46.8283L34.526 67.1244H27.6661Z" fill="white"/>
<path d="M55.7291 61.285C54.9354 63.2126 53.6882 66.5008 53.348 67.1811H47.7921C47.9055 66.7275 48.1323 65.9338 48.4725 65.2535C46.8851 66.8409 44.7307 67.6346 42.4063 67.6346C37.7575 67.6346 38.211 64.0063 39.6851 60.4346C43.5402 51.4205 52.3276 55.1055 54.4819 49.4929C54.9354 48.1323 54.9354 47.2252 53.1213 47.2252C51.4205 47.2252 50.7402 48.6992 49.9465 50.4L49.6063 50.9669H43.937L44.0504 50.6268C45.2976 47.5653 47.6788 42.8598 54.7654 42.8598C60.6614 42.8598 62.0788 45.4677 60.548 49.2661L55.7291 61.285ZM52.3843 55.8425C48.6425 56.4094 47.8488 57.0898 46.4882 60.0378C45.8079 61.6252 44.9008 63.4394 46.9417 63.4394C49.0961 63.4394 49.7764 61.7386 51.137 58.4504L52.3843 55.8425Z" fill="white"/>
<path d="M63.5528 50.5134C65.4803 45.6378 65.9339 44.2205 66.3874 43.0866H71.7165C71.6032 43.7669 71.3764 44.2205 71.1496 44.9008C72.3969 43.6535 74.3244 42.6331 76.7055 42.6331C80.3339 42.6331 81.5811 45.0142 80.2205 48.5291L72.9071 66.8976H66.7276L72.5669 52.1008C73.474 49.9465 73.3606 48.926 71.7732 48.926C69.9591 48.926 69.3921 50.4 68.1449 53.5748L62.7024 67.3512L57.0331 67.1244L63.5528 50.5134Z" fill="white"/>
<path d="M103.805 35.7732C103.805 35.7732 92.0693 65.7638 91.6158 67.1244H86.2866C86.4 66.4441 86.5134 65.8772 86.8536 65.1968C85.4929 66.6709 82.7717 67.5779 80.3339 67.5779C75.7985 67.5779 76.9323 63.7228 78.6331 59.4709L82.2614 50.3433C83.7355 46.6016 85.8898 42.8031 90.8221 42.8031C92.863 42.8031 94.4504 43.4835 94.904 44.6173L98.4189 35.8299C98.4189 35.7732 103.805 35.7732 103.805 35.7732ZM84.6425 59.811C83.9622 61.5118 83.2819 63.4394 85.3229 63.4394C87.4772 63.4394 88.1575 61.7386 89.2914 58.9039L91.8992 52.2709C93.0331 49.663 93.1465 47.9622 90.7654 47.9622C88.9512 47.9622 88.7244 49.4362 87.8173 51.5905L84.6425 59.811Z" fill="white"/>
<path d="M130.677 54.7087L130.45 55.2756C128.636 59.4709 127.276 67.5779 116.447 67.5779C108.68 67.5779 108.227 63.9496 110.268 58.7905L115.824 44.674C118.091 39.1181 120.586 35.3197 128.239 35.3197C138.954 35.3197 135.213 42.7465 133.682 46.4882L133.569 46.9417H126.425L126.879 45.6945C127.786 43.2 128.58 40.1386 126.539 40.1386C124.724 40.1386 123.931 41.2724 122.91 43.9937L116.787 59.5842C115.767 62.1921 116.107 62.8724 118.261 62.8724C120.076 62.8724 121.89 58.5638 123.024 55.8992L123.477 54.7654C123.477 54.7087 130.677 54.7087 130.677 54.7087Z" fill="white"/>
<path d="M150.917 50.7402L147.288 59.7543C145.361 64.8567 142.98 67.748 137.14 67.748C129.373 67.748 129.713 64.3465 131.584 59.4142L135.326 49.8331C137.027 45.2976 139.861 42.6331 145.361 42.6331C151.88 42.7465 152.787 45.9213 150.917 50.7402ZM141.392 50.2866L137.424 60.3213C136.63 62.3622 136.403 64.063 138.217 64.063C140.032 64.063 140.258 62.4756 141.052 60.3213L145.02 50.2866C145.701 48.4724 145.928 46.885 144.227 46.885C142.526 47.0551 142.072 48.5291 141.392 50.2866Z" fill="white"/>
<path d="M162.312 43.6535C160.498 52.1008 158.797 58.4504 157.776 61.6819C159.25 58.6205 163.956 48.6992 166.904 43.6535H173.197L159.874 67.1244H151.994L156.189 43.6535H162.312Z" fill="white"/>
<path d="M177.619 56.4095L176.145 60.2646C175.351 62.0787 174.784 63.7795 176.825 63.7795C178.753 63.7795 179.66 60.8315 180.227 59.4709L180.454 58.7906H186.463L186.236 59.3575C184.876 62.9858 183.855 68.1449 174.841 68.1449C167.868 68.1449 168.775 63.1559 170.306 59.1307L173.594 50.9102C175.068 47.1685 177.676 43.1433 184.082 43.1433C190.942 43.1433 190.942 47.2252 189.298 51.3638L187.143 56.6929H177.676L177.619 56.4095ZM182.608 52.2142L183.855 49.4929C184.422 47.9055 184.082 46.9984 182.948 46.9984C181.814 46.9984 180.794 47.6787 180.113 49.4929L178.866 52.3276L182.608 52.2142Z" fill="white"/>
<path d="M100.346 31.2378C100.346 31.2378 105.449 25.3417 115.257 25.3417C125.065 25.3417 130.734 31.748 133.285 41.4992C133.285 41.4992 131.584 37.5307 131.017 37.7575C130.45 37.9843 131.584 42.1795 131.584 42.1795C131.584 42.1795 128.863 36.2835 127.729 34.9795C128.183 36.9071 127.956 41.9528 127.956 41.9528C127.956 41.9528 125.688 32.3717 124.214 31.6913C124.668 33.6189 124.328 42.4063 124.328 42.4063C124.328 42.4063 122.4 30.2173 121.606 30.2173C121.833 31.9181 121.72 41.2724 121.72 41.2724C121.72 41.2724 120.019 29.7638 118.998 29.7638C119.112 30.7843 119.679 40.252 119.452 41.6126C119.112 39.685 117.184 29.4236 116.504 29.4236C116.617 30.2173 117.184 39.7984 117.184 40.3654C116.958 38.8913 115.03 29.6504 114.009 29.6504C114.463 30.6709 115.257 38.778 115.257 39.1181C114.917 38.0976 112.762 29.6504 111.969 29.7638C112.082 30.4441 112.762 36.6236 112.876 37.4173C112.195 35.6032 110.721 30.4441 110.041 30.4441C110.268 31.8047 110.268 35.7732 110.268 36.3402C110.041 35.4331 108.34 30.1606 107.887 30.1606C108.227 31.4079 108.34 35.6032 108.34 35.6032C108.34 35.6032 107.206 30.8409 106.753 30.8409C106.866 31.2945 107.093 35.1496 107.093 35.3764C106.98 34.6961 106.299 30.9543 105.959 30.9543C105.732 30.9543 105.619 34.3559 105.619 34.9228C105.506 34.1291 105.279 30.7276 104.939 30.7276C104.598 30.7276 104.372 34.1291 104.372 34.1291C104.372 34.1291 104.258 30.8409 103.918 30.8409C103.578 30.8409 102.784 33.6756 102.784 33.6756C102.784 33.6756 102.784 30.8409 102.558 30.8409C102.331 30.8409 101.31 32.9953 101.31 32.9953C101.31 32.9953 101.991 30.7276 101.764 30.6142C101.821 30.4441 100.346 31.2378 100.346 31.2378Z" fill="#1AB700"/>
<path d="M100.687 31.2378C100.687 31.2378 95.5843 25.3417 85.7764 25.3417C75.9685 25.3417 70.2992 31.8047 67.6913 41.4992C67.6913 41.4992 69.3921 37.5307 69.9591 37.7575C70.526 37.9843 69.3921 42.1795 69.3921 42.1795C69.3921 42.1795 72.1134 36.2835 73.2472 34.9795C72.7937 36.9071 73.0205 41.9528 73.0205 41.9528C73.0205 41.9528 75.2882 32.3717 76.7622 31.6913C76.3087 33.6189 76.6488 42.4063 76.6488 42.4063C76.6488 42.4063 78.5764 30.2173 79.3701 30.2173C79.1433 31.9181 79.2567 41.2724 79.2567 41.2724C79.2567 41.2724 80.9575 29.7638 81.978 29.7638C81.8646 30.7843 81.2976 40.252 81.5244 41.6126C81.8646 39.685 83.7921 29.4236 84.4724 29.4236C84.3591 30.2173 83.7921 39.7984 83.7921 40.3654C84.0189 38.8913 85.9465 29.6504 86.9669 29.6504C86.5134 30.6709 85.7197 38.778 85.7197 39.1181C86.0598 38.0976 88.2142 29.6504 89.0079 29.7638C88.8945 30.4441 88.2142 36.6236 88.1008 37.4173C88.7811 35.6032 90.2551 30.4441 90.9354 30.4441C90.7087 31.8047 90.7087 35.7732 90.7087 36.3402C90.9354 35.4331 92.6362 30.1606 93.0898 30.1606C92.7496 31.4079 92.6362 35.6032 92.6362 35.6032C92.6362 35.6032 93.7701 30.8409 94.2236 30.8409C94.1102 31.2945 93.8835 35.1496 93.8835 35.3764C93.9969 34.6961 94.6772 30.9543 95.0173 30.9543C95.2441 30.9543 95.3575 34.3559 95.3575 34.9228C95.4709 34.1291 95.6976 30.7276 96.0378 30.7276C96.378 30.7276 96.7181 34.2425 96.7181 34.2425C96.7181 34.2425 96.8315 30.9543 97.1717 30.9543C97.5118 30.9543 98.3055 33.789 98.3055 33.789C98.3055 33.789 98.3055 30.9543 98.5323 30.9543C98.7591 30.9543 99.7795 33.1087 99.7795 33.1087C99.7795 33.1087 99.0992 30.8409 99.326 30.7276C99.2126 30.4441 100.687 31.2378 100.687 31.2378Z" fill="#1AB700"/>
<path d="M99.6662 30.5575C99.6662 30.5575 99.0993 22.7905 106.072 15.874C113.046 8.95748 121.55 9.5811 130.224 14.5134C130.224 14.5134 126.255 12.926 126.028 13.4929C125.802 14.0598 129.543 16.3276 129.543 16.3276C129.543 16.3276 123.477 14.0598 121.776 13.8331C123.477 14.9669 126.879 18.5953 126.879 18.5953C126.879 18.5953 118.545 13.3795 116.958 13.9465C118.658 15.0803 124.611 21.4866 124.611 21.4866C124.611 21.4866 114.69 14.1732 114.123 14.7402C115.37 15.7606 122.003 22.3937 122.003 22.3937C122.003 22.3937 112.762 15.4205 111.969 16.2142C112.762 16.8945 119.849 23.1874 120.643 24.3213C119.055 23.1874 110.495 17.348 110.041 17.6882C110.721 18.2551 117.921 24.548 118.148 25.0016C117.014 24.0945 109.021 18.9354 108.34 19.559C109.361 20.0126 115.654 25.115 115.88 25.4551C114.973 24.8882 107.433 20.4661 106.98 21.0331C107.546 21.3732 112.422 25.3417 112.989 25.9087C111.288 25.115 106.583 22.3937 106.016 22.8472C107.15 23.7543 109.984 26.4756 110.324 26.9291C109.531 26.4756 104.542 23.8677 104.258 24.2079C105.279 24.8882 108.454 27.8362 108.454 27.8362C108.454 27.8362 104.258 25.2283 104.032 25.5685C104.485 25.7953 107.32 28.4031 107.433 28.5165C106.866 28.063 103.805 26.022 103.578 26.1354C103.351 26.3622 105.732 28.8567 106.072 29.1968C105.392 28.6299 102.898 26.4756 102.671 26.7024C102.444 26.9291 104.712 29.6504 104.712 29.6504C104.712 29.6504 102.331 27.3827 101.991 27.6094C101.764 27.8362 103.238 30.4441 103.238 30.4441C103.238 30.4441 101.197 28.4031 101.084 28.6299C100.97 28.8567 101.65 31.011 101.65 31.011C101.65 31.011 100.517 28.8567 100.29 28.9701C100.12 28.9701 99.6662 30.5575 99.6662 30.5575Z" fill="#1AB700"/>
<path d="M100.233 30.2173C100.233 30.2173 100.8 22.4504 93.8268 15.5339C86.8535 8.61733 78.3496 9.24095 69.6756 14.1732C69.6756 14.1732 73.6441 12.5858 73.8709 13.1528C74.0976 13.7197 70.3559 15.9874 70.3559 15.9874C70.3559 15.9874 76.4221 13.6063 78.1228 13.4929C76.4221 14.6268 73.0205 18.2551 73.0205 18.2551C73.0205 18.2551 81.3543 13.0394 82.9417 13.6063C81.241 14.7402 75.2882 21.1465 75.2882 21.1465C75.2882 21.1465 85.2095 13.8331 85.7764 14.4C84.5291 15.4205 77.8961 22.1669 77.8961 22.1669C77.8961 22.1669 87.137 15.1937 87.9307 15.9874C87.137 16.6677 80.0504 22.9606 79.2567 24.0945C80.8441 22.9606 89.4047 17.1213 89.8583 17.4614C89.178 18.0283 81.978 24.3213 81.7512 24.7748C82.885 23.8677 90.8787 18.7087 91.5591 19.3323C90.5386 19.7858 84.2457 24.8882 84.0189 25.2283C84.926 24.6614 92.4661 20.2394 92.9197 20.8063C92.3528 21.1465 87.4772 25.115 86.9102 25.6819C88.611 24.8882 93.3165 22.1669 93.8835 22.6205C92.7496 23.5276 89.915 26.2488 89.5748 26.7024C90.3685 26.2488 95.3575 23.6409 95.6409 23.9811C94.6205 24.6614 91.4457 27.6095 91.4457 27.6095C91.4457 27.6095 95.641 25.0016 95.8677 25.3417C95.4142 25.5685 92.5795 28.1764 92.4662 28.2898C93.0331 27.8362 96.0945 25.7953 96.3213 25.9087C96.548 26.1354 94.1669 28.6299 93.8268 28.9701C94.5071 28.4032 97.0016 26.2488 97.2284 26.4756C97.4551 26.7024 95.1874 29.4236 95.1874 29.4236C95.1874 29.4236 97.5685 27.1559 97.9087 27.3827C98.1354 27.6094 96.6614 30.2173 96.6614 30.2173C96.6614 30.2173 98.7024 28.1764 98.8158 28.4032C99.0425 28.6299 98.2488 30.7843 98.2488 30.7843C98.2488 30.7843 99.3827 28.6299 99.6095 28.7433C99.8929 28.6299 100.233 30.2173 100.233 30.2173Z" fill="#1AB700"/>
<path d="M100.687 30.7843C100.687 30.7843 105.676 24.7748 103.975 15.0803C102.387 5.38583 95.0174 1.02047 85.0961 0C85.0961 0 89.2914 1.02047 89.178 1.5874C89.0646 2.15433 84.6426 1.81417 84.6426 1.81417C84.6426 1.81417 90.9355 3.51496 92.4095 4.30866C90.3686 4.19528 85.5497 5.32913 85.5497 5.32913C85.5497 5.32913 95.3575 6.00945 96.2646 7.37008C94.2237 7.25669 85.6631 9.07087 85.6631 9.07087C85.6631 9.07087 97.9654 8.84409 98.1922 9.63779C96.4914 9.75118 87.2504 11.3386 87.2504 11.3386C87.2504 11.3386 98.8725 10.9984 98.9859 12.1323C97.9654 12.1323 88.4977 13.2661 87.2504 13.7197C89.2914 13.7197 99.5528 13.9465 99.7796 14.5134C98.9859 14.5134 89.4048 15.5339 88.8379 15.6472C90.3119 15.6472 99.7796 15.9874 99.893 16.8945C98.8725 16.6677 90.652 17.1213 90.4253 17.2346C91.4457 17.348 100.233 18.1417 100.233 18.822C99.5528 18.822 93.3733 19.1622 92.5796 19.2756C94.3938 19.6157 99.893 20.1827 100.006 20.863C98.6457 20.9764 94.6772 21.4299 94.1103 21.6567C95.0174 21.7701 100.517 22.4504 100.63 23.0173C99.3827 22.9039 95.1875 23.4709 95.1875 23.4709C95.1875 23.4709 100.063 23.811 100.176 24.1512C99.7229 24.0378 95.8678 24.4913 95.641 24.6047C96.3213 24.6047 100.063 24.7181 100.176 24.9449C100.176 25.1717 96.8882 25.852 96.3213 25.9654C97.2284 25.9654 100.517 25.6252 100.63 25.9654C100.743 26.3055 97.2284 27.2126 97.2284 27.2126C97.2284 27.2126 100.517 26.7591 100.63 27.0992C100.63 27.4394 98.0221 28.6866 98.0221 28.6866C98.0221 28.6866 100.857 28.2331 100.857 28.4598C100.857 28.6866 98.9292 30.0472 98.9292 30.0472C98.9292 30.0472 101.084 29.0268 101.197 29.1402C101.367 29.0835 100.687 30.7843 100.687 30.7843Z" fill="#1AB700"/>
<path d="M47.9622 31.011C47.9622 31.011 51.704 26.7024 58.904 26.7024C66.104 26.7024 70.2992 31.4646 72.2268 38.5512C72.2268 38.5512 70.9795 35.6031 70.526 35.8299C70.0725 36.0567 70.8662 39.1181 70.8662 39.1181C70.8662 39.1181 68.9386 34.6961 68.0315 33.789C68.3717 35.263 68.1449 38.8913 68.1449 38.8913C68.1449 38.8913 66.4441 31.9181 65.3103 31.3512C65.6504 32.8252 65.4236 39.2315 65.4236 39.2315C65.4236 39.2315 64.063 30.3307 63.4961 30.2173C63.6095 31.4646 63.6095 38.3244 63.6095 38.3244C63.6095 38.3244 62.3622 29.8772 61.5685 29.8772C61.6819 30.6709 62.1354 37.5307 61.9087 38.5512C61.6819 37.0772 60.2079 29.6504 59.7543 29.6504C59.8677 30.2173 60.3213 37.3039 60.2079 37.6441C59.9811 36.6236 58.6205 29.7638 57.9402 29.7638C58.2803 30.4441 58.8473 36.3969 58.8473 36.737C58.6205 35.9433 57.0331 29.7638 56.4662 29.8772C56.5795 30.3307 57.0331 34.8661 57.1465 35.5465C56.6929 34.2992 55.5591 30.3307 55.1055 30.3307C55.2189 31.3512 55.3323 34.2992 55.3323 34.6394C55.2189 33.9591 53.9717 30.1039 53.5181 29.9906C53.7449 30.8976 53.8583 34.0724 53.8583 34.0724C53.8583 34.0724 53.0646 30.5575 52.7244 30.5575C52.8378 30.8976 52.9512 33.7323 52.9512 33.8457C52.8378 33.2787 52.3843 30.6709 52.1575 30.6709C51.9307 30.6709 51.9307 33.1654 51.9307 33.6189C51.8173 33.052 51.704 30.5575 51.3638 30.5575C51.137 30.5575 50.9103 33.1654 50.9103 33.1654C50.9103 33.1654 50.7969 30.6709 50.5701 30.6709C50.3433 30.6709 49.8898 32.8252 49.8898 32.8252C49.8898 32.8252 49.8898 30.7843 49.663 30.7843C49.4362 30.7843 48.7559 32.3717 48.7559 32.3717C48.7559 32.3717 49.2095 30.6709 49.0961 30.5575C48.9827 30.4441 47.9622 31.011 47.9622 31.011Z" fill="#1AB700"/>
<path d="M48.189 31.011C48.189 31.011 44.4473 26.7024 37.2473 26.7024C30.0473 26.7024 25.9654 31.4646 23.9244 38.5512C23.9244 38.5512 25.1717 35.6031 25.6252 35.8299C26.0788 36.0567 25.2851 39.1181 25.2851 39.1181C25.2851 39.1181 27.2126 34.6961 28.1197 33.789C27.7796 35.263 28.0063 38.8913 28.0063 38.8913C28.0063 38.8913 29.7071 31.9181 30.841 31.3512C30.5008 32.8252 30.7276 39.2315 30.7276 39.2315C30.7276 39.2315 32.0882 30.3307 32.6551 30.2173C32.5418 31.4646 32.5418 38.3244 32.5418 38.3244C32.5418 38.3244 33.789 29.8772 34.5827 29.8772C34.4693 30.6709 34.0158 37.5307 34.2425 38.5512C34.4693 37.0772 35.9433 29.6504 36.3969 29.6504C36.2835 30.2173 35.83 37.3039 35.9433 37.6441C36.1701 36.6236 37.5307 29.7638 38.2111 29.7638C37.8709 30.4441 37.304 36.3969 37.304 36.737C37.5307 35.9433 39.1181 29.7638 39.6851 29.8772C39.5717 30.3307 39.1181 34.8661 39.0048 35.5465C39.4583 34.2992 40.5922 30.3307 41.0457 30.3307C40.9323 31.3512 40.8189 34.2992 40.8189 34.6394C40.9323 33.9591 42.1796 30.1039 42.6331 29.9906C42.4063 30.8976 42.2929 34.0724 42.2929 34.0724C42.2929 34.0724 43.0866 30.5575 43.4268 30.5575C43.3134 30.8976 43.2 33.7323 43.2 33.8457C43.3134 33.2787 43.767 30.6709 43.9937 30.6709C44.2205 30.6709 44.2205 33.1654 44.2205 33.6189C44.3339 33.052 44.4473 30.5575 44.7874 30.5575C45.0142 30.5575 45.241 33.1654 45.241 33.1654C45.241 33.1654 45.3544 30.6709 45.5811 30.6709C45.8079 30.6709 46.3748 32.8252 46.3748 32.8252C46.3748 32.8252 46.3748 30.7843 46.6016 30.7843C46.8284 30.7843 47.5087 32.3717 47.5087 32.3717C47.5087 32.3717 47.0551 30.6709 47.1685 30.5575C47.1685 30.4441 48.189 31.011 48.189 31.011Z" fill="#1AB700"/>
<path d="M47.5087 30.5575C47.5087 30.5575 47.0551 24.7748 52.2709 19.7291C57.4866 14.6835 63.6662 15.0803 70.0158 18.7087C70.0158 18.7087 67.0677 17.5748 66.9543 17.915C66.841 18.3685 69.5622 19.9559 69.5622 19.9559C69.5622 19.9559 65.0268 18.2551 63.7795 18.1417C65.0268 18.9354 67.5213 21.6567 67.5213 21.6567C67.5213 21.6567 61.3417 17.8016 60.3213 18.2551C61.5685 19.0488 65.9906 23.811 65.9906 23.811C65.9906 23.811 58.7906 18.3685 58.337 18.8221C59.2441 19.6158 64.1197 24.4913 64.1197 24.4913C64.1197 24.4913 57.2032 19.2756 56.6362 19.8425C57.2032 20.2961 62.5323 24.9449 63.0425 25.852C61.9087 24.9449 55.6158 20.7496 55.2756 20.9764C55.7291 21.3165 61.0583 26.0787 61.285 26.3055C60.378 25.6252 54.652 21.7701 54.085 22.337C54.7654 22.6772 59.5276 26.4189 59.641 26.6457C58.9606 26.3055 53.4614 23.0173 53.1213 23.4709C53.5748 23.6976 57.0898 26.6457 57.5433 26.9858C56.2961 26.4189 52.7811 24.378 52.441 24.8315C53.2347 25.5118 55.389 27.4394 55.6158 27.7795C55.0488 27.4394 51.4205 25.5118 51.0803 25.7386C51.874 26.1921 54.1417 28.3465 54.1417 28.3465C54.1417 28.3465 51.0803 26.4189 50.8536 26.6457C51.1937 26.7591 53.2347 28.6866 53.348 28.8C52.8945 28.4598 50.6268 26.9858 50.5134 27.0992C50.4 27.2126 52.1008 29.0268 52.3276 29.3669C51.874 29.0268 49.9465 27.4394 49.8331 27.5528C49.6063 27.6661 51.3071 29.7071 51.3071 29.7071C51.3071 29.7071 49.4929 28.0063 49.3795 28.2331C49.1528 28.4598 50.2866 30.274 50.2866 30.274C50.2866 30.274 48.8126 28.8 48.6992 28.9134C48.5858 29.0268 49.1528 30.7276 49.1528 30.7276C49.1528 30.7276 48.3591 29.1402 48.1323 29.2535C47.8488 29.3102 47.5087 30.5575 47.5087 30.5575Z" fill="#1AB700"/>
<path d="M47.9622 30.3307C47.9622 30.3307 48.3024 24.548 43.2 19.5024C38.0976 14.4567 31.8047 14.8535 25.3417 18.4819C25.3417 18.4819 28.2898 17.348 28.4032 17.6882C28.5165 18.1417 25.7953 19.7291 25.7953 19.7291C25.7953 19.7291 30.3307 18.0283 31.578 17.915C30.3307 18.7087 27.8362 21.4299 27.8362 21.4299C27.8362 21.4299 33.9024 17.5748 35.0362 18.0283C33.789 18.822 29.3669 23.5842 29.3669 23.5842C29.3669 23.5842 36.5669 18.1417 37.0205 18.5953C36.1134 19.389 31.2378 24.2646 31.2378 24.2646C31.2378 24.2646 37.9843 19.0488 38.5512 19.6157C37.9843 20.0693 32.7685 24.7181 32.2583 25.6252C33.3921 24.7181 39.685 20.4094 40.0252 20.7496C39.5717 21.0898 34.2425 25.852 34.0158 26.1921C34.9228 25.5118 40.6488 21.6567 41.2157 22.2236C40.5354 22.5638 35.7732 26.3055 35.6598 26.5323C36.3402 26.1921 41.8394 22.7906 42.1795 23.2441C41.726 23.4709 38.211 26.4189 37.7575 26.7591C39.0047 26.1921 42.5197 24.1512 42.8598 24.4913C42.0661 25.1717 39.9118 27.0992 39.685 27.4394C40.252 27.0992 43.8803 25.1717 44.2205 25.3984C43.4268 25.852 41.1591 28.0063 41.1591 28.0063C41.1591 28.0063 44.2205 26.0787 44.4472 26.3055C44.1071 26.4189 42.0661 28.3465 41.9528 28.4598C42.4063 28.1197 44.674 26.6457 44.7874 26.7591C44.9008 26.8724 43.2 28.6866 42.9732 29.0268C43.4268 28.6866 45.3543 27.0992 45.4677 27.2126C45.6945 27.326 43.9937 29.3669 43.9937 29.3669C43.9937 29.3669 45.8079 27.6661 45.9213 27.8929C46.148 28.1197 45.0142 29.9339 45.0142 29.9339C45.0142 29.9339 46.4882 28.4598 46.6016 28.5732C46.715 28.6866 46.148 30.3874 46.148 30.3874C46.148 30.3874 46.9417 28.8 47.1685 28.9134C47.622 28.9701 47.9622 30.3307 47.9622 30.3307Z" fill="#1AB700"/>
<path d="M48.189 30.6709C48.189 30.6709 51.8173 26.2488 50.6835 19.1622C49.4362 12.0756 44.0504 8.7874 36.7937 8.10709C36.7937 8.10709 39.8551 8.90079 39.7417 9.24094C39.6284 9.69449 36.4536 9.46772 36.4536 9.46772C36.4536 9.46772 41.1024 10.715 42.1228 11.2819C40.6488 11.1685 37.0205 11.9622 37.0205 11.9622C37.0205 11.9622 44.2205 12.4157 44.9008 13.4362C43.4268 13.4362 37.1339 14.6835 37.1339 14.6835C37.1339 14.6835 46.148 14.5701 46.2614 15.137C45.1276 15.2504 38.3811 16.3843 38.3811 16.3843C38.3811 16.3843 46.9417 16.1575 47.0551 16.9512C46.2614 16.9512 39.4016 17.7449 38.3811 18.085C39.8551 18.085 47.3953 18.3118 47.5087 18.652C46.8284 18.652 39.8551 19.4457 39.515 19.5591C40.5354 19.5591 47.5087 19.7858 47.6221 20.4661C46.8284 20.2394 40.8756 20.6929 40.6488 20.6929C41.4425 20.8063 47.8488 21.3732 47.8488 21.9402C47.3953 21.9402 42.7465 22.1669 42.1795 22.2803C43.5402 22.5071 47.6221 22.9606 47.6221 23.4142C46.6016 23.4142 43.7669 23.8677 43.3134 23.9811C43.9937 23.9811 48.0756 24.548 48.189 25.0016C47.2819 24.8882 44.1071 25.3417 44.1071 25.3417C44.1071 25.3417 47.7354 25.5685 47.7354 25.9087C47.3953 25.9087 44.5606 26.1354 44.4473 26.2488C45.0142 26.2488 47.7354 26.2488 47.7354 26.4756C47.7354 26.7024 45.2409 27.1559 44.9008 27.2693C45.5811 27.2693 47.9622 27.0425 48.0756 27.2693C48.189 27.4961 45.5811 28.1764 45.5811 28.1764C45.5811 28.1764 47.9622 27.8362 48.0756 28.063C48.189 28.2898 46.148 29.1968 46.148 29.1968C46.148 29.1968 48.189 28.8567 48.189 29.0835C48.189 29.3102 46.8284 30.3307 46.8284 30.3307C46.8284 30.3307 48.4158 29.537 48.5291 29.6504C48.6425 29.537 48.189 30.6709 48.189 30.6709Z" fill="#1AB700"/>
<path d="M154.828 31.8047C154.828 31.8047 158.57 27.4961 165.77 27.4961C172.97 27.4961 177.052 32.2583 179.093 39.3449C179.093 39.3449 177.846 36.3968 177.392 36.6236C176.939 36.8504 177.732 39.9118 177.732 39.9118C177.732 39.9118 175.805 35.4898 174.898 34.5827C175.238 36.0567 175.011 39.685 175.011 39.685C175.011 39.685 173.31 32.7118 172.176 32.1449C172.517 33.6189 172.29 40.0252 172.29 40.0252C172.29 40.0252 170.929 31.1244 170.362 31.011C170.476 32.2583 170.476 39.1181 170.476 39.1181C170.476 39.1181 169.228 30.6709 168.435 30.6709C168.548 31.4646 169.002 38.3244 168.775 39.3449C168.548 37.8709 167.074 30.4441 166.62 30.4441C166.734 31.011 167.187 38.0976 167.074 38.4378C166.847 37.4173 165.487 30.5575 164.806 30.5575C165.146 31.2378 165.713 37.1905 165.713 37.5307C165.487 36.737 163.899 30.5575 163.332 30.6709C163.446 31.1244 163.899 35.6598 164.013 36.3402C163.559 35.0929 162.425 31.1244 161.972 31.1244C162.085 32.1449 162.198 35.0929 162.198 35.4331C162.085 34.7528 160.838 30.8976 160.384 30.7843C160.611 31.6913 160.724 34.8661 160.724 34.8661C160.724 34.8661 159.931 31.3512 159.591 31.3512C159.704 31.6913 159.817 34.526 159.817 34.6394C159.704 34.0724 159.25 31.4646 159.024 31.4646C158.797 31.4646 158.797 33.9591 158.797 34.4126C158.683 33.8457 158.57 31.3512 158.23 31.3512C158.003 31.3512 157.776 33.9591 157.776 33.9591C157.776 33.9591 157.663 31.4646 157.436 31.4646C157.209 31.4646 156.643 33.6189 156.643 33.6189C156.643 33.6189 156.643 31.578 156.416 31.578C156.189 31.578 155.509 33.1654 155.509 33.1654C155.509 33.1654 155.962 31.4646 155.849 31.3512C155.849 31.2378 154.828 31.8047 154.828 31.8047Z" fill="#1AB700"/>
<path d="M155.055 31.8047C155.055 31.8047 151.313 27.4961 144.113 27.4961C136.913 27.4961 132.832 32.2583 130.791 39.3449C130.791 39.3449 132.038 36.3968 132.491 36.6236C132.945 36.8504 132.151 39.9118 132.151 39.9118C132.151 39.9118 134.079 35.4898 134.986 34.5827C134.646 36.0567 134.872 39.685 134.872 39.685C134.872 39.685 136.573 32.7118 137.707 32.1449C137.367 33.6189 137.594 40.0252 137.594 40.0252C137.594 40.0252 138.954 31.1244 139.521 31.011C139.408 32.2583 139.408 39.1181 139.408 39.1181C139.408 39.1181 140.655 30.6709 141.449 30.6709C141.335 31.4646 140.882 38.3244 141.109 39.3449C141.335 37.8709 142.809 30.4441 143.263 30.4441C143.15 31.011 142.696 38.0976 142.809 38.4378C143.036 37.4173 144.397 30.5575 145.077 30.5575C144.737 31.2378 144.17 37.1905 144.17 37.5307C144.397 36.737 145.984 30.5575 146.551 30.6709C146.438 31.1244 145.984 35.6598 145.871 36.3402C146.324 35.0929 147.458 31.1244 147.912 31.1244C147.798 32.1449 147.685 35.0929 147.798 35.4331C147.912 34.7528 149.159 30.8976 149.613 30.7843C149.386 31.6913 149.272 34.8661 149.272 34.8661C149.272 34.8661 150.066 31.3512 150.406 31.3512C150.293 31.6913 150.18 34.526 150.18 34.6394C150.293 34.0724 150.746 31.4646 150.973 31.4646C151.2 31.4646 151.2 33.9591 151.2 34.4126C151.313 33.8457 151.427 31.3512 151.767 31.3512C151.994 31.3512 152.221 33.9591 152.221 33.9591C152.221 33.9591 152.334 31.4646 152.561 31.4646C152.787 31.4646 153.354 33.6189 153.354 33.6189C153.354 33.6189 153.354 31.578 153.581 31.578C153.808 31.578 154.488 33.1654 154.488 33.1654C154.488 33.1654 154.035 31.4646 154.148 31.3512C154.035 31.2378 155.055 31.8047 155.055 31.8047Z" fill="#1AB700"/>
<path d="M154.375 31.2378C154.375 31.2378 153.921 25.4551 159.137 20.4094C164.239 15.3071 170.532 15.7606 176.882 19.389C176.882 19.389 173.934 18.2551 173.82 18.5953C173.707 18.9354 176.428 20.6362 176.428 20.6362C176.428 20.6362 171.893 18.9354 170.646 18.822C171.893 19.6157 174.387 22.337 174.387 22.337C174.387 22.337 168.208 18.4819 167.187 18.9354C168.435 19.7291 172.857 24.4913 172.857 24.4913C172.857 24.4913 165.657 19.0488 165.203 19.5024C166.11 20.2961 170.986 25.1717 170.986 25.1717C170.986 25.1717 164.239 19.9559 163.672 20.5228C164.239 20.9764 169.569 25.6252 170.079 26.5323C168.945 25.6252 162.652 21.4299 162.312 21.6567C162.765 21.9968 168.095 26.7591 168.321 26.9858C167.414 26.3055 161.688 22.4504 161.121 23.0173C161.802 23.3575 166.564 27.0992 166.677 27.326C165.997 26.9858 160.498 23.6976 160.158 24.1512C160.611 24.378 164.126 27.326 164.58 27.6661C163.332 27.0992 159.817 25.0583 159.477 25.5118C160.271 26.1921 162.425 28.1197 162.652 28.4598C162.085 28.1197 158.457 26.1921 158.117 26.4189C158.91 26.8724 161.178 29.0268 161.178 29.0268C161.178 29.0268 158.117 27.0992 157.89 27.326C158.23 27.4394 160.271 29.3669 160.384 29.4803C159.931 29.1402 157.663 27.6661 157.55 27.7795C157.436 27.8929 159.137 29.7071 159.364 30.0472C158.91 29.7071 156.983 28.1197 156.869 28.2331C156.643 28.3465 158.343 30.3874 158.343 30.3874C158.343 30.3874 156.529 28.6866 156.416 28.9134C156.189 29.1402 157.323 30.9543 157.323 30.9543C157.323 30.9543 155.849 29.4803 155.735 29.5937C155.622 29.7071 156.189 31.4079 156.189 31.4079C156.189 31.4079 155.395 29.8205 155.169 29.9339C154.602 30.1039 154.375 31.2378 154.375 31.2378Z" fill="#1AB700"/>
<path d="M154.715 31.011C154.715 31.011 155.055 25.2283 149.953 20.1827C144.85 15.0803 138.557 15.5339 132.208 19.2756C132.208 19.2756 135.156 18.1417 135.269 18.4819C135.383 18.822 132.661 20.5228 132.661 20.5228C132.661 20.5228 137.197 18.8221 138.444 18.7087C137.197 19.5024 134.702 22.2236 134.702 22.2236C134.702 22.2236 140.769 18.3685 141.902 18.8221C140.655 19.6158 136.233 24.378 136.233 24.378C136.233 24.378 143.433 18.9354 143.887 19.389C142.98 20.1827 138.104 25.0583 138.104 25.0583C138.104 25.0583 144.85 19.8425 145.417 20.4095C144.85 20.863 139.635 25.5118 139.124 26.4189C140.258 25.5118 146.551 21.2032 146.891 21.5433C146.438 21.8835 141.109 26.6457 140.882 26.9858C141.789 26.3055 147.515 22.4504 148.082 23.0173C147.402 23.3575 142.639 27.0992 142.526 27.326C143.206 26.9858 148.706 23.5843 149.046 24.0378C148.592 24.2646 145.077 27.2126 144.624 27.5528C145.871 26.9858 149.386 24.9449 149.726 25.285C148.932 25.9654 146.778 27.8929 146.551 28.2331C147.118 27.8929 150.746 25.9654 151.087 26.1921C150.293 26.6457 148.025 28.8 148.025 28.8C148.025 28.8 151.087 26.8724 151.313 27.0992C150.973 27.2126 148.932 29.1402 148.819 29.2535C149.272 28.9134 151.54 27.4394 151.654 27.5528C151.767 27.6661 150.066 29.4803 149.839 29.8205C150.293 29.4803 152.22 27.8929 152.334 28.0063C152.561 28.1197 150.86 30.1606 150.86 30.1606C150.86 30.1606 152.674 28.4598 152.787 28.6866C153.014 28.9134 151.88 30.7276 151.88 30.7276C151.88 30.7276 153.354 29.2535 153.468 29.3669C153.581 29.4803 153.014 31.1811 153.014 31.1811C153.014 31.1811 153.808 29.5937 154.035 29.7071C154.488 29.8772 154.715 31.011 154.715 31.011Z" fill="#1AB700"/>
<path d="M155.055 31.4646C155.055 31.4646 158.683 27.0425 157.55 19.9559C156.302 12.8693 151.03 9.5811 143.66 8.90079C143.66 8.90079 146.721 9.69449 146.608 10.0346C146.495 10.4882 143.32 10.2614 143.32 10.2614C143.32 10.2614 147.969 11.5087 148.989 12.0756C147.515 11.9622 143.887 12.7559 143.887 12.7559C143.887 12.7559 151.087 13.2094 151.767 14.2299C150.293 14.2299 144 15.4772 144 15.4772C144 15.4772 153.014 15.3638 153.128 15.9307C151.88 16.0441 145.134 17.178 145.134 17.178C145.134 17.178 153.694 16.9512 153.808 17.7449C153.014 17.7449 146.154 18.5386 145.134 18.8787C146.608 18.8787 154.148 19.1055 154.261 19.4457C153.581 19.4457 146.608 20.2394 146.268 20.3528C147.288 20.3528 154.261 20.5795 154.375 21.2598C153.581 21.0331 147.628 21.4866 147.402 21.4866C148.195 21.6 154.602 22.1669 154.602 22.7339C154.148 22.7339 149.499 22.9606 148.932 23.074C150.293 23.3008 154.375 23.7543 154.375 24.2079C153.354 24.2079 150.52 24.6614 150.066 24.7748C150.746 24.7748 154.828 25.3417 154.942 25.7953C154.035 25.6819 150.86 26.1354 150.86 26.1354C150.86 26.1354 154.488 26.3622 154.488 26.7024C154.148 26.7024 151.313 26.9291 151.2 27.0425C151.767 27.0425 154.488 27.0425 154.488 27.2693C154.488 27.4961 151.994 27.9496 151.654 28.063C152.334 28.063 154.715 27.8362 154.828 28.063C154.942 28.2898 152.334 28.9701 152.334 28.9701C152.334 28.9701 154.715 28.6299 154.828 28.8567C154.828 29.0835 152.901 29.9906 152.901 29.9906C152.901 29.9906 154.942 29.6504 154.942 29.8772C154.942 30.1039 153.581 31.1244 153.581 31.1244C153.581 31.1244 155.169 30.3307 155.282 30.4441C155.395 30.4441 155.055 31.4646 155.055 31.4646Z" fill="#1AB700"/>
</svg>
