<?xml version="1.0" encoding="utf-8"?>
<!-- Generator: Adobe Illustrator 23.0.4, SVG Export Plug-In . SVG Version: 6.00 Build 0)  -->
<svg version="1.1" id="Layer_1" xmlns="http://www.w3.org/2000/svg" xmlns:xlink="http://www.w3.org/1999/xlink" x="0px" y="0px"
	 viewBox="0 0 765.9 60.1" style="enable-background:new 0 0 765.9 60.1;" xml:space="preserve">
<style type="text/css">
	.st0{fill:none;stroke:#231F20;stroke-width:0.5;stroke-miterlimit:10;}
	.st1{fill:#00AD4D;}
	.st2{fill:#FFFFFF;}
	.st3{enable-background:new    ;}
	.st4{fill:#231F20;}
	.st5{fill:none;stroke:#FFFFFF;stroke-width:0.5;stroke-miterlimit:10;}
	.st6{fill:#FFFFFF;stroke:#FFFFFF;stroke-width:0.5;stroke-miterlimit:10;}
	.st7{fill:none;stroke:#FFFFFF;stroke-width:0.5;stroke-linejoin:round;stroke-miterlimit:10;}
	.st8{fill:#FFFFFF;stroke:#FFFFFF;stroke-width:0.5;stroke-linejoin:round;stroke-miterlimit:10;}
	.st9{clip-path:url(#SVGID_2_);fill:#FFFFFF;}
</style>
<line class="st0" x1="5.9" y1="47.4" x2="146.8" y2="47.4"/>
<line class="st0" x1="618.9" y1="47.4" x2="759.8" y2="47.4"/>
<g>
	<g>
		<path class="st1" d="M32.1,27.1c0,0.4-0.3,0.7-0.7,0.7H11.8c-0.4,0-0.7-0.3-0.7-0.7V7.5c0-0.4,0.3-0.7,0.7-0.7h19.6
			c0.4,0,0.7,0.3,0.7,0.7C32.1,7.5,32.1,27.1,32.1,27.1z"/>
		<rect x="12.3" y="25" class="st2" width="5.3" height="1.3"/>
		<g>
			<polygon class="st2" points="19.6,16 18.9,16.7 16.8,16 17.6,15.2 			"/>
			<polygon class="st2" points="21,14.6 20.3,15.3 18.3,14.5 19,13.8 			"/>
			<polygon class="st2" points="22.4,13.2 21.7,13.9 19.7,13.1 20.4,12.4 			"/>
			<polygon class="st2" points="23.8,11.8 23.1,12.5 21.1,11.7 21.8,11 			"/>
			<polygon class="st2" points="25.3,10.4 24.5,11.1 22.5,10.3 23.2,9.6 			"/>
			<polygon class="st2" points="26.7,8.9 26,9.7 23.9,8.9 25.3,7.5 			"/>
			<polygon class="st2" points="16.8,18.9 16.1,19.6 14.1,18.8 14.8,18.1 			"/>
			<polygon class="st2" points="18.2,17.5 17.5,18.2 15.4,17.4 16.1,16.7 			"/>
		</g>
		<path class="st2" d="M16.4,18.9c0,0-0.3-1-1.3-1s-1.3,1-1.3,1V26h2.6V18.9z"/>
	</g>
	<g class="st3">
		<path class="st4" d="M37.9,13.2h3.2V14h-2.4v2.2h2.3v0.8h-2.3v2.5h2.5v0.8h-3.4V13.2z"/>
		<path class="st4" d="M42.4,16.2c0-0.4,0-0.7,0-1.1h0.8l0,0.8h0c0.3-0.6,0.7-0.8,1.3-0.8c0.9,0,1.5,0.5,1.5,1.6v3.5h-0.8v-3.3
			c0-0.8-0.3-1.2-0.8-1.2c-0.7,0-1.1,0.5-1.1,1.4v3.1h-0.8V16.2z"/>
		<path class="st4" d="M49.5,20.1c-0.2,0.1-0.5,0.1-0.7,0.1c-0.8,0-1.2-0.3-1.2-1.2v-3.3h-0.8v-0.7h0.8v-1l0.8-0.2v1.3h1v0.7h-1v3
			c0,0.6,0.1,0.8,0.5,0.8c0.2,0,0.4-0.1,0.5-0.1V20.1z"/>
		<path class="st4" d="M50.2,16.2c0-0.4,0-0.7,0-1.1h0.8l0,0.8h0c0.3-0.6,0.7-0.9,1.4-0.9v0.8c-0.1,0-0.2,0-0.3,0
			c-0.6,0-1.1,0.6-1.1,1.7v2.7h-0.8V16.2z"/>
		<path class="st4" d="M53.3,15.4c0.4-0.3,0.9-0.4,1.4-0.4c0.8,0,1.2,0.3,1.4,0.5c0.2,0.2,0.4,0.5,0.4,1.2v2.7c0,0.3,0,0.6,0,0.8
			h-0.8l0-0.7h0c-0.2,0.4-0.6,0.8-1.4,0.8c-0.8,0-1.5-0.5-1.5-1.5c0-1,0.6-1.7,2.4-1.7h0.5v-0.2c0-0.4,0-0.6-0.2-0.8
			c-0.2-0.2-0.5-0.3-0.8-0.3c-0.5,0-1,0.2-1.3,0.5L53.3,15.4z M55.8,17.7c-0.1,0-0.4,0-0.6,0c-1,0-1.5,0.5-1.5,1.1
			c0,0.5,0.3,0.9,0.9,0.9c0.7,0,1.2-0.6,1.2-1.3V17.7z"/>
		<path class="st4" d="M57.8,16.2c0-0.4,0-0.7,0-1.1h0.8l0,0.8h0c0.3-0.6,0.7-0.8,1.3-0.8c0.9,0,1.5,0.5,1.5,1.6v3.5h-0.8v-3.3
			c0-0.8-0.3-1.2-0.8-1.2c-0.7,0-1.1,0.5-1.1,1.4v3.1h-0.8V16.2z"/>
		<path class="st4" d="M65.6,16c-0.3-0.2-0.6-0.2-1-0.2c-0.8,0-1.4,0.6-1.4,1.9c0,1.2,0.6,1.8,1.4,1.8c0.4,0,0.7-0.1,1-0.3l0,0.8
			c-0.2,0.1-0.7,0.2-1.1,0.2c-1.5,0-2.3-1.1-2.3-2.6c0-1.6,0.9-2.7,2.3-2.7c0.3,0,0.7,0.1,1,0.2L65.6,16z"/>
		<path class="st4" d="M67.1,17.9c0,1.2,0.5,1.7,1.4,1.7c0.4,0,0.9-0.2,1.2-0.4l0,0.8c-0.4,0.2-0.9,0.3-1.4,0.3c-1.3,0-2-1-2-2.6
			c0-1.6,0.7-2.6,2-2.6c1.1,0,1.8,0.9,1.8,2.4v0.4H67.1z M69.1,17.2c0-1.1-0.3-1.6-1-1.6c-0.5,0-1,0.4-1,1.6H69.1z"/>
	</g>
</g>
<g>
	<g>
		<path class="st1" d="M639.9,27.1c0,0.3-0.3,0.6-0.6,0.6h-20.1c-0.3,0-0.6-0.3-0.6-0.6V7.5c0-0.3,0.3-0.6,0.6-0.6h20.1
			c0.3,0,0.6,0.3,0.6,0.6V27.1z"/>
		<circle class="st2" cx="621.8" cy="9.5" r="1.1"/>
		<circle class="st2" cx="625.1" cy="9.5" r="1.1"/>
		<g>
			<path class="st2" d="M628.9,11.7c-3.8,0-6.9,3.1-6.9,6.9s3.1,6.9,6.9,6.9s6.9-3.1,6.9-6.9S632.7,11.7,628.9,11.7z M628.9,24.5
				c-3.3,0-6-2.7-6-6s2.7-6,6-6s6,2.7,6,6C634.8,21.9,632.2,24.5,628.9,24.5z"/>
			<path class="st2" d="M622.5,18.6c1,0,1.9-0.9,3.4-0.9s1.8,0.9,3,0.9s1.6-0.9,3.1-0.9s2,0.9,3.2,0.9c0,0-0.3-6.3-6.3-6.3
				S622.5,18.6,622.5,18.6z"/>
		</g>
	</g>
	<g class="st3">
		<path class="st4" d="M645.7,13.2h0.9v6.2h2.3v0.8h-3.2V13.2z"/>
		<path class="st4" d="M649.8,15.4c0.4-0.3,0.9-0.4,1.4-0.4c0.8,0,1.2,0.3,1.4,0.5c0.2,0.2,0.4,0.5,0.4,1.2v2.7c0,0.3,0,0.6,0,0.8
			h-0.8l0-0.7h0c-0.2,0.4-0.6,0.8-1.4,0.8c-0.8,0-1.5-0.5-1.5-1.5c0-1,0.6-1.7,2.4-1.7h0.5v-0.2c0-0.4,0-0.6-0.2-0.8
			c-0.2-0.2-0.5-0.3-0.8-0.3c-0.5,0-1,0.2-1.3,0.5L649.8,15.4z M652.2,17.7c-0.2,0-0.4,0-0.6,0c-1,0-1.5,0.5-1.5,1.1
			c0,0.5,0.3,0.9,0.9,0.9c0.7,0,1.2-0.6,1.2-1.3V17.7z"/>
		<path class="st4" d="M657.8,19.1c0,0.4,0,0.7,0,1.1H657l0-0.8h0c-0.3,0.6-0.7,0.8-1.3,0.8c-0.9,0-1.5-0.5-1.5-1.6v-3.5h0.8v3.3
			c0,0.8,0.3,1.2,0.8,1.2c0.7,0,1.1-0.5,1.1-1.4v-3.1h0.8V19.1z"/>
		<path class="st4" d="M659,16.2c0-0.4,0-0.7,0-1.1h0.8l0,0.8h0c0.3-0.6,0.7-0.8,1.3-0.8c0.9,0,1.5,0.5,1.5,1.6v3.5h-0.8v-3.3
			c0-0.8-0.3-1.2-0.8-1.2c-0.7,0-1.1,0.5-1.1,1.4v3.1H659V16.2z"/>
		<path class="st4" d="M667.5,19.2c0,0.3,0,0.6,0,0.9h-0.8l0-0.8h0c-0.2,0.4-0.6,0.8-1.3,0.8c-1,0-1.8-0.9-1.8-2.6s0.7-2.6,1.8-2.6
			c0.6,0,1,0.2,1.3,0.8h0v-3.1h0.8V19.2z M665.6,15.7c-0.8,0-1.1,0.7-1.1,1.9s0.4,1.9,1.1,1.9s1.1-0.7,1.1-1.9
			S666.3,15.7,665.6,15.7z"/>
		<path class="st4" d="M668.7,16.2c0-0.4,0-0.7,0-1.1h0.8l0,0.8h0c0.3-0.6,0.7-0.9,1.4-0.9v0.8c-0.1,0-0.2,0-0.3,0
			c-0.6,0-1.1,0.6-1.1,1.7v2.7h-0.8V16.2z"/>
		<path class="st4" d="M673.2,21.2c-0.2,0.9-0.6,1.2-1.2,1.2c-0.2,0-0.4,0-0.6-0.1l0-0.8c0.1,0.1,0.3,0.1,0.5,0.1
			c0.2,0,0.4-0.1,0.6-0.6l0.2-0.8l-1.6-5.2h0.9l1.1,4.2h0l1.1-4.2h0.8L673.2,21.2z"/>
	</g>
</g>
<g>
	<g>
		<path class="st1" d="M167.7,27.1c0,0.3-0.3,0.6-0.6,0.6H147c-0.3,0-0.6-0.3-0.6-0.6V7.5c0-0.3,0.3-0.6,0.6-0.6h20.1
			c0.3,0,0.6,0.3,0.6,0.6V27.1z"/>
		<path class="st2" d="M148,22.6l18.2-7.8c0,0,0.5,6.6-2.7,10.1c-1.7,0-2.7-1.7-2.7-1.7s-1.3,1.7-2.8,1.7s-2.7-1.4-2.7-1.4
			s-1.2,1.4-2.7,1.4s-2.5-1.1-2.5-1.1s-0.9,1.1-2.1,1.1C148,23.9,148,22.6,148,22.6z"/>
		<path class="st2" d="M153.2,12.4c3.3,1.7,4.6,6.7,4.6,6.7l-4.6,2c0,0,0.6-4.7-2-7.9C151.8,13,152.6,12.5,153.2,12.4z"/>
		<path class="st2" d="M148,13.8c0.1,0,8.9-3.4,9.6-3.6c0.5-0.2,0.8,0.5,0.2,0.7c-0.7,0.3-9.8,3.7-9.8,3.7V13.8z"/>
	</g>
	<g class="st3">
		<path class="st4" d="M173.5,9.2h1.8c1.3,0,1.9,0.7,1.9,1.8c0,0.8-0.4,1.3-1.1,1.5v0c0.8,0.1,1.3,0.7,1.3,1.7c0,1-0.7,1.9-2.2,1.9
			h-1.7V9.2z M174.4,12.2h0.5c1,0,1.4-0.4,1.4-1.2c0-0.6-0.4-1.1-1.3-1.1h-0.7V12.2z M174.4,15.5h0.7c0.9,0,1.3-0.6,1.3-1.2
			c0-0.7-0.4-1.3-1.2-1.3h-0.8V15.5z"/>
		<path class="st4" d="M180.3,11c1.3,0,2,1,2,2.6c0,1.6-0.7,2.6-2,2.6s-2-1-2-2.6C178.3,12,179,11,180.3,11z M180.3,15.6
			c0.8,0,1.2-0.7,1.2-1.9s-0.4-1.9-1.2-1.9c-0.8,0-1.2,0.7-1.2,1.9S179.5,15.6,180.3,15.6z"/>
		<path class="st4" d="M183.5,11.4c0.4-0.3,0.9-0.4,1.4-0.4c0.8,0,1.2,0.3,1.4,0.5c0.2,0.2,0.4,0.5,0.4,1.2v2.7c0,0.3,0,0.6,0,0.8
			h-0.8l0-0.7h0c-0.2,0.4-0.6,0.8-1.4,0.8c-0.8,0-1.5-0.5-1.5-1.5c0-1,0.6-1.7,2.4-1.7h0.5v-0.2c0-0.4,0-0.6-0.2-0.8
			c-0.2-0.2-0.5-0.3-0.8-0.3c-0.5,0-1,0.2-1.3,0.5L183.5,11.4z M186,13.7c-0.1,0-0.4,0-0.6,0c-1,0-1.5,0.5-1.5,1.1
			c0,0.5,0.3,0.9,0.9,0.9c0.7,0,1.2-0.6,1.2-1.3V13.7z"/>
		<path class="st4" d="M190.2,16.1c-0.2,0.1-0.5,0.1-0.7,0.1c-0.8,0-1.2-0.3-1.2-1.2v-3.3h-0.8v-0.7h0.8v-1l0.8-0.2v1.3h1v0.7h-1v3
			c0,0.6,0.1,0.8,0.5,0.8c0.2,0,0.4-0.1,0.5-0.1V16.1z"/>
		<path class="st4" d="M196.4,10.2c-0.3-0.2-0.8-0.3-1.2-0.3c-0.7,0-1.1,0.4-1.1,1c0,0.5,0.2,0.7,1.2,1.3c1.1,0.6,1.4,1.2,1.4,2
			c0,1.1-0.7,2-2,2c-0.6,0-1.1-0.1-1.5-0.3V15c0.4,0.2,0.9,0.5,1.3,0.5c0.8,0,1.2-0.5,1.2-1.1c0-0.5-0.1-0.8-1.1-1.4
			c-1.3-0.8-1.5-1.2-1.5-2.1c0-1.1,0.9-1.7,1.9-1.7c0.5,0,0.9,0.1,1.3,0.2V10.2z"/>
		<path class="st4" d="M198,11.4c0.4-0.3,0.9-0.4,1.4-0.4c0.8,0,1.2,0.3,1.4,0.5c0.2,0.2,0.4,0.5,0.4,1.2v2.7c0,0.3,0,0.6,0,0.8
			h-0.8l0-0.7h0c-0.2,0.4-0.6,0.8-1.4,0.8c-0.8,0-1.5-0.5-1.5-1.5c0-1,0.6-1.7,2.4-1.7h0.5v-0.2c0-0.4,0-0.6-0.2-0.8
			c-0.2-0.2-0.5-0.3-0.8-0.3c-0.5,0-1,0.2-1.3,0.5L198,11.4z M200.4,13.7c-0.1,0-0.4,0-0.6,0c-1,0-1.5,0.5-1.5,1.1
			c0,0.5,0.3,0.9,0.9,0.9c0.7,0,1.2-0.6,1.2-1.3V13.7z"/>
		<path class="st4" d="M202.5,8.7h0.8v7.5h-0.8V8.7z"/>
		<path class="st4" d="M205.3,13.9c0,1.2,0.5,1.7,1.4,1.7c0.4,0,0.9-0.2,1.2-0.4l0,0.8c-0.4,0.2-0.9,0.3-1.4,0.3c-1.3,0-2-1-2-2.6
			c0-1.6,0.7-2.6,2-2.6c1.1,0,1.8,0.9,1.8,2.4v0.4H205.3z M207.3,13.2c0-1.1-0.3-1.6-1-1.6c-0.5,0-1,0.4-1,1.6H207.3z"/>
		<path class="st4" d="M208.8,15.2c0.4,0.2,0.8,0.4,1.2,0.4c0.6,0,1-0.3,1-0.7c0-0.3-0.2-0.6-0.6-0.8l-0.6-0.2c-0.7-0.3-1-0.7-1-1.3
			c0-0.8,0.6-1.5,1.6-1.5c0.4,0,0.8,0.1,1.1,0.2l0,0.7c-0.3-0.1-0.6-0.2-1-0.2c-0.5,0-0.8,0.3-0.8,0.7c0,0.4,0.3,0.6,0.9,0.9
			l0.3,0.1c0.6,0.2,1,0.7,1,1.3c0,0.9-0.5,1.6-1.6,1.6c-0.5,0-1-0.1-1.4-0.3L208.8,15.2z"/>
	</g>
	<g class="st3">
		<path class="st4" d="M177.6,24.2l-0.5-0.8c-0.3,0.6-1,0.8-1.7,0.8c-1.3,0-2-0.9-2-1.9c0-1,0.5-1.6,1.4-2.1c-0.3-0.4-0.7-1-0.7-1.6
			c0-0.9,0.7-1.5,1.6-1.5c0.9,0,1.6,0.6,1.6,1.4c0,0.6-0.4,1.3-1.3,1.8l1.3,1.8c0.3-0.6,0.4-1.2,0.4-1.9h0.8
			c-0.1,0.9-0.3,1.8-0.8,2.5l1.1,1.4H177.6z M175.1,20.8c-0.5,0.3-0.9,0.8-0.9,1.5c0,0.7,0.5,1.3,1.3,1.3c0.5,0,1-0.3,1.2-0.7
			L175.1,20.8z M175.6,17.8c-0.5,0-0.8,0.3-0.8,0.7c0,0.4,0.4,0.9,0.6,1.3c0.7-0.4,0.9-0.8,0.9-1.3
			C176.3,18.2,176.1,17.8,175.6,17.8z"/>
		<path class="st4" d="M182,17.2h1.8c1.3,0,1.9,0.7,1.9,1.8c0,0.8-0.4,1.3-1.1,1.5v0c0.8,0.1,1.3,0.7,1.3,1.7c0,1-0.7,1.9-2.2,1.9
			H182V17.2z M182.9,20.2h0.5c1,0,1.4-0.4,1.4-1.2c0-0.6-0.4-1.1-1.3-1.1h-0.7V20.2z M182.9,23.5h0.7c0.9,0,1.3-0.6,1.3-1.2
			c0-0.7-0.4-1.3-1.2-1.3h-0.8V23.5z"/>
		<path class="st4" d="M187,20.2c0-0.4,0-0.7,0-1.1h0.8l0,0.8h0c0.3-0.6,0.7-0.9,1.4-0.9v0.8c-0.1,0-0.2,0-0.3,0
			c-0.6,0-1.1,0.6-1.1,1.7v2.7H187V20.2z"/>
		<path class="st4" d="M191.8,19c1.3,0,2,1,2,2.6c0,1.6-0.7,2.6-2,2.6s-2-1-2-2.6C189.7,20,190.4,19,191.8,19z M191.8,23.6
			c0.8,0,1.2-0.7,1.2-1.9s-0.4-1.9-1.2-1.9c-0.8,0-1.2,0.7-1.2,1.9S191,23.6,191.8,23.6z"/>
		<path class="st4" d="M197.4,19.1h1l-2,2.3l2.2,2.8h-1l-1.8-2.6h0v2.6h-0.8v-7.5h0.8v4.4L197.4,19.1z"/>
		<path class="st4" d="M199.5,21.9c0,1.2,0.5,1.7,1.4,1.7c0.4,0,0.9-0.2,1.2-0.4l0,0.8c-0.4,0.2-0.9,0.3-1.4,0.3c-1.3,0-2-1-2-2.6
			c0-1.6,0.7-2.6,2-2.6c1.1,0,1.8,0.9,1.8,2.4v0.4H199.5z M201.5,21.2c0-1.1-0.3-1.6-1-1.6c-0.5,0-1,0.4-1,1.6H201.5z"/>
		<path class="st4" d="M203.3,20.2c0-0.4,0-0.7,0-1.1h0.8l0,0.8h0c0.3-0.6,0.7-0.9,1.4-0.9v0.8c-0.1,0-0.2,0-0.3,0
			c-0.6,0-1.1,0.6-1.1,1.7v2.7h-0.8V20.2z"/>
		<path class="st4" d="M206.5,19.4c0.4-0.3,0.9-0.4,1.4-0.4c0.8,0,1.2,0.3,1.4,0.5c0.2,0.2,0.4,0.5,0.4,1.2v2.7c0,0.3,0,0.6,0,0.8
			H209l0-0.7h0c-0.2,0.4-0.6,0.8-1.4,0.8c-0.8,0-1.5-0.5-1.5-1.5c0-1,0.6-1.7,2.4-1.7h0.5v-0.2c0-0.4,0-0.6-0.2-0.8
			c-0.2-0.2-0.5-0.3-0.8-0.3c-0.5,0-1,0.2-1.3,0.5L206.5,19.4z M208.9,21.7c-0.1,0-0.4,0-0.6,0c-1,0-1.5,0.5-1.5,1.1
			c0,0.5,0.3,0.9,0.9,0.9c0.7,0,1.2-0.6,1.2-1.3V21.7z"/>
		<path class="st4" d="M214.6,24.4c0,1.4-1.1,2-2.2,2c-0.4,0-1.1-0.2-1.5-0.3l0-0.8c0.4,0.2,0.9,0.4,1.4,0.4c1,0,1.4-0.6,1.4-1.5
			v-0.8h0c-0.3,0.6-0.8,0.9-1.3,0.9c-1,0-1.8-0.9-1.8-2.6s0.7-2.6,1.8-2.6c0.5,0,1,0.3,1.2,0.8h0l0-0.7h0.8c0,0.3,0,0.6,0,0.9V24.4z
			 M212.6,23.6c0.8,0,1.1-0.7,1.1-1.9s-0.3-1.9-1.1-1.9s-1.1,0.7-1.1,1.9S211.9,23.6,212.6,23.6z"/>
		<path class="st4" d="M216.4,21.9c0,1.2,0.5,1.7,1.4,1.7c0.4,0,0.9-0.2,1.2-0.4l0,0.8c-0.4,0.2-0.9,0.3-1.4,0.3c-1.3,0-2-1-2-2.6
			c0-1.6,0.7-2.6,2-2.6c1.1,0,1.8,0.9,1.8,2.4v0.4H216.4z M218.4,21.2c0-1.1-0.3-1.6-1-1.6c-0.5,0-1,0.4-1,1.6H218.4z"/>
	</g>
</g>
<g>
	<g>
		<path class="st1" d="M572.5,27.1c0,0.4-0.3,0.7-0.7,0.7h-19.6c-0.4,0-0.7-0.3-0.7-0.7V7.5c0-0.4,0.3-0.7,0.7-0.7h19.6
			c0.4,0,0.7,0.3,0.7,0.7V27.1z"/>
		<g>
			<path class="st2" d="M563.5,11.1c0-0.4,0.1-0.7,0.4-1c0.3-0.3,0.6-0.4,1-0.4s0.7,0.2,1,0.4c0.3,0.3,0.4,0.6,0.4,1s-0.1,0.7-0.4,1
				c-0.3,0.3-0.6,0.4-1,0.4c-0.2,0-0.4,0-0.6-0.1c-0.2-0.1-0.3-0.2-0.5-0.3c-0.1-0.1-0.2-0.3-0.3-0.4
				C563.6,11.5,563.5,11.3,563.5,11.1"/>
			<g>
				<path class="st2" d="M554.7,24c-0.2,0-0.4-0.1-0.6-0.2c-0.4-0.3-0.4-0.9-0.1-1.2l3.6-4c0.2-0.2,0.4-0.3,0.6-0.3h4.3l1-4.6
					c0.1-0.5,0.6-0.8,1-0.7c0.5,0.1,0.8,0.6,0.7,1l-1.2,5.3c-0.1,0.4-0.4,0.7-0.8,0.7h-4.6l-3.3,3.7C555.2,23.9,555,24,554.7,24z"/>
			</g>
			<polygon class="st2" points="559,21 558,24.4 568.7,24.4 568.7,14.5 566.4,14.5 565,21 			"/>
		</g>
	</g>
	<g class="st3">
		<path class="st4" d="M578.3,13.2h0.9v6.2h2.3v0.8h-3.2V13.2z"/>
		<path class="st4" d="M584,15c1.3,0,2,1,2,2.6c0,1.6-0.7,2.6-2,2.6c-1.3,0-2-1-2-2.6C582,16,582.7,15,584,15z M584,19.6
			c0.8,0,1.2-0.7,1.2-1.9s-0.4-1.9-1.2-1.9s-1.2,0.7-1.2,1.9S583.2,19.6,584,19.6z"/>
		<path class="st4" d="M590.6,19.1c0,0.4,0,0.7,0,1.1h-0.8l0-0.8h0c-0.3,0.6-0.7,0.8-1.3,0.8c-0.9,0-1.5-0.5-1.5-1.6v-3.5h0.8v3.3
			c0,0.8,0.3,1.2,0.8,1.2c0.7,0,1.1-0.5,1.1-1.4v-3.1h0.8V19.1z"/>
		<path class="st4" d="M591.9,16.2c0-0.4,0-0.7,0-1.1h0.8l0,0.8h0c0.3-0.6,0.7-0.8,1.3-0.8c0.9,0,1.5,0.5,1.5,1.6v3.5h-0.8v-3.3
			c0-0.8-0.3-1.2-0.8-1.2c-0.7,0-1.1,0.5-1.1,1.4v3.1h-0.8V16.2z"/>
		<path class="st4" d="M600.4,20.4c0,1.4-1.1,2-2.2,2c-0.4,0-1.1-0.2-1.5-0.3l0-0.8c0.4,0.2,0.9,0.4,1.4,0.4c1,0,1.4-0.6,1.4-1.5
			v-0.8h0c-0.3,0.6-0.8,0.9-1.3,0.9c-1,0-1.8-0.9-1.8-2.6s0.7-2.6,1.8-2.6c0.5,0,1,0.3,1.2,0.8h0l0-0.7h0.8c0,0.3,0,0.6,0,0.9V20.4z
			 M598.4,19.6c0.8,0,1.1-0.7,1.1-1.9s-0.3-1.9-1.1-1.9s-1.1,0.7-1.1,1.9S597.6,19.6,598.4,19.6z"/>
		<path class="st4" d="M602.1,17.9c0,1.2,0.5,1.7,1.4,1.7c0.4,0,0.9-0.2,1.2-0.4l0,0.8c-0.4,0.2-0.9,0.3-1.4,0.3c-1.3,0-2-1-2-2.6
			c0-1.6,0.7-2.6,2-2.6c1.1,0,1.8,0.9,1.8,2.4v0.4H602.1z M604.2,17.2c0-1.1-0.3-1.6-1-1.6c-0.5,0-1,0.4-1,1.6H604.2z"/>
	</g>
</g>
<g>
	<g class="st3">
		<path class="st4" d="M434.9,14h-1.6v-0.8h4.1V14h-1.6v6.2h-0.9V14z"/>
		<path class="st4" d="M437.5,16.2c0-0.4,0-0.7,0-1.1h0.8l0,0.8h0c0.3-0.6,0.7-0.9,1.4-0.9v0.8c-0.1,0-0.2,0-0.3,0
			c-0.6,0-1.1,0.6-1.1,1.7v2.7h-0.8V16.2z"/>
		<path class="st4" d="M440.6,15.4c0.4-0.3,0.9-0.4,1.4-0.4c0.8,0,1.2,0.3,1.4,0.5c0.2,0.2,0.4,0.5,0.4,1.2v2.7c0,0.3,0,0.6,0,0.8
			h-0.8l0-0.7h0c-0.2,0.4-0.6,0.8-1.4,0.8c-0.8,0-1.5-0.5-1.5-1.5c0-1,0.6-1.7,2.4-1.7h0.5v-0.2c0-0.4,0-0.6-0.2-0.8
			c-0.2-0.2-0.5-0.3-0.8-0.3c-0.5,0-1,0.2-1.3,0.5L440.6,15.4z M443.1,17.7c-0.2,0-0.4,0-0.6,0c-1,0-1.5,0.5-1.5,1.1
			c0,0.5,0.3,0.9,0.9,0.9c0.7,0,1.2-0.6,1.2-1.3V17.7z"/>
		<path class="st4" d="M444.5,15.1h0.9l1.1,4.3h0l1.1-4.3h0.9l-1.5,5.1h-1L444.5,15.1z"/>
		<path class="st4" d="M449.9,17.9c0,1.2,0.5,1.7,1.4,1.7c0.4,0,0.9-0.2,1.2-0.4l0,0.8c-0.4,0.2-0.9,0.3-1.4,0.3c-1.3,0-2-1-2-2.6
			c0-1.6,0.7-2.6,2-2.6c1.1,0,1.8,0.9,1.8,2.4v0.4H449.9z M452,17.2c0-1.1-0.3-1.6-1-1.6c-0.5,0-1,0.4-1,1.6H452z"/>
		<path class="st4" d="M453.8,12.7h0.8v7.5h-0.8V12.7z"/>
		<path class="st4" d="M458.5,13.2h0.9v6.2h2.3v0.8h-3.2V13.2z"/>
		<path class="st4" d="M463.4,13v1h-0.9v-1H463.4z M462.5,15.1h0.8v5.1h-0.8V15.1z"/>
		<path class="st4" d="M465,15.8h-0.8v-0.7h0.8v-1.1c0-0.8,0.4-1.4,1.3-1.4c0.2,0,0.5,0,0.7,0.1v0.7c-0.1-0.1-0.3-0.1-0.5-0.1
			c-0.5,0-0.6,0.3-0.6,0.8v1.1h0.9v0.7h-0.9v4.4H465V15.8z"/>
		<path class="st4" d="M469.7,20.1c-0.2,0.1-0.5,0.1-0.7,0.1c-0.8,0-1.2-0.3-1.2-1.2v-3.3H467v-0.7h0.8v-1l0.8-0.2v1.3h1v0.7h-1v3
			c0,0.6,0.2,0.8,0.5,0.8c0.2,0,0.4-0.1,0.5-0.1V20.1z"/>
	</g>
	<g>
		<g>
			<path class="st1" d="M428.2,26.6c0,0.4-0.3,0.7-0.7,0.7h-18.7c-0.4,0-0.7-0.3-0.7-0.7V7.9c0-0.4,0.3-0.7,0.7-0.7h18.7
				c0.4,0,0.7,0.3,0.7,0.7V26.6z"/>
			<g>
				<path class="st2" d="M418.1,23c-2.1,0-4.4-2.3-4.4-6.6c5.7-1.5,3.4-1.5,8.8,0C422.5,20.6,420.2,23,418.1,23z"/>
				<polygon class="st2" points="421.6,16.7 414.4,16.7 415,14.2 421.1,14.2 				"/>
				<polygon class="st2" points="420.4,14.5 415.8,14.5 416.2,13.1 419.9,13.1 				"/>
			</g>
			<g>
				<path class="st2" d="M418.1,23.3c-4.8,0-7.3-12.5-7.4-13l0.6-0.1c0,0.1,2.5,12.5,6.8,12.5c3.6,0,6.1-9,6.8-12.5l0.6,0.1
					C425.4,10.8,422.9,23.3,418.1,23.3z"/>
			</g>
			<path class="st2" d="M426.5,8.8h-16.8v13.4h0.1h1.2V10.1h14.2v12.1h1.3"/>
		</g>
		<path class="st2" d="M411,26h-1.2c-0.2,0-0.3-0.1-0.3-0.3v-3c0-0.2,0.1-0.3,0.3-0.3h1.2c0.2,0,0.3,0.1,0.3,0.3v3
			C411.2,25.9,411.1,26,411,26z"/>
		<path class="st2" d="M426.4,26h-1.2c-0.2,0-0.3-0.1-0.3-0.3v-3c0-0.2,0.1-0.3,0.3-0.3h1.2c0.2,0,0.3,0.1,0.3,0.3v3
			C426.7,25.9,426.6,26,426.4,26z"/>
		<path class="st1" d="M421.4,16.1c0,0-1.5-0.7-3.3-1v0.3L421.4,16.1z"/>
		<path class="st1" d="M414.8,16.1c0,0,1.5-0.7,3.3-1v0.3L414.8,16.1z"/>
	</g>
</g>
<g>
	<g class="st3">
		<path class="st4" d="M264.9,10.2c-0.3-0.2-0.8-0.3-1.2-0.3c-0.7,0-1.1,0.4-1.1,1c0,0.5,0.2,0.7,1.2,1.3c1.1,0.6,1.4,1.2,1.4,2
			c0,1.1-0.7,2-2,2c-0.6,0-1.1-0.1-1.5-0.3V15c0.4,0.2,0.9,0.5,1.3,0.5c0.8,0,1.2-0.5,1.2-1.1c0-0.5-0.1-0.8-1.1-1.4
			c-1.3-0.8-1.5-1.2-1.5-2.1c0-1.1,0.9-1.7,1.9-1.7c0.5,0,0.9,0.1,1.3,0.2V10.2z"/>
		<path class="st4" d="M266.9,13.9c0,1.2,0.5,1.7,1.4,1.7c0.4,0,0.9-0.2,1.2-0.4l0,0.8c-0.4,0.2-0.9,0.3-1.4,0.3c-1.3,0-2-1-2-2.6
			c0-1.6,0.7-2.6,2-2.6c1.1,0,1.8,0.9,1.8,2.4v0.4H266.9z M268.9,13.2c0-1.1-0.3-1.6-1-1.6c-0.5,0-1,0.4-1,1.6H268.9z"/>
		<path class="st4" d="M270.7,12.2c0-0.4,0-0.7,0-1.1h0.8l0,0.8h0c0.3-0.6,0.7-0.9,1.4-0.9v0.8c-0.1,0-0.2,0-0.3,0
			c-0.6,0-1.1,0.6-1.1,1.7v2.7h-0.8V12.2z"/>
		<path class="st4" d="M273.1,11.1h0.9l1.1,4.3h0l1.1-4.3h0.9l-1.5,5.1h-1L273.1,11.1z"/>
		<path class="st4" d="M278.9,9v1H278V9H278.9z M278,11.1h0.8v5.1H278V11.1z"/>
		<path class="st4" d="M283.1,12c-0.3-0.2-0.6-0.2-1-0.2c-0.8,0-1.4,0.6-1.4,1.9c0,1.2,0.6,1.8,1.4,1.8c0.4,0,0.7-0.1,1-0.3l0,0.8
			c-0.2,0.1-0.7,0.2-1.1,0.2c-1.5,0-2.3-1.1-2.3-2.6c0-1.6,0.9-2.7,2.3-2.7c0.3,0,0.7,0.1,1,0.2L283.1,12z"/>
		<path class="st4" d="M284.7,13.9c0,1.2,0.5,1.7,1.4,1.7c0.4,0,0.9-0.2,1.2-0.4l0,0.8c-0.4,0.2-0.9,0.3-1.4,0.3c-1.3,0-2-1-2-2.6
			c0-1.6,0.7-2.6,2-2.6c1.1,0,1.8,0.9,1.8,2.4v0.4H284.7z M286.7,13.2c0-1.1-0.3-1.6-1-1.6c-0.5,0-1,0.4-1,1.6H286.7z"/>
	</g>
	<g class="st3">
		<path class="st4" d="M261.9,17.2h1.5c0.9,0,1.5,0.2,1.9,0.5c0.6,0.4,1.3,1.3,1.3,2.9c0,2-1,3.6-3.6,3.6h-1.1V17.2z M262.8,23.4
			h0.5c1.5,0,2.3-1,2.3-2.8c0-1.5-0.6-2.6-2.3-2.6h-0.5V23.4z"/>
		<path class="st4" d="M268.2,21.9c0,1.2,0.5,1.7,1.4,1.7c0.4,0,0.9-0.2,1.2-0.4l0,0.8c-0.4,0.2-0.9,0.3-1.4,0.3c-1.3,0-2-1-2-2.6
			c0-1.6,0.7-2.6,2-2.6c1.1,0,1.8,0.9,1.8,2.4v0.4H268.2z M270.2,21.2c0-1.1-0.3-1.6-1-1.6c-0.5,0-1,0.4-1,1.6H270.2z"/>
		<path class="st4" d="M271.9,20c0-0.3,0-0.6,0-0.9h0.8l0,0.8h0c0.2-0.4,0.6-0.8,1.3-0.8c1,0,1.8,0.9,1.8,2.6s-0.7,2.6-1.8,2.6
			c-0.6,0-1-0.2-1.3-0.8h0v2.9h-0.8V20z M273.9,23.6c0.8,0,1.1-0.7,1.1-1.9s-0.3-1.9-1.1-1.9s-1.1,0.7-1.1,1.9
			S273.1,23.6,273.9,23.6z"/>
		<path class="st4" d="M277,19.4c0.4-0.3,0.9-0.4,1.4-0.4c0.8,0,1.2,0.3,1.4,0.5c0.2,0.2,0.4,0.5,0.4,1.2v2.7c0,0.3,0,0.6,0,0.8
			h-0.8l0-0.7h0c-0.2,0.4-0.6,0.8-1.4,0.8c-0.8,0-1.5-0.5-1.5-1.5c0-1,0.6-1.7,2.4-1.7h0.5v-0.2c0-0.4,0-0.6-0.2-0.8
			c-0.2-0.2-0.5-0.3-0.8-0.3c-0.5,0-1,0.2-1.3,0.5L277,19.4z M279.4,21.7c-0.1,0-0.4,0-0.6,0c-1,0-1.5,0.5-1.5,1.1
			c0,0.5,0.3,0.9,0.9,0.9c0.7,0,1.2-0.6,1.2-1.3V21.7z"/>
		<path class="st4" d="M281.4,20.2c0-0.4,0-0.7,0-1.1h0.8l0,0.8h0c0.3-0.6,0.7-0.9,1.4-0.9v0.8c-0.1,0-0.2,0-0.3,0
			c-0.6,0-1.1,0.6-1.1,1.7v2.7h-0.8V20.2z"/>
		<path class="st4" d="M286.6,24.1c-0.2,0.1-0.5,0.1-0.7,0.1c-0.8,0-1.2-0.3-1.2-1.2v-3.3h-0.8v-0.7h0.8v-1l0.8-0.2v1.3h1v0.7h-1v3
			c0,0.6,0.1,0.8,0.5,0.8c0.2,0,0.4-0.1,0.5-0.1V24.1z"/>
		<path class="st4" d="M287.4,20.2c0-0.4,0-0.7,0-1.1h0.8l0,0.8h0c0.3-0.6,0.7-0.8,1.3-0.8c0.5,0,0.9,0.3,1.2,0.8
			c0.3-0.5,0.7-0.8,1.2-0.8c0.9,0,1.5,0.5,1.5,1.6v3.5h-0.8v-3.5c0-0.6-0.3-0.9-0.8-0.9c-0.6,0-1,0.4-1,1.3v3.1h-0.8v-3.5
			c0-0.6-0.3-0.9-0.8-0.9c-0.6,0-1,0.4-1,1.3v3.1h-0.8V20.2z"/>
		<path class="st4" d="M295.2,21.9c0,1.2,0.5,1.7,1.4,1.7c0.4,0,0.9-0.2,1.2-0.4l0,0.8c-0.4,0.2-0.9,0.3-1.4,0.3c-1.3,0-2-1-2-2.6
			c0-1.6,0.7-2.6,2-2.6c1.1,0,1.8,0.9,1.8,2.4v0.4H295.2z M297.2,21.2c0-1.1-0.3-1.6-1-1.6c-0.5,0-1,0.4-1,1.6H297.2z"/>
		<path class="st4" d="M299,20.2c0-0.4,0-0.7,0-1.1h0.8l0,0.8h0c0.3-0.6,0.7-0.8,1.3-0.8c0.9,0,1.5,0.5,1.5,1.6v3.5h-0.8v-3.3
			c0-0.8-0.3-1.2-0.8-1.2c-0.7,0-1.1,0.5-1.1,1.4v3.1H299V20.2z"/>
		<path class="st4" d="M306.1,24.1c-0.2,0.1-0.5,0.1-0.7,0.1c-0.8,0-1.2-0.3-1.2-1.2v-3.3h-0.8v-0.7h0.8v-1l0.8-0.2v1.3h1v0.7h-1v3
			c0,0.6,0.1,0.8,0.5,0.8c0.2,0,0.4-0.1,0.5-0.1V24.1z"/>
	</g>
	<g>
		<path class="st1" d="M256.8,27.1c0,0.4-0.3,0.7-0.7,0.7h-19.6c-0.4,0-0.7-0.3-0.7-0.7V7.5c0-0.4,0.3-0.7,0.7-0.7H256
			c0.4,0,0.7,0.3,0.7,0.7L256.8,27.1L256.8,27.1z"/>
		<path class="st2" d="M238.7,15.7c0,0-0.8-0.4-0.4,0.3c0.4,0.7,1.4,2.5,3.8,3.8c0,0,1,0.7,2.6-0.1c0,0,1.5-0.5,3.2,0.7
			c1.6,1.1,8.5,6.3,8.5,6.3v-1.9v-2.7l-7.1-5.8c0,0-1.1-1.1-1.2-2.9c0,0-0.1-2.4-1.7-3.1c0,0-1.8-1.1-5.6-0.3c0,0-1.4,0.4-0.2,0.8
			l3,1.3c0,0,1.5,0.6,0.7,2.2l-0.9,2.1c0,0-0.6,1-2.1,0.4L238.7,15.7z"/>
	</g>
</g>
<g>
	<g class="st3">
		<path class="st4" d="M511.6,13.2h3.1V14h-2.2v2.2h2.1v0.8h-2.1v3.2h-0.9V13.2z"/>
		<path class="st4" d="M516.3,13v1h-0.9v-1H516.3z M515.4,15.1h0.8v5.1h-0.8V15.1z"/>
		<path class="st4" d="M517.6,16.2c0-0.4,0-0.7,0-1.1h0.8l0,0.8h0c0.3-0.6,0.7-0.9,1.4-0.9v0.8c-0.1,0-0.2,0-0.3,0
			c-0.6,0-1.1,0.6-1.1,1.7v2.7h-0.8V16.2z"/>
		<path class="st4" d="M521.2,17.9c0,1.2,0.5,1.7,1.4,1.7c0.4,0,0.9-0.2,1.2-0.4l0,0.8c-0.4,0.2-0.9,0.3-1.4,0.3c-1.3,0-2-1-2-2.6
			c0-1.6,0.7-2.6,2-2.6c1.1,0,1.8,0.9,1.8,2.4v0.4H521.2z M523.2,17.2c0-1.1-0.3-1.6-1-1.6c-0.5,0-1,0.4-1,1.6H523.2z"/>
		<path class="st4" d="M527.5,13.2h1.7c0.7,0,1.1,0.2,1.5,0.5c0.3,0.3,0.5,0.8,0.5,1.4c0,1.4-0.8,2.1-2.3,2.1h-0.6v2.9h-0.9V13.2z
			 M528.4,16.5h0.5c1.1,0,1.5-0.5,1.5-1.3c0-1-0.5-1.3-1.4-1.3h-0.5V16.5z"/>
		<path class="st4" d="M533.1,13v1h-0.9v-1H533.1z M532.3,15.1h0.8v5.1h-0.8V15.1z"/>
		<path class="st4" d="M536.6,20.1c-0.2,0.1-0.5,0.1-0.7,0.1c-0.8,0-1.2-0.3-1.2-1.2v-3.3h-0.8v-0.7h0.8v-1l0.8-0.2v1.3h1v0.7h-1v3
			c0,0.6,0.1,0.8,0.5,0.8c0.2,0,0.4-0.1,0.5-0.1V20.1z"/>
	</g>
	<g>
		<g>
			<path class="st1" d="M505.8,27.1c0,0.3-0.3,0.6-0.6,0.6h-20.1c-0.3,0-0.6-0.3-0.6-0.6V7.5c0-0.3,0.3-0.6,0.6-0.6h20.1
				c0.3,0,0.6,0.3,0.6,0.6V27.1z"/>
			<g>
				<path class="st2" d="M496,9.2c-3.7,1.7-3.5,4.6-2.8,6.1c-1.3,0-2.2-2.3-1.6-3.4c-2.1,1.9-4.2,7.3,0.2,9.1c-1.5-1.2-0.6-3.4,0-4
					c0.2,1.7,2.6,1.8,2.6,1.8s-0.6-2.2,1.7-3.2c-0.8,3.1,4.8,1.9,2.3,5.5c3.9-0.9,3.8-5.5,1.1-7C497.3,12.8,494.5,12.6,496,9.2z"/>
			</g>
		</g>
		<path class="st2" d="M488.6,21.2v2.2c0,0,2.5,1.4,6.6,1.4v-2.1C495.2,22.7,491.1,22.8,488.6,21.2z"/>
		<path class="st2" d="M501.8,21.2v2.2c0,0-2.5,1.4-6.6,1.4v-2.1C495.2,22.7,499.3,22.8,501.8,21.2z"/>
		<path class="st2" d="M488.6,21l1.2,0.6c0,0-0.7-1.2-0.4-1.6C489.5,20,488.6,20.5,488.6,21z"/>
		<path class="st2" d="M501.8,21l-1.2,0.6c0,0,0.7-1.2,0.4-1.6C500.9,20,501.8,20.5,501.8,21z"/>
	</g>
</g>
<g>
	<g class="st3">
		<path class="st4" d="M717.2,13.2h1.8c0.7,0,1.1,0.2,1.5,0.5c0.4,0.3,0.5,0.8,0.5,1.3c0,0.7-0.3,1.4-1.4,1.7v0
			c0.4,0.1,0.6,0.3,0.8,0.7l1,2.8h-0.9l-0.8-2.4c-0.2-0.6-0.4-0.8-1.1-0.8H718v3.2h-0.9V13.2z M718,16.3h0.7c0.9,0,1.3-0.6,1.3-1.2
			c0-0.8-0.5-1.1-1.3-1.1H718V16.3z"/>
		<path class="st4" d="M722.8,17.9c0,1.2,0.5,1.7,1.4,1.7c0.4,0,0.9-0.2,1.2-0.4l0,0.8c-0.4,0.2-0.9,0.3-1.4,0.3c-1.3,0-2-1-2-2.6
			c0-1.6,0.7-2.6,2-2.6c1.1,0,1.8,0.9,1.8,2.4v0.4H722.8z M724.9,17.2c0-1.1-0.3-1.6-1-1.6c-0.5,0-1,0.4-1,1.6H724.9z"/>
		<path class="st4" d="M726.4,19.2c0.4,0.2,0.8,0.4,1.2,0.4c0.6,0,1-0.3,1-0.7c0-0.3-0.2-0.6-0.6-0.8l-0.6-0.2c-0.7-0.3-1-0.7-1-1.3
			c0-0.8,0.7-1.5,1.6-1.5c0.4,0,0.8,0.1,1.1,0.2l0,0.7c-0.3-0.1-0.6-0.2-1-0.2c-0.5,0-0.8,0.3-0.8,0.7c0,0.4,0.3,0.6,0.9,0.9
			l0.3,0.1c0.6,0.2,1,0.7,1,1.3c0,0.9-0.5,1.6-1.6,1.6c-0.5,0-1-0.1-1.4-0.3L726.4,19.2z"/>
		<path class="st4" d="M732.6,20.1c-0.2,0.1-0.5,0.1-0.7,0.1c-0.8,0-1.2-0.3-1.2-1.2v-3.3h-0.8v-0.7h0.8v-1l0.8-0.2v1.3h1v0.7h-1v3
			c0,0.6,0.2,0.8,0.5,0.8c0.2,0,0.4-0.1,0.5-0.1V20.1z"/>
		<path class="st4" d="M733.3,16.2c0-0.4,0-0.7,0-1.1h0.8l0,0.8h0c0.3-0.6,0.7-0.9,1.4-0.9v0.8c-0.1,0-0.2,0-0.3,0
			c-0.6,0-1.1,0.6-1.1,1.7v2.7h-0.8V16.2z"/>
		<path class="st4" d="M738.1,15c1.3,0,2,1,2,2.6c0,1.6-0.7,2.6-2,2.6c-1.3,0-2-1-2-2.6C736,16,736.7,15,738.1,15z M738.1,19.6
			c0.8,0,1.2-0.7,1.2-1.9s-0.4-1.9-1.2-1.9s-1.2,0.7-1.2,1.9S737.3,19.6,738.1,19.6z"/>
		<path class="st4" d="M742.9,15c1.3,0,2,1,2,2.6c0,1.6-0.7,2.6-2,2.6c-1.3,0-2-1-2-2.6C740.8,16,741.5,15,742.9,15z M742.9,19.6
			c0.8,0,1.2-0.7,1.2-1.9s-0.4-1.9-1.2-1.9c-0.8,0-1.2,0.7-1.2,1.9S742.1,19.6,742.9,19.6z"/>
		<path class="st4" d="M745.9,16.2c0-0.4,0-0.7,0-1.1h0.8l0,0.8h0c0.3-0.6,0.7-0.8,1.3-0.8c0.5,0,0.9,0.3,1.2,0.8
			c0.3-0.5,0.7-0.8,1.2-0.8c0.9,0,1.5,0.5,1.5,1.6v3.5h-0.8v-3.5c0-0.6-0.3-0.9-0.8-0.9c-0.6,0-1,0.4-1,1.3v3.1h-0.8v-3.5
			c0-0.6-0.3-0.9-0.8-0.9c-0.6,0-1,0.4-1,1.3v3.1h-0.8V16.2z"/>
		<path class="st4" d="M752.9,19.2c0.4,0.2,0.8,0.4,1.2,0.4c0.6,0,1-0.3,1-0.7c0-0.3-0.2-0.6-0.6-0.8l-0.6-0.2c-0.7-0.3-1-0.7-1-1.3
			c0-0.8,0.7-1.5,1.6-1.5c0.4,0,0.8,0.1,1.1,0.2l0,0.7c-0.3-0.1-0.6-0.2-1-0.2c-0.5,0-0.8,0.3-0.8,0.7c0,0.4,0.3,0.6,0.9,0.9
			l0.3,0.1c0.6,0.2,1,0.7,1,1.3c0,0.9-0.5,1.6-1.6,1.6c-0.5,0-1-0.1-1.4-0.3L752.9,19.2z"/>
	</g>
	<g>
		<g>
			<g>
				<path class="st1" d="M711.4,27.1c0,0.4-0.3,0.7-0.7,0.7H691c-0.4,0-0.7-0.3-0.7-0.7V7.5c0-0.4,0.3-0.7,0.7-0.7h19.6
					c0.4,0,0.7,0.3,0.7,0.7v19.6H711.4z"/>
			</g>
			<ellipse class="st5" cx="700.8" cy="12.6" rx="5.3" ry="2"/>
			<ellipse class="st6" cx="700.8" cy="22" rx="5.3" ry="2"/>
			<ellipse class="st7" cx="700.6" cy="12.6" rx="1.6" ry="0.6"/>
			<path class="st8" d="M695.5,22v-9.4c0,0,0.4,2,5.3,2c0,0,4.3,0.2,5.3-2V22H695.5z"/>
			<path class="st1" d="M697.2,13.4c0,0,4.7,2.9,4.4,5.9c0,0.2-2.5,1.9-2.5,5l-1.4-0.4L697.2,13.4z"/>
		</g>
		<path class="st2" d="M697.2,13.8c0,0,3.5,2,4,5.2c0,0-3.4,3.9-2.4,6.5l-3.3-2.8L697.2,13.8z"/>
	</g>
</g>
<g>
	<g class="st3">
		<path class="st4" d="M350.4,14.2c-0.3-0.2-0.8-0.3-1.2-0.3c-0.7,0-1.1,0.4-1.1,1c0,0.5,0.2,0.7,1.2,1.3c1.1,0.6,1.4,1.2,1.4,2
			c0,1.1-0.7,2-2,2c-0.6,0-1.1-0.1-1.5-0.3V19c0.4,0.2,0.9,0.5,1.3,0.5c0.8,0,1.2-0.5,1.2-1.1c0-0.5-0.1-0.8-1.1-1.4
			c-1.3-0.8-1.5-1.2-1.5-2.1c0-1.1,0.9-1.7,1.9-1.7c0.5,0,0.9,0.1,1.3,0.2V14.2z"/>
		<path class="st4" d="M351.8,12.7h0.8v3.1h0c0.2-0.4,0.7-0.8,1.2-0.8c0.9,0,1.5,0.5,1.5,1.6v3.5h-0.8v-3.3c0-0.8-0.3-1.2-0.8-1.2
			c-0.7,0-1.1,0.5-1.1,1.4v3.1h-0.8V12.7z"/>
		<path class="st4" d="M358.4,15c1.3,0,2,1,2,2.6c0,1.6-0.7,2.6-2,2.6s-2-1-2-2.6C356.3,16,357,15,358.4,15z M358.4,19.6
			c0.8,0,1.2-0.7,1.2-1.9s-0.4-1.9-1.2-1.9c-0.8,0-1.2,0.7-1.2,1.9S357.6,19.6,358.4,19.6z"/>
		<path class="st4" d="M366.2,20.2h-1l-1.1-4.3h0l-1,4.3h-1l-1.3-5.1h0.9l1,4.3h0l1-4.3h1l1,4.3h0l1-4.3h0.8L366.2,20.2z"/>
		<path class="st4" d="M370.8,13.2h1.8c0.7,0,1.1,0.2,1.5,0.5c0.4,0.3,0.5,0.8,0.5,1.3c0,0.7-0.3,1.4-1.4,1.7v0
			c0.4,0.1,0.6,0.3,0.8,0.7l1,2.8H374l-0.8-2.4c-0.2-0.6-0.4-0.8-1.1-0.8h-0.4v3.2h-0.9V13.2z M371.7,16.3h0.7
			c0.9,0,1.3-0.6,1.3-1.2c0-0.8-0.5-1.1-1.3-1.1h-0.7V16.3z"/>
		<path class="st4" d="M377.6,15c1.3,0,2,1,2,2.6c0,1.6-0.7,2.6-2,2.6s-2-1-2-2.6C375.6,16,376.3,15,377.6,15z M377.6,19.6
			c0.8,0,1.2-0.7,1.2-1.9s-0.4-1.9-1.2-1.9c-0.8,0-1.2,0.7-1.2,1.9S376.8,19.6,377.6,19.6z"/>
		<path class="st4" d="M382.5,15c1.3,0,2,1,2,2.6c0,1.6-0.7,2.6-2,2.6c-1.3,0-2-1-2-2.6C380.4,16,381.1,15,382.5,15z M382.5,19.6
			c0.8,0,1.2-0.7,1.2-1.9s-0.4-1.9-1.2-1.9s-1.2,0.7-1.2,1.9S381.7,19.6,382.5,19.6z"/>
		<path class="st4" d="M385.5,16.2c0-0.4,0-0.7,0-1.1h0.8l0,0.8h0c0.3-0.6,0.7-0.8,1.3-0.8c0.5,0,0.9,0.3,1.2,0.8
			c0.3-0.5,0.7-0.8,1.2-0.8c0.9,0,1.5,0.5,1.5,1.6v3.5h-0.8v-3.5c0-0.6-0.3-0.9-0.8-0.9c-0.6,0-1,0.4-1,1.3v3.1h-0.8v-3.5
			c0-0.6-0.3-0.9-0.8-0.9c-0.6,0-1,0.4-1,1.3v3.1h-0.8V16.2z"/>
	</g>
	<g>
		<g>
			<path class="st1" d="M341.7,27.1c0,0.4-0.3,0.7-0.7,0.7h-19.6c-0.4,0-0.7-0.3-0.7-0.7V7.5c0-0.4,0.3-0.7,0.7-0.7H341
				c0.4,0,0.7,0.3,0.7,0.7V27.1z"/>
		</g>
		<g>
			<path class="st2" d="M331.2,8.8c4.7,0,8.5,3.8,8.6,8.5c0,4.9-3.9,8.8-8.9,8.7c-4.5-0.1-8.4-3.8-8.3-8.7
				C322.6,12.6,326.4,8.8,331.2,8.8z M338.2,17.3c0-0.1,0-0.3,0-0.5c-0.1-1.3-0.5-2.5-1.3-3.5c-1.2-1.7-2.9-2.7-5-2.9
				c-0.1,0-0.1,0-0.2-0.1c-0.1-0.3-0.2-0.6-0.3-0.9c-0.1-0.2-0.2-0.3-0.3-0.3c-0.1,0-0.2,0.1-0.3,0.3c-0.1,0.3-0.2,0.6-0.3,0.9
				c0,0.1-0.1,0.1-0.2,0.1c-1.1,0.1-2.1,0.5-3,1.1c-1.4,0.9-2.4,2.2-2.9,3.7c-0.3,0.9-0.4,1.8-0.3,2.7s0.3,1.7,0.6,2.5
				c0,0.1,0,0.1,0,0.2c-0.2,0.2-0.4,0.4-0.6,0.6c-0.1,0.1-0.1,0.2,0,0.3c0.1,0.1,0.2,0.2,0.3,0.1h0.1c0.2-0.1,0.5-0.1,0.7-0.2
				c0.1,0,0.2,0,0.2,0.1c0.3,0.4,0.6,0.8,1,1.1c1.1,1,2.4,1.6,3.9,1.8c1.2,0.1,2.3,0,3.4-0.4c1.3-0.5,2.3-1.3,3.2-2.4
				c0.1-0.1,0.1-0.1,0.2-0.1c0.3,0.1,0.6,0.1,0.9,0.2c0.1,0,0.2,0,0.2,0c0.2-0.1,0.2-0.3,0.1-0.5c-0.2-0.2-0.4-0.4-0.6-0.6
				c-0.1-0.1-0.1-0.1,0-0.2C338,19.4,338.2,18.5,338.2,17.3z"/>
			<path class="st2" d="M332.4,15.2c0.2-0.1,0.3-0.2,0.4-0.2c0.9-0.5,1.9-1.1,2.8-1.6c0.1,0,0.1-0.1,0.2,0c0.1,0.2,0.2,0.3,0.3,0.5
				c-0.2,0.1-0.4,0.2-0.6,0.3c-1,0.6-2,1.1-3,1.7c-0.1,0-0.1,0.1-0.1,0.2s0,0.3,0,0.4s0,0.2,0.1,0.2c0.2,0.1,0.3,0.2,0.5,0.2
				s0.3-0.1,0.5-0.2c1-0.6,1.9-1.1,2.9-1.7h0.1c0.3-0.1,0.3-0.1,0.4,0.1c0.2,0.3,0.2,0.3-0.1,0.5c-0.9,0.6-1.9,1.1-2.8,1.7
				c-0.1,0.1-0.1,0.1,0,0.2c0.2,0.1,0.3,0.2,0.5,0.3c0.4,0.2,0.7,0.6,0.7,1c0,0.1,0.1,0.2,0.1,0.3c0.2,0.4,0.6,0.5,1,0.4
				c0.1,0,0.2,0,0.2,0.1c0.4,0.5,0.9,0.9,1.3,1.4c0.1,0.1,0.2,0.2,0.3,0.3c0,0,0,0.1,0.1,0.2c-0.1,0-0.1,0.1-0.2,0
				c-0.6-0.1-1.3-0.3-1.9-0.4c-0.3-0.1-0.5-0.2-0.6-0.5c-0.1-0.4-0.5-0.6-0.9-0.4c-0.2,0-0.3,0.1-0.5,0.1c-0.3,0.1-0.6,0-0.9-0.2
				c-0.2-0.1-0.4-0.2-0.6-0.3h-0.1c0,0.1,0,0.1,0,0.2c0,0.5,0,1,0,1.6s0,1.2,0,1.8c0,0.1,0,0.1-0.1,0.1c-0.2,0-0.3,0-0.5,0
				c-0.1,0-0.1,0-0.1-0.1c0-1,0-2,0-3c0-0.3,0-0.6,0-0.9c0-0.1,0-0.1-0.1-0.2s-0.2-0.2-0.4-0.2c-0.1,0-0.1,0-0.2,0
				c-0.2,0.1-0.3,0.2-0.4,0.3l-0.1,0.1c0,0.9,0,1.8,0,2.8c0,0.4,0,0.7,0,1.1c0,0.1,0,0.1-0.1,0.1c-0.2,0-0.3,0-0.5,0
				c-0.1,0-0.1,0-0.1-0.1l0,0c0-1.1,0-2.2,0-3.3c0,0,0-0.1,0-0.2c-0.1,0-0.1,0-0.1,0.1c-0.3,0.1-0.5,0.3-0.8,0.4s-0.6,0.1-0.9,0
				c-0.2-0.1-0.5-0.1-0.7-0.1c-0.3,0.1-0.5,0.3-0.5,0.6c0,0.2-0.1,0.3-0.3,0.3c-0.7,0.2-1.4,0.3-2.1,0.5c0,0,0,0-0.1,0s-0.1,0-0.1,0
				s0-0.1,0-0.2c0.1-0.2,0.3-0.3,0.5-0.5c0.4-0.4,0.8-0.8,1.2-1.2c0,0,0.1-0.1,0.2,0c0.6,0.2,1-0.1,1.2-0.7c0.1-0.5,0.4-0.9,0.8-1.1
				c0.2-0.1,0.3-0.2,0.4-0.3c0.1-0.1,0.1-0.1,0-0.2c-0.6-0.3-1.1-0.6-1.7-1c-0.5-0.3-1-0.6-1.4-0.8c-0.1,0-0.1-0.1-0.1-0.2
				c0.1-0.1,0.2-0.2,0.2-0.4c0.1-0.1,0.1-0.1,0.2,0c0.6,0.4,1.3,0.8,1.9,1.1c0.5,0.3,1,0.6,1.5,0.9c0.1,0.1,0.2,0.1,0.3,0
				c0.1-0.1,0.2-0.1,0.4-0.2c0,0,0.1-0.1,0.1-0.2c0-0.2,0-0.3,0-0.5l-0.1-0.1c-1.1-0.7-2.3-1.3-3.4-2c-0.1,0-0.1-0.1-0.2-0.1
				c0.1-0.2,0.2-0.4,0.3-0.5c0,0,0.1,0,0.2,0c0.4,0.2,0.7,0.4,1.1,0.6c0.7,0.4,1.4,0.8,2,1.2c0,0,0.1,0,0.1,0.1c0-0.1,0-0.1,0-0.2
				c0-0.4,0-0.7,0-1.1c0-0.3,0.2-0.6,0.4-0.8c0.1-0.1,0.2-0.2,0.3-0.4c0.2-0.3,0.1-0.6-0.2-0.9c-0.1-0.1-0.2-0.2-0.1-0.4
				c0.2-0.7,0.4-1.4,0.7-2.1c0-0.1,0.1-0.1,0.1-0.1c0.1,0,0.1,0.1,0.1,0.1c0.2,0.7,0.5,1.5,0.7,2.2c0,0,0,0.1,0,0.2
				c0,0.1-0.1,0.1-0.2,0.2c-0.3,0.4-0.3,0.7,0.1,1.1c0.2,0.2,0.4,0.4,0.5,0.6c0.1,0.2,0.1,0.4,0.1,0.5c0,0.3,0,0.6,0,0.8
				C332.4,15.1,332.4,15.1,332.4,15.2z M331.8,14.8c0-0.2,0-0.4,0-0.6c0-0.3-0.3-0.6-0.6-0.6c-0.3,0-0.6,0.3-0.6,0.6
				c0,0.4,0,0.8,0,1.3c0,0.1,0,0.1,0.1,0.2c0.1,0.1,0.3,0.2,0.4,0.3c0,0,0.1,0,0.2,0c0.1-0.1,0.3-0.2,0.4-0.2s0.1-0.1,0.1-0.2
				C331.8,15.3,331.8,15.1,331.8,14.8z M329.9,18.6c0-0.1,0-0.1,0-0.2s0-0.2-0.1-0.3c-0.1-0.1-0.2-0.1-0.3-0.2
				c-0.1-0.1-0.2-0.1-0.3,0c-0.3,0.2-0.6,0.3-0.8,0.5c-0.3,0.2-0.4,0.5-0.3,0.8c0.2,0.3,0.6,0.4,0.9,0.2c0.2-0.1,0.5-0.3,0.7-0.4
				C329.8,19,329.9,18.8,329.9,18.6z M333.7,19.6c0.3,0,0.5-0.2,0.6-0.5c0.1-0.2,0-0.5-0.3-0.7s-0.6-0.4-0.9-0.5c0,0-0.1,0-0.2,0
				c-0.1,0.1-0.3,0.2-0.4,0.3c0,0-0.1,0.1-0.1,0.2c0,0.2,0,0.3,0,0.5c0,0.1,0,0.1,0.1,0.2c0.3,0.2,0.6,0.4,0.9,0.5
				C333.5,19.5,333.6,19.6,333.7,19.6z M330.6,17.5c-0.1,0.3,0.1,0.4,0.3,0.5c0.2,0.1,0.4,0.1,0.6,0s0.3-0.3,0.3-0.5
				c0-0.3-0.1-0.4-0.3-0.5c-0.3-0.1-0.3-0.2-0.6,0C330.6,17,330.5,17.2,330.6,17.5z"/>
		</g>
	</g>
</g>
<g>
	<g class="st3">
		<path class="st4" d="M113,13.1c1.5,0,2.5,1.3,2.5,3.5c0,2.4-1,3.6-2.6,3.6c-1.5,0-2.5-1.3-2.5-3.5C110.4,14.4,111.4,13.1,113,13.1
			z M113,19.5c0.9,0,1.7-0.8,1.7-2.9c0-1.4-0.4-2.8-1.6-2.8c-0.9,0-1.7,0.8-1.7,2.9C111.3,18.2,111.8,19.5,113,19.5z"/>
		<path class="st4" d="M117,15.8h-0.8v-0.7h0.8v-1.1c0-0.8,0.4-1.4,1.3-1.4c0.2,0,0.5,0,0.7,0.1v0.7c-0.1-0.1-0.3-0.1-0.5-0.1
			c-0.5,0-0.6,0.3-0.6,0.8v1.1h0.9v0.7h-0.9v4.4H117V15.8z"/>
		<path class="st4" d="M119.8,15.8H119v-0.7h0.8v-1.1c0-0.8,0.4-1.4,1.3-1.4c0.2,0,0.5,0,0.7,0.1v0.7c-0.1-0.1-0.3-0.1-0.5-0.1
			c-0.5,0-0.6,0.3-0.6,0.8v1.1h0.9v0.7h-0.9v4.4h-0.8V15.8z M123.2,13v1h-0.9v-1H123.2z M122.3,15.1h0.8v5.1h-0.8V15.1z"/>
		<path class="st4" d="M127.4,16c-0.3-0.2-0.6-0.2-1-0.2c-0.8,0-1.4,0.6-1.4,1.9c0,1.2,0.6,1.8,1.4,1.8c0.4,0,0.7-0.1,1-0.3l0,0.8
			c-0.2,0.1-0.7,0.2-1.1,0.2c-1.5,0-2.3-1.1-2.3-2.6c0-1.6,0.9-2.7,2.3-2.7c0.3,0,0.7,0.1,1,0.2L127.4,16z"/>
		<path class="st4" d="M129,17.9c0,1.2,0.5,1.7,1.4,1.7c0.4,0,0.9-0.2,1.2-0.4l0,0.8c-0.4,0.2-0.9,0.3-1.4,0.3c-1.3,0-2-1-2-2.6
			c0-1.6,0.7-2.6,2-2.6c1.1,0,1.8,0.9,1.8,2.4v0.4H129z M131,17.2c0-1.1-0.3-1.6-1-1.6c-0.5,0-1,0.4-1,1.6H131z"/>
	</g>
	<g>
		<path class="st1" d="M104.9,27.1c0,0.4-0.3,0.7-0.7,0.7H84.6c-0.4,0-0.7-0.3-0.7-0.7V7.5c0-0.4,0.3-0.7,0.7-0.7h19.6
			c0.4,0,0.7,0.3,0.7,0.7C104.9,7.5,104.9,27.1,104.9,27.1z"/>
		<g>
			<g>
				<defs>
					<path id="SVGID_1_" d="M104,26.2c0,0.4-0.3,0.7-0.7,0.7H85.4c-0.4,0-0.7-0.3-0.7-0.7V8.3c0-0.4,0.3-0.7,0.7-0.7h17.9
						c0.4,0,0.7,0.3,0.7,0.7V26.2z"/>
				</defs>
				<clipPath id="SVGID_2_">
					<use xlink:href="#SVGID_1_"  style="overflow:visible;"/>
				</clipPath>
				<path class="st9" d="M100.6,21.8c0.3-0.3,2.6,1.1,4.1,2.1v-0.3c-1.2-1.1-2.9-2.6-3.2-2.8c0.1-0.1,1.7,0.9,3.2,1.8v-0.7
					c-1-0.9-1.9-1.7-2.1-1.9c0.2-0.2,1.1,0.3,2.1,1v-1c-0.4-0.4-0.8-0.7-1-0.9c0.1-0.1,0.4,0.1,1,0.4V17c-1.9,0.2-3.7,1.1-5.3,2.7
					c-0.4,0.4-0.7,0.7-1,1.1c0-0.5-0.1-1-0.2-1.5c-0.9-5.3-4.9-7.7-10.3-8.2c0,0,2.3,0.6,2.2,0.9c-0.1,0.3-2.5,0.1-2.5,0.1
					s3.4,0.9,4.2,1.4c-1.1-0.1-3.8,0.6-3.8,0.6s5.4,0.4,5.8,1.1C92.9,15,88.2,16,88.2,16s6.7-0.1,6.8,0.3c-0.9,0.1-6,0.9-6,0.9
					s6.3-0.2,6.4,0.4c-0.4,0-2.8,0.3-4.6,0.5c-2.1-1.3-4.3-1.7-6.6-1.2v2.4c1.1-0.5,2.1-1,2.4-0.8c-0.5,0.3-1.5,1.3-2.4,2.3v0.6
					c1.6-1.1,3.8-2.6,4-2.4c-0.6,0.5-3.1,3-4,3.9V23c1.1-0.8,4.8-3.5,5.1-3.1c-0.4,0.4-4.3,3.8-4.7,4.4c0.9-0.6,5.5-3.8,5.8-3.6
					c-0.4,0.3-4.3,3.8-4.4,4c0.6-0.5,5-3.3,5.4-3c-0.6,0.2-4,3-4.1,3.2c0.5-0.3,4.6-2.7,4.9-2.4c-0.3,0.2-2.4,1.9-3.1,2.5
					c-0.3,0-0.5,0-0.8,0c-1.5,0-2.8,0.3-4,0.8v1.7c0,0.2,0.1,0.4,0.2,0.5c0.1-0.2,0.2-0.4,0.2-0.4c0,0.1,0,0.3,0,0.5
					c0.1,0,0.2,0.1,0.3,0.1h0.8c0.1-0.5,0.3-0.8,0.4-0.8c0,0.1,0,0.4-0.1,0.8h1c0.2-0.6,0.3-1,0.4-1c0,0.1,0,0.5-0.1,1h0.9
					c0.2-0.5,0.4-0.9,0.5-0.9c-0.1,0.1-0.1,0.4-0.2,0.9h0.8c0.2-0.5,0.4-0.8,0.5-0.8c0,0.1-0.1,0.4-0.1,0.8h0.8
					c0.1-0.3,0.2-0.4,0.3-0.4c0,0.1,0,0.3,0,0.4h0.9c0.2-0.4,0.3-0.6,0.4-0.6c0,0.1-0.1,0.4-0.1,0.6h0.5c0.1-0.2,0.1-0.3,0.2-0.3
					c0,0,0,0.1,0,0.3h0.3c0-0.1,0.1-0.2,0.1-0.2s0,0.1,0.1,0.2h0.4c0-0.2,0.1-0.3,0.1-0.3s0.1,0.1,0.1,0.3h0.4
					c0-0.1,0.1-0.2,0.1-0.2s0.1,0.1,0.1,0.2H95c0-0.1,0-0.2,0.1-0.2c0,0,0.1,0.1,0.2,0.2h0.3c0-0.2,0-0.3,0-0.3
					c0-0.1,0.5,0.1,0.7,0.2l-0.1,0.1c0,0,0,0,0.1,0s0.1,0,0.1,0s0,0-0.1-0.1c0.1-0.1,0.3-0.2,0.5-0.2c0.1,0.1,0.1,0.2,0.1,0.2
					s0-0.1-0.1-0.2c0.1-0.1,0.2-0.1,0.2-0.1s0,0.2,0,0.4h0.2c0.1-0.1,0.2-0.3,0.2-0.3s0.1,0.1,0.1,0.3H98c0.1-0.1,0.1-0.3,0.2-0.3
					c0,0,0.1,0.1,0.1,0.3h0.3c0-0.2,0.1-0.3,0.1-0.3s0.1,0.1,0.1,0.3h0.4c0-0.1,0-0.2,0.1-0.2c0,0,0.1,0.1,0.1,0.2h0.3
					c0-0.1,0-0.2,0-0.3c0,0,0.1,0.1,0.2,0.3h0.5c0-0.3-0.1-0.5-0.1-0.6c0.1,0,0.2,0.3,0.4,0.6h0.9c0-0.2,0-0.3,0-0.4
					c0.1,0,0.2,0.2,0.3,0.4h0.8c0-0.4-0.1-0.7-0.1-0.8c0.1,0,0.3,0.3,0.5,0.8h0.8c-0.1-0.4-0.1-0.7-0.2-0.9c0.1,0,0.3,0.3,0.5,0.8
					c0.3-0.1,0.5-0.4,0.5-0.7v-2.5l0,0C104.3,24.5,101.1,22,100.6,21.8z M96,25.4c0-0.1-0.1-0.2-0.1-0.3c0.1,0,0.2,0,0.3,0
					c0,0.1,0,0.2-0.1,0.3C96.1,25.4,96,25.4,96,25.4z M96.1,25.7v0.1C96,25.8,96,25.8,96.1,25.7C96,25.7,96.1,25.7,96.1,25.7z
					 M96.2,24.6c0,0-0.2,0.1-0.4,0.2c0-0.1,0-0.2-0.1-0.2C96,24.6,96.2,24.6,96.2,24.6z M95.6,24.2c0-0.1,0-0.1-0.1-0.2
					c0.3,0.1,0.6,0.1,0.6,0.2C96.1,24.2,95.9,24.2,95.6,24.2z M95.4,23.6c-0.1-0.1-0.1-0.3-0.2-0.4c0.6,0.1,1.2,0.3,1.2,0.4
					C96.2,23.6,95.8,23.6,95.4,23.6z M94.9,22.5c-0.1-0.2-0.2-0.4-0.3-0.6c0.8,0.1,1.5,0.3,1.5,0.5C95.8,22.4,95.4,22.5,94.9,22.5z
					 M96.2,21.3c-0.2,0-1.1,0-2,0.1c-0.1-0.2-0.3-0.4-0.5-0.6C95,20.9,96.2,21.1,96.2,21.3z M93.3,20.3c-0.2-0.2-0.4-0.4-0.5-0.6
					c1.6,0.1,3.2,0.3,3.2,0.6C95.7,20.2,94.5,20.2,93.3,20.3z M91.5,18.6c2,0.1,4.4,0.2,4.4,0.4c-0.2,0-2,0.2-3.6,0.3
					C92.1,19,91.8,18.8,91.5,18.6z M90.9,25.2c-0.5-0.1-1-0.2-1.6-0.2c1.1-0.5,3.2-1.7,3.5-1.5C92.3,23.8,91.4,24.6,90.9,25.2z
					 M92.1,25.5c-0.3-0.1-0.6-0.2-1-0.3c1-0.5,2.4-1.2,2.6-1.1C93.4,24.4,92.7,25,92.1,25.5z M92.8,25.8c-0.1-0.1-0.3-0.1-0.5-0.2
					c0.6-0.4,1.4-0.8,1.5-0.7C93.7,25,93.3,25.4,92.8,25.8z M93,25.8c0.5-0.3,1-0.6,1.1-0.6c0.1,0.1-0.2,0.4-0.6,0.8
					C93.3,26,93.2,25.9,93,25.8z M93.6,26.1c0.4-0.3,0.9-0.7,0.9-0.6c0.1,0.1-0.2,0.4-0.5,0.8C93.9,26.3,93.8,26.2,93.6,26.1z
					 M94.7,26.7c-0.1-0.1-0.3-0.2-0.5-0.3c0.3-0.3,0.6-0.5,0.7-0.4C95,26.1,94.9,26.4,94.7,26.7z M95.4,27.2
					c-0.1-0.1-0.2-0.2-0.4-0.3c0.2-0.1,0.3-0.3,0.4-0.3l0,0l0,0C95.5,26.6,95.4,26.9,95.4,27.2z M95.9,27.6
					c-0.1-0.1-0.2-0.2-0.3-0.2c0.1,0,0.2-0.1,0.3-0.1C95.9,27.4,95.9,27.5,95.9,27.6z M95.9,27.1c-0.1,0.1-0.2,0.2-0.3,0.2
					c0,0-0.1,0-0.1-0.1c0.2-0.3,0.3-0.5,0.4-0.5l0,0C95.9,26.9,95.9,27,95.9,27.1z M96.3,28c-0.1-0.1-0.2-0.2-0.4-0.4
					c0-0.1,0.1-0.3,0.2-0.5c0.1,0.2,0.1,0.4,0.1,0.4s0-0.2,0-0.5c0.1,0,0.1,0,0.1-0.1c0.1,0.1,0.2,0.3,0.3,0.4
					c-0.1,0.2-0.2,0.5-0.2,0.5s0.1-0.1,0.2-0.3c0,0,0,0.1,0.1,0.1C96.5,27.8,96.4,27.9,96.3,28z M96.7,27.2c0-0.1,0-0.2-0.1-0.3
					c0.1,0,0.1,0,0.1,0C96.8,26.9,96.7,27,96.7,27.2z M96.8,27.6c0-0.1,0-0.1,0-0.2c0.1-0.1,0.2-0.3,0.3-0.4
					c0.1,0.1,0.2,0.2,0.3,0.2C97.1,27.3,96.9,27.5,96.8,27.6z M97.4,27.1c-0.1-0.2-0.2-0.3-0.2-0.5c0.1-0.1,0.1-0.2,0.2-0.3
					c0.2,0.1,0.4,0.3,0.6,0.5C97.8,26.8,97.6,27,97.4,27.1z M98.1,26.7c-0.2-0.3-0.4-0.6-0.5-0.8c0-0.1,0-0.1,0.1-0.2
					c0.2,0.1,0.6,0.4,0.9,0.7C98.4,26.5,98.2,26.6,98.1,26.7z M98.7,26.3c-0.4-0.4-0.8-0.9-0.7-1c0.1,0,0.7,0.3,1.2,0.7
					C99,26.1,98.8,26.2,98.7,26.3z M99.3,26c-0.5-0.4-1-0.9-1.1-0.9c0.1-0.1,0.9,0.4,1.6,0.7C99.6,25.9,99.5,25.9,99.3,26z
					 M100,25.7c-0.6-0.5-1.3-1.2-1.7-1.4c0.1-0.1,1.6,0.6,2.6,1.1C100.6,25.5,100.3,25.6,100,25.7z M101.2,25.3
					c-0.6-0.5-1.5-1.4-1.9-1.8c0.3-0.2,2.3,0.9,3.4,1.5C102.2,25.1,101.7,25.2,101.2,25.3z M104.4,24.9c-0.5,0-1,0-1.5,0.1
					c-0.7-0.6-2.8-2.3-3-2.4c0.2-0.3,4,1.9,4.8,2.3C104.6,24.9,104.5,24.9,104.4,24.9z"/>
			</g>
		</g>
	</g>
</g>
<g>
	<g>
		<circle class="st1" cx="176.5" cy="47.3" r="7.8"/>
		<g>
			<path class="st2" d="M177.7,49.7h-2.5l-0.5,1.8h-2.2l2.8-8.4h2.5l2.7,8.4h-2.3L177.7,49.7z M176.6,44.8L176.6,44.8l-0.9,3.3h1.7
				L176.6,44.8z"/>
		</g>
	</g>
	<g class="st3">
		<path class="st4" d="M190.5,44.6l2.3,7h-0.9l-0.6-1.8h-2.7l-0.6,1.8h-0.9l2.3-7H190.5z M191.1,49l-1.1-3.5h0l-1.1,3.5H191.1z"/>
		<path class="st4" d="M193.3,48.4h2.2v0.7h-2.2V48.4z"/>
		<path class="st4" d="M196.5,44.6h1.5c0.9,0,1.5,0.2,1.9,0.5c0.6,0.4,1.3,1.3,1.3,2.9c0,2-1,3.6-3.6,3.6h-1.1V44.6z M197.4,50.8
			h0.5c1.5,0,2.3-1,2.3-2.8c0-1.5-0.6-2.6-2.3-2.6h-0.5V50.8z"/>
		<path class="st4" d="M204,46.4c1.3,0,2,1,2,2.6c0,1.6-0.7,2.6-2,2.6c-1.3,0-2-1-2-2.6C201.9,47.4,202.6,46.4,204,46.4z M204,50.9
			c0.8,0,1.2-0.7,1.2-1.9S204.8,47,204,47s-1.2,0.7-1.2,1.9S203.2,50.9,204,50.9z"/>
		<path class="st4" d="M210,47.3c-0.3-0.2-0.6-0.2-1-0.2c-0.8,0-1.4,0.6-1.4,1.9c0,1.2,0.6,1.8,1.4,1.8c0.4,0,0.7-0.1,1-0.3l0,0.8
			c-0.2,0.1-0.7,0.2-1.1,0.2c-1.5,0-2.3-1.1-2.3-2.6c0-1.6,0.9-2.7,2.3-2.7c0.3,0,0.7,0.1,1,0.2L210,47.3z"/>
		<path class="st4" d="M213.5,46.4h1l-2,2.3l2.2,2.8h-1l-1.8-2.6h0v2.6h-0.8V44h0.8v4.4L213.5,46.4z"/>
	</g>
</g>
<g>
	<g>
		
			<ellipse transform="matrix(0.2298 -0.9732 0.9732 0.2298 152.612 287.4336)" class="st1" cx="257.9" cy="47.3" rx="7.8" ry="7.8"/>
		<g>
			<path class="st2" d="M255.1,43.1h3.2c1.8,0,2.6,0.7,2.6,2s-0.7,1.8-1.6,2l0,0c1,0.2,1.7,0.9,1.7,2c0,1.7-1.1,2.4-2.7,2.4h-3.2
				L255.1,43.1L255.1,43.1z M257.7,46.4c0.6,0,1-0.2,1-0.9c0-0.6-0.4-0.9-0.9-0.9h-0.6v1.8C257.2,46.4,257.7,46.4,257.7,46.4z
				 M257.9,49.9c0.6,0,1-0.3,1-1c0-0.6-0.3-1-0.9-1h-0.7v2H257.9z"/>
		</g>
	</g>
	<g class="st3">
		<path class="st4" d="M269.5,44.6h1.8c1.3,0,1.9,0.7,1.9,1.8c0,0.8-0.4,1.3-1.1,1.5v0c0.8,0.1,1.3,0.7,1.3,1.7c0,1-0.7,1.9-2.2,1.9
			h-1.7V44.6z M270.4,47.6h0.5c1,0,1.4-0.4,1.4-1.2c0-0.6-0.4-1.1-1.3-1.1h-0.7V47.6z M270.4,50.8h0.7c0.9,0,1.3-0.6,1.3-1.2
			c0-0.7-0.4-1.3-1.2-1.3h-0.8V50.8z"/>
		<path class="st4" d="M274.4,48.4h2.2v0.7h-2.2V48.4z"/>
		<path class="st4" d="M277.6,44.6h1.5c0.9,0,1.5,0.2,1.9,0.5c0.6,0.4,1.3,1.3,1.3,2.9c0,2-1,3.6-3.6,3.6h-1.1V44.6z M278.5,50.8
			h0.5c1.5,0,2.3-1,2.3-2.8c0-1.5-0.6-2.6-2.3-2.6h-0.5V50.8z"/>
		<path class="st4" d="M285.1,46.4c1.3,0,2,1,2,2.6c0,1.6-0.7,2.6-2,2.6s-2-1-2-2.6C283,47.4,283.7,46.4,285.1,46.4z M285.1,50.9
			c0.8,0,1.2-0.7,1.2-1.9s-0.4-1.9-1.2-1.9c-0.8,0-1.2,0.7-1.2,1.9S284.3,50.9,285.1,50.9z"/>
		<path class="st4" d="M291.1,47.3c-0.3-0.2-0.6-0.2-1-0.2c-0.8,0-1.4,0.6-1.4,1.9c0,1.2,0.6,1.8,1.4,1.8c0.4,0,0.7-0.1,1-0.3l0,0.8
			c-0.2,0.1-0.7,0.2-1.1,0.2c-1.5,0-2.3-1.1-2.3-2.6c0-1.6,0.9-2.7,2.3-2.7c0.3,0,0.7,0.1,1,0.2L291.1,47.3z"/>
		<path class="st4" d="M294.6,46.4h1l-2,2.3l2.2,2.8h-1l-1.8-2.6h0v2.6H292V44h0.8v4.4L294.6,46.4z"/>
	</g>
</g>
<g>
	<g>
		<circle class="st1" cx="334.4" cy="47.3" r="7.8"/>
		<g>
			<path class="st2" d="M336.8,51.3c-0.7,0.2-1.4,0.3-2.1,0.3c-2.4,0-4.2-1.5-4.2-4.4c0-2.5,1.4-4.3,4.2-4.3c1.1,0,1.8,0.3,2,0.4
				l-0.1,1.8c-0.3-0.2-0.9-0.5-1.6-0.5c-1.4,0-2.1,0.9-2.1,2.6c0,1.4,0.8,2.5,2.2,2.5c0.8,0,1.4-0.3,1.6-0.5L336.8,51.3z"/>
		</g>
	</g>
	<g class="st3">
		<path class="st4" d="M350.3,51.4c-0.4,0.1-0.9,0.2-1.3,0.2c-2.2,0-3.1-1.7-3.1-3.6c0-2.2,1.3-3.5,3.1-3.5c0.5,0,1,0.1,1.3,0.2v0.9
			c-0.4-0.2-0.8-0.3-1.3-0.3c-1.1,0-2.2,0.9-2.2,2.6c0,1.8,0.7,3,2.2,3c0.4,0,0.9-0.1,1.2-0.3V51.4z"/>
		<path class="st4" d="M351.2,48.4h2.2v0.7h-2.2V48.4z"/>
		<path class="st4" d="M354.4,44.6h1.5c0.9,0,1.5,0.2,1.9,0.5c0.6,0.4,1.3,1.3,1.3,2.9c0,2-1,3.6-3.6,3.6h-1.1V44.6z M355.3,50.8
			h0.5c1.5,0,2.3-1,2.3-2.8c0-1.5-0.6-2.6-2.3-2.6h-0.5V50.8z"/>
		<path class="st4" d="M361.9,46.4c1.3,0,2,1,2,2.6c0,1.6-0.7,2.6-2,2.6s-2-1-2-2.6C359.8,47.4,360.5,46.4,361.9,46.4z M361.9,50.9
			c0.8,0,1.2-0.7,1.2-1.9s-0.4-1.9-1.2-1.9c-0.8,0-1.2,0.7-1.2,1.9S361.1,50.9,361.9,50.9z"/>
		<path class="st4" d="M367.9,47.3c-0.3-0.2-0.6-0.2-1-0.2c-0.8,0-1.4,0.6-1.4,1.9c0,1.2,0.6,1.8,1.4,1.8c0.4,0,0.7-0.1,1-0.3l0,0.8
			c-0.2,0.1-0.7,0.2-1.1,0.2c-1.5,0-2.3-1.1-2.3-2.6c0-1.6,0.9-2.7,2.3-2.7c0.3,0,0.7,0.1,1,0.2L367.9,47.3z"/>
		<path class="st4" d="M371.4,46.4h1l-2,2.3l2.2,2.8h-1l-1.8-2.6h0v2.6h-0.8V44h0.8v4.4L371.4,46.4z"/>
	</g>
</g>
<g>
	<g class="st3">
		<path class="st4" d="M423,44.6h1.5c0.9,0,1.5,0.2,1.9,0.5c0.6,0.4,1.3,1.3,1.3,2.9c0,2-1,3.6-3.6,3.6H423V44.6z M423.9,50.8h0.5
			c1.5,0,2.3-1,2.3-2.8c0-1.5-0.6-2.6-2.3-2.6h-0.5V50.8z"/>
		<path class="st4" d="M428.4,48.4h2.2v0.7h-2.2V48.4z"/>
		<path class="st4" d="M431.7,44.6h1.5c0.9,0,1.5,0.2,1.9,0.5c0.6,0.4,1.3,1.3,1.3,2.9c0,2-1,3.6-3.6,3.6h-1.1V44.6z M432.5,50.8
			h0.5c1.5,0,2.3-1,2.3-2.8c0-1.5-0.6-2.6-2.3-2.6h-0.5V50.8z"/>
		<path class="st4" d="M439.1,46.4c1.3,0,2,1,2,2.6c0,1.6-0.7,2.6-2,2.6c-1.3,0-2-1-2-2.6C437.1,47.4,437.8,46.4,439.1,46.4z
			 M439.1,50.9c0.8,0,1.2-0.7,1.2-1.9s-0.4-1.9-1.2-1.9c-0.8,0-1.2,0.7-1.2,1.9S438.3,50.9,439.1,50.9z"/>
		<path class="st4" d="M445.2,47.3c-0.3-0.2-0.6-0.2-1-0.2c-0.8,0-1.4,0.6-1.4,1.9c0,1.2,0.6,1.8,1.4,1.8c0.4,0,0.7-0.1,1-0.3l0,0.8
			c-0.2,0.1-0.7,0.2-1.1,0.2c-1.5,0-2.3-1.1-2.3-2.6c0-1.6,0.9-2.7,2.3-2.7c0.3,0,0.7,0.1,1,0.2L445.2,47.3z"/>
		<path class="st4" d="M448.6,46.4h1l-2,2.3l2.2,2.8h-1l-1.8-2.6h0v2.6h-0.8V44h0.8v4.4L448.6,46.4z"/>
	</g>
	<g>
		<circle class="st1" cx="411.7" cy="47.3" r="7.8"/>
		<g>
			<path class="st2" d="M408.8,43h3.2c2.4,0,3.8,1.7,3.8,4.2c0,2.9-1.5,4.3-4.1,4.3h-2.8V43H408.8z M411,49.9h0.5
				c1.3,0,1.9-0.9,1.9-2.6c0-2.2-1-2.6-2.2-2.6H411V49.9z"/>
		</g>
	</g>
</g>
<g>
	<g class="st3">
		<path class="st4" d="M501.3,44.6h3.2v0.8h-2.4v2.2h2.3v0.8h-2.3v2.5h2.5v0.8h-3.4V44.6z"/>
		<path class="st4" d="M505.5,48.4h2.2v0.7h-2.2V48.4z"/>
		<path class="st4" d="M508.8,44.6h1.5c0.9,0,1.5,0.2,1.9,0.5c0.6,0.4,1.3,1.3,1.3,2.9c0,2-1,3.6-3.6,3.6h-1.1V44.6z M509.6,50.8
			h0.5c1.5,0,2.3-1,2.3-2.8c0-1.5-0.6-2.6-2.3-2.6h-0.5V50.8z"/>
		<path class="st4" d="M516.2,46.4c1.3,0,2,1,2,2.6c0,1.6-0.7,2.6-2,2.6c-1.3,0-2-1-2-2.6C514.2,47.4,514.9,46.4,516.2,46.4z
			 M516.2,50.9c0.8,0,1.2-0.7,1.2-1.9S517,47,516.2,47s-1.2,0.7-1.2,1.9S515.4,50.9,516.2,50.9z"/>
		<path class="st4" d="M522.2,47.3c-0.3-0.2-0.6-0.2-1-0.2c-0.8,0-1.4,0.6-1.4,1.9c0,1.2,0.6,1.8,1.4,1.8c0.4,0,0.7-0.1,1-0.3l0,0.8
			c-0.2,0.1-0.7,0.2-1.1,0.2c-1.5,0-2.3-1.1-2.3-2.6c0-1.6,0.9-2.7,2.3-2.7c0.3,0,0.7,0.1,1,0.2L522.2,47.3z"/>
		<path class="st4" d="M525.7,46.4h1l-2,2.3l2.2,2.8h-1L524,49h0v2.6h-0.8V44h0.8v4.4L525.7,46.4z"/>
	</g>
	<g>
		<circle class="st1" cx="489.7" cy="47.3" r="7.8"/>
		<g>
			<path class="st2" d="M487.1,43h5.1v1.7h-2.9v1.6h2.7V48h-2.7v1.8h3v1.7h-5.2V43z"/>
		</g>
	</g>
</g>
<g>
	<g class="st3">
		<path class="st4" d="M570.3,44.6h3.1v0.8h-2.2v2.2h2.1v0.8h-2.1v3.2h-0.9V44.6z"/>
		<path class="st4" d="M574.2,48.4h2.2v0.7h-2.2V48.4z"/>
		<path class="st4" d="M577.4,44.6h1.5c0.9,0,1.5,0.2,1.9,0.5c0.6,0.4,1.3,1.3,1.3,2.9c0,2-1,3.6-3.6,3.6h-1.1V44.6z M578.3,50.8
			h0.5c1.5,0,2.3-1,2.3-2.8c0-1.5-0.6-2.6-2.3-2.6h-0.5V50.8z"/>
		<path class="st4" d="M584.9,46.4c1.3,0,2,1,2,2.6c0,1.6-0.7,2.6-2,2.6c-1.3,0-2-1-2-2.6C582.9,47.4,583.6,46.4,584.9,46.4z
			 M584.9,50.9c0.8,0,1.2-0.7,1.2-1.9s-0.4-1.9-1.2-1.9c-0.8,0-1.2,0.7-1.2,1.9S584.1,50.9,584.9,50.9z"/>
		<path class="st4" d="M590.9,47.3c-0.3-0.2-0.6-0.2-1-0.2c-0.8,0-1.4,0.6-1.4,1.9c0,1.2,0.6,1.8,1.4,1.8c0.4,0,0.7-0.1,1-0.3l0,0.8
			c-0.2,0.1-0.7,0.2-1.1,0.2c-1.5,0-2.3-1.1-2.3-2.6c0-1.6,0.9-2.7,2.3-2.7c0.3,0,0.7,0.1,1,0.2L590.9,47.3z"/>
		<path class="st4" d="M594.4,46.4h1l-2,2.3l2.2,2.8h-1l-1.8-2.6h0v2.6h-0.8V44h0.8v4.4L594.4,46.4z"/>
	</g>
	<g>
		<circle class="st1" cx="558.5" cy="47.3" r="7.8"/>
		<g>
			<path class="st2" d="M556.1,43h4.9v1.7h-2.7v1.7h2.6v1.7h-2.6v3.4h-2.2V43z"/>
		</g>
	</g>
</g>
</svg>
