<svg width="223" height="76" viewBox="0 0 223 76" fill="none" xmlns="http://www.w3.org/2000/svg">
<path d="M141.28 0L138.701 17.6128L152.037 10.0645L142.979 18.9967L172.669 20.4435L141.091 22.2048L144.74 31.137L136.374 24.0919L130.901 37.0499L132.474 24.1548L118.635 30.4451L129.266 22.5822L74.2256 20.6951L130.587 19.9403L123.416 10.2532L133.921 17.2983L141.28 0Z" fill="white"/>
<path d="M25.8531 56.1091H18.5563L11.7628 36.6092L6.91927 56.1091H-6.10352e-05L6.98218 28.1802H16.2289L21.8902 44.1575L25.8531 28.1802H32.7724L25.8531 56.1091Z" fill="white"/>
<path d="M43.8434 53.8447C43.2773 54.2222 42.7741 54.5367 42.2709 54.8512C41.8305 55.1657 41.2015 55.4802 40.5096 55.7318C39.8176 56.0464 39.1257 56.2351 38.4967 56.3609C37.8677 56.4867 36.987 56.6125 35.9177 56.6125C33.9048 56.6125 32.3951 55.9835 31.3886 54.7254C30.3822 53.4673 30.0677 51.8948 30.5709 50.0077C30.9483 48.4351 31.6403 47.177 32.5209 46.2335C33.4644 45.2899 34.5967 44.5351 35.9806 43.969C37.4273 43.4028 39.0628 42.9625 40.887 42.7738C42.7112 42.5222 44.6612 42.3964 46.7999 42.2706V42.1448C47.1144 41.0125 46.7999 40.1948 45.9821 39.7545C45.1644 39.3142 43.8434 39.0625 41.9563 39.0625C41.1386 39.0625 40.1322 39.1883 38.937 39.5029C37.7418 39.7545 36.5467 40.1319 35.3515 40.5722H34.7225L35.9806 35.4771C36.7354 35.2884 37.9306 35.0367 39.566 34.7851C41.2015 34.5335 42.837 34.4077 44.4096 34.4077C48.3096 34.4077 51.0144 35.0367 52.5241 36.2319C54.0337 37.4271 54.474 39.2512 53.845 41.7674L50.2595 56.1093H43.2773L43.8434 53.8447ZM44.6612 50.5738L45.7305 46.1706C44.4725 46.2964 43.5289 46.3593 42.7112 46.4851C41.9563 46.548 41.2015 46.7367 40.3838 46.9883C39.6918 47.177 39.1257 47.4915 38.6854 47.869C38.2451 48.2464 37.9306 48.8125 37.7418 49.5044C37.4902 50.5109 37.616 51.1399 38.1193 51.5173C38.6225 51.8948 39.3773 52.0835 40.5096 52.0835C41.1386 52.0835 41.7676 51.9577 42.5225 51.706C43.3402 51.4544 43.9692 51.077 44.6612 50.5738Z" fill="white"/>
<path d="M74.2255 56.1095H67.1175L67.6836 53.7821C66.2368 54.7257 64.9158 55.4805 63.7836 55.9208C62.6513 56.4241 61.3304 56.6757 59.9465 56.6757C57.682 56.6757 56.1094 56.0466 55.1659 54.7257C54.2223 53.4047 54.0965 51.3918 54.7256 48.7499L58.1223 35.037H65.2933L62.7142 45.4789C62.4626 46.5483 62.2739 47.4289 62.1481 48.1209C62.0223 48.8128 62.0223 49.3789 62.1481 49.8821C62.2739 50.3225 62.5255 50.637 62.903 50.8886C63.2804 51.1402 63.9094 51.2031 64.7271 51.2031C65.2304 51.2031 65.8594 51.0773 66.6142 50.8886C67.3691 50.637 68.061 50.3854 68.7529 49.945L72.4642 34.9741H79.5723L74.2255 56.1095Z" fill="white"/>
<path d="M86.2399 56.4871C83.3464 56.4871 81.3964 55.9209 80.3271 54.8516C79.2577 53.7822 79.069 51.9581 79.698 49.4419L82.1512 39.5662H79.4464L80.5787 34.9742H83.2835L84.7932 28.9355H91.9012L90.3915 34.9742H97.248L96.1157 39.5662H89.2593L87.3722 47.0516C87.1835 47.8065 87.0577 48.4355 86.9319 49.0016C86.8061 49.5677 86.8061 50.071 86.869 50.5113C86.9319 50.9516 87.1835 51.2661 87.6238 51.5806C88.0641 51.8322 88.6932 51.9581 89.6367 51.9581C90.0141 51.9581 90.5173 51.8952 91.2093 51.7064C91.8383 51.5806 92.3415 51.3919 92.5931 51.2661H93.2222L92.0899 55.9209C91.2722 56.1097 90.3915 56.2355 89.5109 56.3613C88.5674 56.4871 87.498 56.4871 86.2399 56.4871Z" fill="white"/>
<path d="M101.148 56.1094H94.04L99.3239 35.0369H106.432L101.148 56.1094ZM107.313 32.0175H99.8271L101.085 26.9224H108.571L107.313 32.0175Z" fill="white"/>
<path d="M116.748 56.6755C114.861 56.6755 113.225 56.4868 111.779 56.0464C110.332 55.6061 109.137 54.9142 108.193 54.0335C107.313 53.09 106.684 51.9577 106.369 50.5739C106.054 49.19 106.18 47.5545 106.621 45.6674C107.124 43.6545 107.879 41.9562 108.948 40.5094C110.017 39.1255 111.213 37.9304 112.596 37.0497C113.98 36.1691 115.427 35.5401 117.063 35.0997C118.698 34.6594 120.333 34.4707 122.032 34.4707C123.29 34.4707 124.485 34.5965 125.68 34.8481C126.875 35.0997 128.008 35.5401 129.14 36.1062L127.756 41.7046H126.938C126.687 41.4529 126.435 41.2013 126.121 40.8868C125.806 40.5723 125.429 40.3207 124.988 40.0691C124.548 39.8175 124.045 39.5658 123.416 39.3771C122.787 39.1884 122.095 39.1255 121.34 39.1255C119.516 39.1255 118.006 39.6917 116.685 40.8868C115.427 42.082 114.483 43.6545 114.043 45.6045C113.54 47.7432 113.666 49.3158 114.483 50.3223C115.301 51.3916 116.559 51.8948 118.321 51.8948C119.201 51.8948 120.019 51.8319 120.711 51.6432C121.403 51.4545 122.095 51.2029 122.598 50.9513C123.164 50.6997 123.604 50.3852 124.045 50.1336C124.422 49.8819 124.8 49.6303 125.114 49.3787H126.058L124.674 54.9771C124.233 55.1658 123.73 55.3545 123.101 55.5432C122.535 55.7319 121.906 55.9206 121.34 56.0464C120.585 56.2351 119.956 56.361 119.327 56.4239C118.572 56.6126 117.754 56.6755 116.748 56.6755Z" fill="white"/>
<path d="M136.814 56.6126C134.487 56.6126 132.537 56.4239 130.901 55.9836C129.266 55.5433 127.756 55.0401 126.435 54.4739L128.071 47.8062H128.762C129.958 49.0014 131.404 49.882 133.103 50.5739C134.738 51.203 136.437 51.5175 138.198 51.5175C138.638 51.5175 139.204 51.4546 139.959 51.3917C140.714 51.3288 141.28 51.1401 141.783 50.9514C142.35 50.7627 142.916 50.4481 143.356 50.0707C143.796 49.6933 144.111 49.1901 144.3 48.5611C144.488 47.8691 144.3 47.303 143.859 46.8627C143.356 46.4223 142.727 46.1078 141.972 45.9191C141.029 45.6675 139.959 45.4159 138.827 45.2272C137.695 44.9756 136.688 44.724 135.745 44.4095C133.606 43.6546 132.159 42.6482 131.467 41.3272C130.775 40.0062 130.65 38.4337 131.153 36.4837C131.782 33.8417 133.543 31.7659 136.311 30.1305C139.079 28.495 142.287 27.6772 145.872 27.6772C147.696 27.6772 149.395 27.866 151.093 28.1805C152.791 28.495 154.238 28.9982 155.496 29.5643L153.924 35.9175H153.232C152.351 35.0369 151.156 34.2821 149.709 33.653C148.262 33.024 146.69 32.7095 144.991 32.7095C144.3 32.7095 143.733 32.7724 143.167 32.8353C142.601 32.8982 142.035 33.0869 141.406 33.3385C140.903 33.5272 140.4 33.8417 139.959 34.2192C139.519 34.5966 139.204 35.0369 139.141 35.5401C138.953 36.2321 139.079 36.7982 139.519 37.2385C139.959 37.6788 140.903 38.0562 142.412 38.3708C143.356 38.5595 144.3 38.8111 145.18 38.9998C146.061 39.1885 147.004 39.503 148.011 39.8175C149.961 40.5095 151.282 41.453 151.974 42.6482C152.729 43.8433 152.791 45.4159 152.351 47.303C151.659 50.0707 149.898 52.3352 147.13 54.0336C144.237 55.732 140.84 56.6126 136.814 56.6126Z" fill="white"/>
<path d="M162.101 56.4871C159.207 56.4871 157.257 55.9209 156.188 54.8516C155.119 53.7822 154.93 51.9581 155.559 49.4419L158.012 39.5662H155.307L156.44 34.9742H159.145L160.654 28.9355H167.762L166.253 34.9742H173.109L171.977 39.5662H165.12L163.233 47.0516C163.045 47.8065 162.919 48.4355 162.793 49.0016C162.667 49.5677 162.667 50.071 162.73 50.5113C162.793 50.9516 163.045 51.2661 163.485 51.5806C163.925 51.8322 164.554 51.9581 165.498 51.9581C165.875 51.9581 166.378 51.8952 167.07 51.7064C167.699 51.5806 168.203 51.3919 168.454 51.2661H169.083L167.951 55.9209C167.133 56.1097 166.253 56.2355 165.372 56.3613C164.428 56.4871 163.359 56.4871 162.101 56.4871Z" fill="white"/>
<path d="M182.23 53.8447C181.664 54.2222 181.161 54.5367 180.657 54.8512C180.217 55.1657 179.588 55.4802 178.896 55.7318C178.204 56.0464 177.512 56.2351 176.883 56.3609C176.254 56.4867 175.374 56.6125 174.304 56.6125C172.291 56.6125 170.782 55.9835 169.775 54.7254C168.769 53.4673 168.454 51.8948 168.957 50.0077C169.335 48.4351 170.027 47.177 170.907 46.2335C171.851 45.2899 172.983 44.5351 174.367 43.969C175.814 43.4028 177.449 42.9625 179.274 42.7738C181.098 42.5222 183.048 42.3964 185.186 42.2706V42.1448C185.501 41.0125 185.186 40.1948 184.369 39.7545C183.551 39.3142 182.23 39.0625 180.343 39.0625C179.525 39.0625 178.519 39.1883 177.324 39.5029C176.128 39.7545 174.933 40.1319 173.738 40.5722H173.109L174.367 35.4771C175.122 35.2884 176.317 35.0367 177.953 34.7851C179.588 34.5335 181.224 34.4077 182.796 34.4077C186.696 34.4077 189.401 35.0367 190.911 36.2319C192.42 37.4271 192.861 39.2512 192.232 41.7674L188.646 56.1093H181.664L182.23 53.8447ZM183.048 50.5738L184.117 46.1706C182.859 46.2964 181.916 46.3593 181.098 46.4851C180.343 46.548 179.588 46.7367 178.77 46.9883C178.078 47.177 177.512 47.4915 177.072 47.869C176.632 48.2464 176.317 48.8125 176.128 49.5044C175.877 50.5109 176.003 51.1399 176.506 51.5173C177.009 51.8948 177.764 52.0835 178.896 52.0835C179.525 52.0835 180.217 51.9577 180.909 51.706C181.727 51.4544 182.356 51.077 183.048 50.5738Z" fill="white"/>
<path d="M211.732 41.2013H211.165C210.914 41.1384 210.536 41.0755 210.033 41.0126C209.53 40.9497 208.964 40.9497 208.335 40.9497C207.58 40.9497 206.762 41.0755 205.944 41.2643C205.064 41.453 204.246 41.7046 203.365 41.9562L199.843 56.0465H192.735L198.019 34.974H205.127L204.372 37.9933C204.749 37.7417 205.315 37.3643 206.007 36.9239C206.699 36.4836 207.265 36.1691 207.832 35.9175C208.398 35.603 209.09 35.3514 209.782 35.1627C210.536 34.974 211.165 34.8481 211.794 34.8481C212.046 34.8481 212.298 34.8481 212.549 34.8481C212.801 34.8481 213.053 34.8481 213.304 34.911L211.732 41.2013Z" fill="white"/>
<path d="M132.033 63.7207H138.827C140.399 63.7207 143.167 64.161 143.167 66.4255C143.167 67.9981 141.595 69.1933 139.141 69.382V69.4449C140.903 69.6336 142.098 70.4513 142.098 71.7094C142.098 74.2255 139.33 75.3578 135.807 75.4207L128.825 75.4836L132.033 63.7207ZM133.48 73.282H134.549C136.625 73.282 138.009 72.8416 138.009 71.7094C138.009 70.7029 137.066 70.5142 135.178 70.5142H134.172L133.48 73.282ZM134.801 68.3755H136.311C138.009 68.3755 139.016 67.8723 139.016 67.0546C139.016 66.111 138.009 65.9852 136.437 65.9852H135.367L134.801 68.3755Z" fill="white"/>
<path d="M150.967 75.6725C145.998 75.6725 144.174 73.2822 144.174 70.8919C144.174 66.4258 147.256 63.5322 153.106 63.5322C158.075 63.5322 159.899 65.9225 159.899 68.3129C159.899 72.779 156.88 75.6725 150.967 75.6725ZM152.854 65.8596C149.709 65.8596 148.388 68.6903 148.388 70.6403C148.388 72.1499 149.143 73.3451 151.219 73.3451C154.364 73.3451 155.685 70.5145 155.685 68.5645C155.685 67.1177 154.993 65.8596 152.854 65.8596Z" fill="white"/>
<path d="M167.196 63.7202H171.977L174.304 75.4831H170.467L170.09 72.967H164.554L162.856 75.4831H158.767L167.196 63.7202ZM169.083 66.1734L166.001 70.7654H169.649L169.083 66.1734Z" fill="white"/>
<path d="M179.022 66.0476H175.185L175.814 63.7202H187.639L187.01 66.0476H183.173L180.531 75.4831H176.38L179.022 66.0476Z" fill="white"/>
<path d="M198.27 66.4258C197.453 66.1112 196.383 65.8596 194.873 65.8596C193.238 65.8596 191.917 66.0483 191.917 66.9919C191.917 68.6274 197.893 68.0612 197.893 71.5838C197.893 74.8548 193.93 75.6725 190.407 75.6725C188.835 75.6725 187.011 75.358 185.69 75.0435L186.633 72.6532C187.451 73.0306 189.086 73.3451 190.407 73.3451C191.665 73.3451 193.678 73.1564 193.678 71.9612C193.678 70.0741 187.703 70.7661 187.703 67.4951C187.703 64.4758 191.162 63.5322 194.559 63.5322C196.446 63.5322 198.207 63.658 199.277 64.0355L198.27 66.4258Z" fill="white"/>
<path d="M222.74 37.4274C222.74 38.371 222.425 39.1887 221.733 39.8807C221.041 40.5726 220.223 40.8871 219.28 40.8871C218.336 40.8871 217.519 40.5726 216.827 39.8807C216.135 39.1887 215.82 38.371 215.82 37.4274C215.82 36.4839 216.135 35.6662 216.827 34.9742C217.519 34.2823 218.336 33.9678 219.28 33.9678C220.223 33.9678 221.041 34.2823 221.733 34.9742C222.362 35.6662 222.74 36.4839 222.74 37.4274ZM222.299 37.4274C222.299 36.6097 221.985 35.9178 221.419 35.2887C220.852 34.7226 220.161 34.4081 219.343 34.4081C218.525 34.4081 217.833 34.7226 217.267 35.2887C216.701 35.8549 216.386 36.5468 216.386 37.4274C216.386 38.3081 216.701 38.9371 217.267 39.5661C217.833 40.1323 218.525 40.4468 219.343 40.4468C220.161 40.4468 220.852 40.1323 221.419 39.5661C221.985 39 222.299 38.2452 222.299 37.4274ZM221.293 39.1887H220.412L219.28 37.8049H218.777V39.1887H218.148V35.5403H219.28C219.531 35.5403 219.72 35.5403 219.846 35.5403C219.972 35.5403 220.161 35.6033 220.286 35.6662C220.475 35.7291 220.538 35.8549 220.601 35.9807C220.664 36.1065 220.727 36.2952 220.727 36.4839C220.727 36.7355 220.664 36.9871 220.538 37.1129C220.412 37.3016 220.223 37.4274 219.972 37.4903L221.293 39.1887ZM219.972 36.6097C219.972 36.4839 219.972 36.421 219.909 36.3581C219.909 36.2952 219.846 36.2323 219.72 36.1694C219.657 36.1065 219.594 36.1065 219.469 36.1065C219.406 36.1065 219.28 36.1065 219.154 36.1065H218.777V37.3016H219.154C219.28 37.3016 219.406 37.3016 219.531 37.2387C219.657 37.2387 219.72 37.1758 219.783 37.1129C219.846 37.05 219.909 36.9871 219.909 36.9242C219.972 36.7984 219.972 36.7355 219.972 36.6097Z" fill="white"/>
</svg>
