<svg width="458" height="156" viewBox="0 0 458 156" fill="none" xmlns="http://www.w3.org/2000/svg">
<path d="M290.502 0L285.199 36.2158L312.62 20.6947L293.994 39.0613L355.044 42.0362L290.114 45.6577L297.616 64.0243L280.413 49.538L269.161 76.1824L272.394 49.6673L243.939 62.6015L265.798 46.4338L152.624 42.5535L268.514 41.0014L253.769 21.0827L275.369 35.5691L290.502 0Z" fill="#DEB406"/>
<path d="M53.1596 115.373H38.1559L24.187 75.2769L14.2276 115.373H0L14.357 57.9451H33.3702L45.011 90.7979L53.1596 57.9451H67.3872L53.1596 115.373Z" fill="black"/>
<path d="M90.1514 110.716C88.9873 111.492 87.9526 112.139 86.9178 112.786C86.0124 113.433 84.719 114.079 83.2962 114.597C81.8735 115.243 80.4507 115.631 79.1573 115.89C77.8639 116.149 76.0531 116.407 73.8543 116.407C69.7153 116.407 66.6111 115.114 64.5416 112.527C62.4722 109.94 61.8255 106.707 62.8602 102.827C63.6363 99.593 65.059 97.0062 66.8698 95.0661C68.8099 93.1259 71.1381 91.5738 73.9836 90.4097C76.9585 89.2457 80.3214 88.3403 84.0723 87.9522C87.8232 87.4349 91.8328 87.1762 96.2304 86.9175V86.6588C96.8771 84.3307 96.2304 82.6492 94.549 81.7438C92.8676 80.8384 90.1514 80.3211 86.2711 80.3211C84.5897 80.3211 82.5202 80.5798 80.0627 81.2265C77.6052 81.7438 75.1477 82.5199 72.6902 83.4253H71.3968L73.9836 72.9486C75.5357 72.5605 77.9932 72.0432 81.3561 71.5258C84.719 71.0084 88.0819 70.7498 91.3154 70.7498C99.3347 70.7498 104.896 72.0432 108.001 74.5007C111.105 76.9582 112.01 80.7091 110.717 85.8828L103.344 115.373H88.9873L90.1514 110.716ZM91.8328 103.991L94.0316 94.9367C91.4448 95.1954 89.5047 95.3247 87.8232 95.5834C86.2711 95.7128 84.719 96.1008 83.0376 96.6182C81.6148 97.0062 80.4507 97.6529 79.5453 98.4289C78.6399 99.205 77.9932 100.369 77.6052 101.792C77.0878 103.861 77.3465 105.155 78.3812 105.931C79.416 106.707 80.9681 107.095 83.2962 107.095C84.5897 107.095 85.8831 106.836 87.4352 106.319C89.1166 105.801 90.41 105.025 91.8328 103.991Z" fill="black"/>
<path d="M152.624 115.373H138.008L139.172 110.587C136.197 112.527 133.481 114.08 131.153 114.985C128.825 116.02 126.108 116.537 123.263 116.537C118.607 116.537 115.373 115.244 113.433 112.527C111.493 109.811 111.234 105.672 112.528 100.24L119.512 72.0434H134.257L128.954 93.5142C128.437 95.713 128.049 97.5238 127.79 98.9465C127.531 100.369 127.531 101.533 127.79 102.568C128.049 103.474 128.566 104.12 129.342 104.638C130.118 105.155 131.411 105.284 133.093 105.284C134.128 105.284 135.421 105.026 136.973 104.638C138.525 104.12 139.948 103.603 141.371 102.697L149.002 71.9141H163.618L152.624 115.373Z" fill="black"/>
<path d="M177.328 116.149C171.378 116.149 167.369 114.985 165.17 112.786C162.971 110.587 162.583 106.836 163.876 101.663L168.921 81.3559H163.359L165.687 71.9139H171.249L174.353 59.4971H188.969L185.864 71.9139H199.963L197.635 81.3559H183.536L179.656 96.7476C179.268 98.2997 179.009 99.5931 178.751 100.757C178.492 101.921 178.492 102.956 178.621 103.861C178.751 104.767 179.268 105.413 180.173 106.06C181.079 106.578 182.372 106.836 184.312 106.836C185.088 106.836 186.123 106.707 187.546 106.319C188.839 106.06 189.874 105.672 190.391 105.413H191.685L189.357 114.985C187.675 115.373 185.864 115.632 184.054 115.89C182.114 116.149 179.915 116.149 177.328 116.149Z" fill="black"/>
<path d="M207.982 115.373H193.366L204.231 72.0433H218.847L207.982 115.373ZM220.657 65.8349H205.266L207.853 55.3582H223.244L220.657 65.8349Z" fill="black"/>
<path d="M240.059 116.537C236.179 116.537 232.816 116.149 229.841 115.243C226.866 114.338 224.408 112.915 222.468 111.105C220.657 109.164 219.364 106.836 218.717 103.991C218.071 101.145 218.329 97.7823 219.235 93.902C220.269 89.7631 221.822 86.2708 224.02 83.296C226.219 80.4505 228.677 77.993 231.522 76.1822C234.368 74.3714 237.343 73.078 240.705 72.1726C244.068 71.2672 247.431 70.8792 250.923 70.8792C253.51 70.8792 255.968 71.1378 258.425 71.6552C260.883 72.1726 263.211 73.078 265.539 74.242L262.694 85.7535H261.012C260.495 85.2361 259.977 84.7187 259.331 84.072C258.684 83.4253 257.908 82.908 257.003 82.3906C256.097 81.8732 255.062 81.3558 253.769 80.9678C252.476 80.5798 251.053 80.4505 249.501 80.4505C245.75 80.4505 242.646 81.6145 239.929 84.072C237.343 86.5295 235.402 89.7631 234.497 93.7727C233.462 98.1703 233.721 101.404 235.402 103.473C237.084 105.672 239.671 106.707 243.292 106.707C245.103 106.707 246.785 106.578 248.207 106.19C249.63 105.801 251.053 105.284 252.088 104.767C253.252 104.249 254.157 103.603 255.062 103.085C255.838 102.568 256.615 102.051 257.261 101.533H259.201L256.356 113.045C255.45 113.433 254.416 113.821 253.122 114.209C251.958 114.597 250.665 114.985 249.501 115.243C247.949 115.631 246.655 115.89 245.362 116.02C243.81 116.408 242.128 116.537 240.059 116.537Z" fill="black"/>
<path d="M281.319 116.407C276.533 116.407 272.524 116.019 269.161 115.114C265.798 114.209 262.694 113.174 259.977 112.01L263.34 98.2996H264.763C267.221 100.757 270.195 102.568 273.688 103.991C277.051 105.284 280.543 105.931 284.164 105.931C285.07 105.931 286.234 105.801 287.786 105.672C289.338 105.543 290.502 105.155 291.537 104.767C292.701 104.379 293.865 103.732 294.77 102.956C295.676 102.18 296.323 101.145 296.711 99.8517C297.099 98.4289 296.711 97.2649 295.805 96.3595C294.77 95.4541 293.477 94.8074 291.925 94.4193C289.985 93.902 287.786 93.3846 285.458 92.9966C283.13 92.4792 281.06 91.9618 279.12 91.3151C274.722 89.763 271.748 87.6936 270.325 84.9774C268.902 82.2612 268.643 79.0276 269.678 75.018C270.971 69.5857 274.593 65.3174 280.284 61.9545C285.975 58.5916 292.572 56.9102 299.944 56.9102C303.695 56.9102 307.187 57.2982 310.679 57.9449C314.172 58.5916 317.147 59.6263 319.733 60.7904L316.5 73.854H315.077C313.266 72.0432 310.809 70.4911 307.834 69.1976C304.859 67.9042 301.626 67.2575 298.133 67.2575C296.711 67.2575 295.546 67.3869 294.382 67.5162C293.218 67.6455 292.054 68.0336 290.761 68.5509C289.726 68.939 288.691 69.5857 287.786 70.3617C286.881 71.1378 286.234 72.0432 286.104 73.0779C285.716 74.5007 285.975 75.6647 286.881 76.5701C287.786 77.4755 289.726 78.2516 292.83 78.8983C294.77 79.2863 296.711 79.8037 298.521 80.1917C300.332 80.5797 302.272 81.2265 304.342 81.8732C308.351 83.2959 311.068 85.2361 312.49 87.6936C314.042 90.1511 314.172 93.3846 313.266 97.2649C311.844 102.956 308.222 107.612 302.531 111.104C296.581 114.597 289.597 116.407 281.319 116.407Z" fill="black"/>
<path d="M333.314 116.149C327.365 116.149 323.355 114.985 321.156 112.786C318.957 110.587 318.569 106.836 319.863 101.663L324.907 81.3559H319.345L321.674 71.9139H327.235L330.339 59.4971H344.955L341.851 71.9139H355.949L353.621 81.3559H339.523L335.643 96.7476C335.254 98.2997 334.996 99.5931 334.737 100.757C334.478 101.921 334.478 102.956 334.608 103.861C334.737 104.767 335.254 105.413 336.16 106.06C337.065 106.578 338.359 106.836 340.299 106.836C341.075 106.836 342.11 106.707 343.532 106.319C344.826 106.06 345.861 105.672 346.378 105.413H347.671L345.343 114.985C343.662 115.373 341.851 115.632 340.04 115.89C338.1 116.149 335.901 116.149 333.314 116.149Z" fill="black"/>
<path d="M374.704 110.716C373.54 111.492 372.505 112.139 371.47 112.786C370.565 113.433 369.271 114.079 367.849 114.597C366.426 115.243 365.003 115.631 363.71 115.89C362.416 116.149 360.606 116.407 358.407 116.407C354.268 116.407 351.164 115.114 349.094 112.527C347.025 109.94 346.378 106.707 347.413 102.827C348.189 99.593 349.611 97.0062 351.422 95.0661C353.362 93.1259 355.691 91.5738 358.536 90.4097C361.511 89.2457 364.874 88.3403 368.625 87.9522C372.376 87.4349 376.385 87.1762 380.783 86.9175V86.6588C381.43 84.3307 380.783 82.6492 379.101 81.7438C377.42 80.8384 374.704 80.3211 370.824 80.3211C369.142 80.3211 367.073 80.5798 364.615 81.2265C362.158 81.7438 359.7 82.5199 357.243 83.4253H355.949L358.536 72.9486C360.088 72.5605 362.546 72.0432 365.909 71.5258C369.271 71.0084 372.634 70.7498 375.868 70.7498C383.887 70.7498 389.449 72.0432 392.553 74.5007C395.657 76.9582 396.563 80.7091 395.269 85.8828L387.897 115.373H373.54L374.704 110.716ZM376.385 103.991L378.584 94.9367C375.997 95.1954 374.057 95.3247 372.376 95.5834C370.824 95.7128 369.271 96.1008 367.59 96.6182C366.167 97.0062 365.003 97.6529 364.098 98.4289C363.192 99.205 362.546 100.369 362.158 101.792C361.64 103.861 361.899 105.155 362.934 105.931C363.968 106.707 365.521 107.095 367.849 107.095C369.142 107.095 370.565 106.836 371.988 106.319C373.669 105.801 374.963 105.025 376.385 103.991Z" fill="black"/>
<path d="M435.365 84.7188H434.201C433.684 84.5895 432.908 84.4601 431.873 84.3308C430.838 84.2015 429.674 84.2014 428.381 84.2014C426.829 84.2014 425.147 84.4601 423.466 84.8482C421.655 85.2362 419.974 85.7536 418.163 86.2709L410.92 115.244H396.304L407.169 71.914H421.784L420.232 78.1224C421.008 77.605 422.172 76.829 423.595 75.9236C425.018 75.0182 426.182 74.3715 427.346 73.8541C428.51 73.2074 429.933 72.69 431.356 72.302C432.908 71.914 434.201 71.6553 435.495 71.6553C436.012 71.6553 436.529 71.6553 437.047 71.6553C437.564 71.6553 438.081 71.6553 438.599 71.7846L435.365 84.7188Z" fill="black"/>
<path d="M271.489 131.023H285.458C288.691 131.023 294.382 131.928 294.382 136.585C294.382 139.818 291.149 142.276 286.104 142.664V142.793C289.726 143.181 292.184 144.863 292.184 147.449C292.184 152.623 286.493 154.951 279.249 155.081L264.892 155.21L271.489 131.023ZM274.464 150.683H276.663C280.931 150.683 283.776 149.778 283.776 147.449C283.776 145.38 281.836 144.992 277.956 144.992H275.886L274.464 150.683ZM277.18 140.594H280.284C283.776 140.594 285.846 139.56 285.846 137.878C285.846 135.938 283.776 135.679 280.543 135.679H278.344L277.18 140.594Z" fill="black"/>
<path d="M310.421 155.598C300.203 155.598 296.452 150.683 296.452 145.768C296.452 136.585 302.79 130.635 314.818 130.635C325.036 130.635 328.787 135.55 328.787 140.465C328.787 149.649 322.579 155.598 310.421 155.598ZM314.301 135.421C307.834 135.421 305.118 141.241 305.118 145.251C305.118 148.355 306.67 150.813 310.938 150.813C317.405 150.813 320.121 144.992 320.121 140.983C320.121 138.008 318.699 135.421 314.301 135.421Z" fill="black"/>
<path d="M343.791 131.023H353.621L358.407 155.21H350.517L349.741 150.036H338.359L334.866 155.21H326.459L343.791 131.023ZM347.671 136.067L341.334 145.509H348.835L347.671 136.067Z" fill="black"/>
<path d="M368.107 135.809H360.217L361.511 131.023H385.827L384.534 135.809H376.644L371.212 155.21H362.675L368.107 135.809Z" fill="black"/>
<path d="M407.686 136.585C406.004 135.938 403.806 135.421 400.701 135.421C397.339 135.421 394.622 135.809 394.622 137.749C394.622 141.112 406.91 139.948 406.91 147.191C406.91 153.917 398.761 155.598 391.518 155.598C388.285 155.598 384.534 154.952 381.818 154.305L383.758 149.39C385.439 150.166 388.802 150.813 391.518 150.813C394.105 150.813 398.244 150.425 398.244 147.967C398.244 144.087 385.956 145.51 385.956 138.784C385.956 132.575 393.07 130.635 400.055 130.635C403.935 130.635 407.557 130.894 409.755 131.67L407.686 136.585Z" fill="black"/>
<path d="M458 76.958C458 78.8982 457.353 80.5796 455.931 82.0024C454.508 83.4251 452.826 84.0719 450.886 84.0719C448.946 84.0719 447.265 83.4251 445.842 82.0024C444.419 80.5796 443.772 78.8982 443.772 76.958C443.772 75.0179 444.419 73.3365 445.842 71.9137C447.265 70.491 448.946 69.8442 450.886 69.8442C452.826 69.8442 454.508 70.491 455.931 71.9137C457.224 73.3365 458 75.0179 458 76.958ZM457.095 76.958C457.095 75.2766 456.448 73.8538 455.284 72.5604C454.12 71.3963 452.697 70.7496 451.015 70.7496C449.334 70.7496 447.911 71.3963 446.747 72.5604C445.583 73.7245 444.936 75.1473 444.936 76.958C444.936 78.7688 445.583 80.0623 446.747 81.3557C447.911 82.5198 449.334 83.1665 451.015 83.1665C452.697 83.1665 454.12 82.5198 455.284 81.3557C456.448 80.1916 457.095 78.6395 457.095 76.958ZM455.025 80.5796H453.214L450.886 77.7341H449.851V80.5796H448.558V73.0778H450.886C451.404 73.0778 451.792 73.0778 452.05 73.0778C452.309 73.0778 452.697 73.2071 452.956 73.3365C453.344 73.4658 453.473 73.7245 453.602 73.9832C453.732 74.2419 453.861 74.6299 453.861 75.0179C453.861 75.5353 453.732 76.0527 453.473 76.3113C453.214 76.6994 452.826 76.9581 452.309 77.0874L455.025 80.5796ZM452.309 75.2766C452.309 75.0179 452.309 74.8886 452.18 74.7592C452.18 74.6299 452.05 74.5006 451.792 74.3712C451.662 74.2419 451.533 74.2419 451.274 74.2419C451.145 74.2419 450.886 74.2419 450.627 74.2419H449.851V76.6994H450.627C450.886 76.6994 451.145 76.6994 451.404 76.57C451.662 76.57 451.792 76.4407 451.921 76.3113C452.05 76.182 452.18 76.0527 452.18 75.9233C452.309 75.6646 452.309 75.5353 452.309 75.2766Z" fill="black"/>
</svg>
