<svg width="224" height="49" viewBox="0 0 224 49" fill="none" xmlns="http://www.w3.org/2000/svg">
<path d="M170.244 4.40771V44.8095H178.463V27.8648H185.608V44.8095H193.764V4.40771H185.608V20.5305H178.463V4.40771H170.244Z" fill="white"/>
<path d="M106.954 4.40771V44.8095H114.414V19.1395L118.84 44.8095H123.835L128.324 19.1395V44.8095H135.911V4.40771H124.72L121.433 23.8815L118.082 4.40771H106.954Z" fill="white"/>
<path d="M59.7234 4.40771L64.7183 22.4905L69.7132 4.40771H77.8694L69.0809 31.5952V44.8095H60.3556V31.5952L51.5671 4.40771H59.7234Z" fill="white"/>
<path d="M95.1934 4.40771H84.3184L77.1738 44.8095H85.2668L86.6578 35.1991H92.7908L94.1818 44.8095H102.338L95.1934 4.40771ZM89.7559 13.5756L91.7792 27.8648H87.7327L89.7559 13.5756Z" fill="white"/>
<path d="M158.483 4.40771H147.608L140.464 44.8095H148.557L149.948 35.1991H156.081L157.472 44.8095H165.628L158.483 4.40771ZM153.046 13.5756L155.069 27.8648H151.022L153.046 13.5756Z" fill="white"/>
<path d="M216.399 4.40771H205.524L198.379 44.8095H206.472L207.863 35.1991H213.996L215.387 44.8095H223.544L216.399 4.40771ZM210.961 13.5756L212.985 27.8648H208.938L210.961 13.5756Z" fill="white"/>
<path d="M23.8738 0.677246C10.7859 0.677246 0.163818 11.3625 0.163818 24.5769C0.163818 37.7913 10.7859 48.4766 23.8738 48.4766C36.9617 48.4766 47.5838 37.7913 47.5838 24.5769C47.5838 11.3625 36.9617 0.677246 23.8738 0.677246ZM23.8738 47.5282C11.2917 47.5282 1.11222 37.2222 1.11222 24.5769C1.11222 11.8684 11.2917 1.62565 23.8738 1.62565C36.4559 1.62565 46.6354 11.9316 46.6354 24.5769C46.6354 37.2855 36.4559 47.5282 23.8738 47.5282Z" fill="white"/>
<path d="M15.7809 27.359C14.9589 27.8016 14.706 28.8132 15.1486 29.6351C15.5912 30.4571 16.6028 30.71 17.4248 30.2674L20.3332 28.5603V26.6003L18.6893 25.6519L15.7809 27.359Z" fill="white"/>
<path d="M22.23 23.5651V25.5251L23.8739 26.4735L25.5178 25.5251V23.5651L23.8739 22.6167L22.23 23.5651Z" fill="white"/>
<path d="M43.158 35.2621L40.945 32.8595C42.1463 30.3936 42.8418 27.5484 42.8418 24.5768C42.8418 14.5238 35.1282 6.24108 25.2648 5.54558L24.3164 2.44748C24.2532 2.2578 24.0635 2.13135 23.8738 2.13135C23.6842 2.13135 23.4945 2.2578 23.4313 2.44748L22.4829 5.54558C12.6195 6.3043 4.90586 14.587 4.90586 24.64C4.90586 27.6117 5.60136 30.3936 6.80266 32.9227L4.58973 35.3253C4.5265 35.4518 4.46328 35.6415 4.58973 35.8311C4.65296 36.0208 4.84264 36.084 5.03232 36.084L8.19365 35.3885C11.6079 40.4467 17.3615 43.7345 23.8738 43.7345C30.3862 43.7345 36.1398 40.4467 39.5541 35.3885L42.7154 36.084C42.9051 36.084 43.0315 36.0208 43.158 35.8311C43.2844 35.6415 43.2844 35.4518 43.158 35.2621ZM42.8418 35.515C42.7786 35.5782 42.7154 35.5782 42.6522 35.5782L35.8869 33.9976C35.7605 33.3021 35.3811 32.6066 34.6856 32.2272C33.9901 31.8479 33.1682 31.7846 32.5359 32.1008C31.5875 32.5433 30.3862 32.4801 29.3746 31.9111L27.4145 30.773V40.826H25.5177V29.6982L23.8738 28.7498L22.23 29.6982V40.8893H20.3332V30.8362L18.3731 31.9743C17.3615 32.5433 16.2234 32.6066 15.2118 32.164C14.5163 31.8479 13.7576 31.9111 13.0621 32.2904C12.4298 32.6698 11.9872 33.3653 11.924 34.0608L5.15877 35.6415C5.09554 35.6415 5.03232 35.6415 4.96909 35.5782C4.96909 35.515 4.96909 35.4518 5.03232 35.3885L9.71109 30.2672C10.4066 30.5833 11.1653 30.5201 11.8608 30.1407C12.4931 29.7614 12.9356 29.0659 12.9989 28.3704C13.1253 27.2955 13.7576 26.2839 14.7692 25.7149L16.7292 24.5768L8.13042 19.5819L9.07882 17.8748L18.626 23.4387L20.2699 22.4903V20.5303L10.7227 14.9664L11.6711 13.3225L20.2699 18.3174V16.0412C20.2699 14.9031 20.839 13.8283 21.7241 13.196C22.2932 12.7534 22.6725 12.0579 22.6725 11.2992C22.6725 10.5405 22.2932 9.845 21.7241 9.40241L23.7474 2.70039C23.7474 2.63716 23.8106 2.57393 23.8738 2.57393C23.9371 2.57393 24.0003 2.63716 24.0003 2.70039L26.0236 9.46564C25.4545 9.90822 25.0752 10.6037 25.0752 11.3624C25.0752 12.1212 25.4545 12.8166 26.0236 13.2592C26.9087 13.8915 27.4778 14.9031 27.4778 16.1044V18.3806L36.0766 13.3857L37.025 15.0296L27.4778 20.5935V22.5535L29.1217 23.5019L38.6689 17.938L39.6173 19.5819L30.9552 24.5768L32.9153 25.7149C33.9269 26.2839 34.5591 27.2955 34.6856 28.3704C34.7488 29.0659 35.1282 29.7614 35.8237 30.1407C36.5192 30.5201 37.2779 30.5833 37.9734 30.2672L42.7154 35.3885C42.7786 35.4518 42.9051 35.4518 42.8418 35.515Z" fill="white"/>
<path d="M23.8739 14.4604C22.9887 14.4604 22.23 15.2192 22.23 16.1043V19.4554L23.8739 20.4038L25.5178 19.4554V16.1043C25.5178 15.1559 24.759 14.4604 23.8739 14.4604Z" fill="white"/>
<path d="M31.9669 27.3587L29.0584 25.7148L27.4146 26.6632V28.56L30.323 30.2672C31.1449 30.7097 32.1565 30.4568 32.5991 29.6349C33.0417 28.8129 32.7888 27.8013 31.9669 27.3587Z" fill="white"/>
</svg>
